SplineFontDB: 3.0
FontName: Sebastian-Ornaments
FullName: Sebastian-Ornaments
FamilyName: Sebastian-Ornaments
Weight: Standard

StartChar: zero
Encoding: 48 48 0
Width: 343
Flags: HW
LayerCount: 2
Fore
SplineSet
35 188 m 0
 35 294 93 379 172 379 c 0
 251 379 308 294 308 188 c 0
 308 82 251 -4 172 -4 c 0
 93 -4 35 82 35 188 c 0
172 357 m 0
 123 357 111 283 111 201 c 2
 111 171 l 2
 111 89 123 18 172 18 c 0
 221 18 232 89 232 171 c 2
 232 201 l 2
 232 283 221 357 172 357 c 0
EndSplineSet
Validated: 1
EndChar

StartChar: one
Encoding: 49 49 1
Width: 307
Flags: HW
LayerCount: 2
Fore
SplineSet
208 62 m 2
 208 36 225 24 249 24 c 2
 272 24 l 1
 272 0 l 1
 74 0 l 1
 74 24 l 1
 97 24 l 2
 121 24 138 37 138 63 c 2
 138 270 l 2
 138 282 128 282 121 274 c 2
 53 199 l 1
 35 215 l 1
 142 371 l 1
 152.5 366.5 163.5 364.25 174.625 364.25 c 0
 185.75 364.25 197 366.5 208 371 c 1
 208 62 l 2
EndSplineSet
Validated: 1
EndChar

StartChar: two
Encoding: 50 50 2
Width: 331
Flags: HW
LayerCount: 2
Fore
SplineSet
87 309 m 0
 112 309 129 290 129 266 c 0
 129 241 112 224 87 224 c 0
 63 224 40 242 40 276 c 0
 40 326 90 379 171 379 c 0
 239 379 296 336 296 274 c 0
 296 212 243 186 196 158 c 0
 161 138 127 119 100 87 c 1
 107 89 115 90 123 90 c 0
 161 90 191 60 227 60 c 0
 250 60 269 75 272 115 c 1
 296 115 l 1
 296 76 289 -4 217 -4 c 0
 164 -4 143 38 103 38 c 0
 80 38 65 24 57 0 c 1
 35 0 l 1
 39 57 90 122 133 154 c 0
 203 205 224 241 224 281 c 0
 224 330 189 355 152 355 c 0
 119 355 89 336 77 308 c 1
 79 309 83 309 87 309 c 0
EndSplineSet
Validated: 1
EndChar

StartChar: three
Encoding: 51 51 3
Width: 336
Flags: HW
LayerCount: 2
Fore
SplineSet
199 197 m 1
 259 183 301 151 301 100 c 0
 301 47 250 -4 162 -4 c 0
 94 -4 35 32 35 80 c 0
 35 114 56 132 79 132 c 0
 102 132 121 112 121 90 c 0
 121 68 106 44 71 50 c 1
 78 38 112 20 148 20 c 0
 201 20 226 54 226 105 c 0
 226 152 200 184 116 184 c 1
 116 206 l 1
 196 206 223 241 223 286 c 0
 223 329 206 356 158 356 c 0
 134 356 105 345 90 325 c 1
 115 329 131 309 131 288 c 0
 131 267 114 250 93 250 c 0
 72 250 54 266 54 290 c 0
 54 340 108 379 167 379 c 0
 230 379 288 343 288 289 c 0
 288 244 249 213 199 197 c 1
EndSplineSet
Validated: 33
EndChar

StartChar: four
Encoding: 52 52 4
Width: 359
Flags: HW
LayerCount: 2
Fore
SplineSet
254 106 m 1
 254 61 l 2
 254 38 271 24 292 24 c 2
 308 24 l 1
 308 0 l 1
 129 0 l 1
 129 24 l 1
 145 24 l 2
 166 24 183 38 183 62 c 2
 183 106 l 1
 45 106 l 1
 35 106 l 1
 35 128 l 1
 95 216 122 287 140 375 c 1
 172 364 211.5 363.5 249 375 c 1
 207 282 134 234 68 131 c 1
 183 131 l 1
 183 204 l 1
 254 282 l 1
 254 131 l 1
 324 131 l 1
 324 106 l 1
 254 106 l 1
EndSplineSet
Validated: 33
EndChar

StartChar: five
Encoding: 53 53 5
Width: 321
Flags: HW
LayerCount: 2
Fore
SplineSet
80 37 m 1
 88 31 103 19 138 19 c 0
 179 19 211 46 211 117 c 0
 211 173 187 202 147 202 c 0
 118 202 89 187 60 163 c 1
 60 372 l 1
 105.43 363.368 141.366 359.896 171.653 359.896 c 0
 208.032 359.896 236.261 364.906 263 372 c 1
 248.543 320.259 195.296 302.098 138.06 302.098 c 0
 120.074 302.098 101.694 303.892 84 307 c 1
 84 208 l 1
 104 219 127 227 164 227 c 0
 226 227 286 190 286 116 c 0
 286 42 224 -4 151 -4 c 0
 80 -4 35 29 35 77 c 0
 35 102 55 121 80 121 c 0
 105 121 122 102 122 77 c 0
 122 52 102 37 80 37 c 1
EndSplineSet
Validated: 1
EndChar

StartChar: six
Encoding: 54 54 6
Width: 329
Flags: HW
LayerCount: 2
Fore
SplineSet
188 316 m 0
 188 337 199 348 207 352 c 1
 202 355 196 357 185 357 c 0
 131 357 103 278 103 206 c 2
 103 182 l 1
 116 198 147 227 189 227 c 0
 251 227 294 193 294 118 c 0
 294 44 239 -4 170 -4 c 0
 78 -4 35 75 35 181 c 0
 35 286 91 379 185 379 c 0
 236 379 274 349 274 316 c 0
 274 292 254 273 230 273 c 0
 206 273 188 292 188 316 c 0
178 202 m 0
 152 202 105 174 105 116 c 2
 105 107 l 2
 105 68 121 18 168 18 c 0
 210 18 227 54 227 117 c 0
 227 180 213 202 178 202 c 0
EndSplineSet
Validated: 1
EndChar

StartChar: seven
Encoding: 55 55 7
Width: 301
Flags: HW
LayerCount: 2
Fore
SplineSet
231 299 m 1
 220 288 206 283 186 283 c 0
 152 283 125 308 87 308 c 0
 53 308 40 282 37 248 c 1
 15 248 l 1
 15 379 l 1
 37 379 l 1
 37 361 41 354 47 354 c 0
 58 354 77 377 105 377 c 0
 149 377 163 344 203 344 c 0
 229 344 241 357 245 379 c 1
 266 379 l 1
 266 202 153 144 153 -4 c 1
 119 6 88 4 64 -4 c 1
 82 123 192 189 231 299 c 1
EndSplineSet
Validated: 33
EndChar

StartChar: eight
Encoding: 56 56 8
Width: 341
Flags: HW
LayerCount: 2
Fore
SplineSet
108 307 m 0
 108 275 156 252 205 223 c 1
 232 240 246 263 246 290 c 0
 246 326 223 356 168 356 c 0
 133 356 108 332 108 307 c 0
246 77 m 0
 246 125 190 147 138 174 c 1
 103 157 79 131 79 96 c 0
 79 60 108 19 168 19 c 0
 226 19 246 51 246 77 c 0
116 186 m 1
 80 207 50 234 50 278 c 0
 50 332 106 379 168 379 c 0
 232 379 288 345 288 294 c 0
 288 258 263 230 227 210 c 1
 269 184 306 153 306 108 c 0
 306 45 240 -4 168 -4 c 0
 90 -4 35 43 35 91 c 0
 35 138 71 165 116 186 c 1
EndSplineSet
Validated: 1
EndChar

StartChar: nine
Encoding: 57 57 9
Width: 328
Flags: HW
LayerCount: 2
Fore
SplineSet
110 21 m 1
 116 19 122 18 128 18 c 0
 194 18 225 88 225 173 c 2
 225 183 l 1
 212 167 181 148 147 148 c 0
 87 148 35 181 35 255 c 0
 35 329 86 379 160 379 c 0
 246 379 293 312 293 204 c 0
 293 80 228 -4 128 -4 c 0
 88 -4 44 18 44 57 c 0
 44 81 64 100 88 100 c 0
 112 100 132 81 132 57 c 0
 132 35 119 25 110 21 c 1
156 174 m 0
 190 174 225 210 225 255 c 2
 225 265 l 2
 225 311 201 357 161 357 c 0
 119 357 102 328 102 257 c 0
 102 192 118 174 156 174 c 0
EndSplineSet
Validated: 1
EndChar

StartChar: logicaland
Encoding: 8743 8743 10
Width: 1000
Flags: H
LayerCount: 2
Back
SplineSet
214 10 m 6xb8
 182 10 178 -1 171 -26 c 6
 133 -164 l 6
 128 -187 126 -212 145 -212 c 7
 177 -212 235 -133 252 -72 c 6
 263 -34 l 6
 272 1 267 10 234 10 c 14
 214 10 l 6xb8
231 185 m 6
 198 69 l 6
 193 48 202 45 214 45 c 7xb8
 297 45 299 58 334 58 c 7
 361 58 348 36 360 36 c 7
 370 36 384 64 423 64 c 7
 467 64 484 30.918 484 -5 c 31
 484 -34.5703 472 -62 434 -62 c 7xd8
 412 -62 398 -42 398 -21 c 7
 398 -8 401 1 404 9 c 4
 420 37 404 44 381 20 c 4
 353 -9 322 -76 305 -137 c 6
 283 -218 l 6
 277 -241 273 -247 252 -247 c 6
 220 -247 l 6
 212 -247 205 -241 206 -232 c 4
 214 -204 196 -212 180 -225 c 4
 169 -235 151 -250 117 -250 c 7
 28 -250 61 -161 73 -117 c 6
 100 -19 l 6
 107 8 96 10 78 10 c 14
 53 10 l 6
 35 10 25 12 25 24 c 7
 25 38 34 45 63 45 c 6
 76 45 l 6
 109 45 118 47 124 66 c 6
 137 115 l 6
 143 135 146 138 160 147 c 4
 186 163 194 174 212 197 c 4
 222 209 237 208 231 185 c 6
EndSplineSet
EndChar

StartChar: equal
Encoding: 61 61 11
Width: 303
Flags: HW
LayerCount: 2
Fore
SplineSet
63 14 m 0
 36 14 18 -2 0 -17 c 0
 -6 -22 -11 -24 -15 -24 c 0
 -21 -24 -24 -20 -24 -16 c 0
 -24 -9 -14 5 0 17 c 0
 26 39 60 71 99 71 c 0
 159 71 181 -14 240 -14 c 0
 267 -14 285 2 303 17 c 0
 309 22 314 24 318 24 c 0
 324 24 327 20 327 16 c 0
 327 9 317 -5 303 -17 c 0
 277 -39 243 -71 204 -71 c 0
 144 -71 122 14 63 14 c 0
EndSplineSet
Validated: 1
EndChar

StartChar: exclam
Encoding: 33 33 12
Width: 336
Flags: HW
LayerCount: 2
Fore
SplineSet
315 136 m 0
 328 136 336 134 336 125 c 0
 336 122 335 118 334 114 c 0
 310 36 244 -19 168 -19 c 0
 88 -19 25 40 2 115 c 0
 1 119 0 123 0 126 c 0
 0 135 12 137 24 137 c 0
 32 137 35 134 38 125 c 0
 57 62 108 18 168 18 c 0
 225 18 278 60 298 124 c 0
 301 134 305 136 315 136 c 0
EndSplineSet
Validated: 1
EndChar

StartChar: percent
Encoding: 37 37 13
Width: 184
Flags: HW
LayerCount: 2
Fore
SplineSet
32 0 m 0
 32 -32 57 -60 92 -60 c 0
 124 -60 152 -35 152 0 c 0
 152 32 127 60 92 60 c 0
 60 60 32 35 32 0 c 0
0 0 m 0
 0 53 44 92 92 92 c 0
 145 92 184 48 184 0 c 0
 184 -53 140 -92 92 -92 c 0
 39 -92 0 -48 0 0 c 0
EndSplineSet
Validated: 1
EndChar

StartChar: ampersand
Encoding: 38 38 14
Width: 311
Flags: HW
LayerCount: 2
Fore
SplineSet
155 155 m 0
 170 155 172 152 172 140 c 0
 172 40 l 0
 172 27 180 17 194 17 c 0
 297 17 l 0
 309 17 310 13 310 0 c 0
 310 -13 308 -17 295 -17 c 0
 194 -17 l 0
 179 -17 172 -23 172 -37 c 0
 172 -142 l 0
 172 -154 167 -155 155 -155 c 0
 141 -155 138 -153 138 -140 c 0
 138 -39 l 0
 138 -24 133 -17 111 -17 c 0
 12 -17 l 0
 1 -17 0 -12 0 0 c 0
 0 14 2 17 15 17 c 0
 114 17 l 0
 134 17 138 24 138 40 c 0
 138 143 l 0
 138 154 142 155 155 155 c 0
EndSplineSet
Validated: 1
EndChar

StartChar: parenleft
Encoding: 40 40 15
Width: 280
Flags: HW
LayerCount: 2
Fore
SplineSet
171 97 m 0
 198 68 230 44 261 20 c 0
 275 9 280 2 280 -4 c 0
 280 -10 275 -15 266 -22 c 0
 162 -106 l 0
 151 -115 145 -120 138 -120 c 0
 132 -120 124 -115 112 -102 c 0
 85 -73 53 -48 21 -23 c 0
 7 -12 0 -4 0 2 c 0
 0 9 6 15 16 23 c 0
 116 103 l 0
 127 112 135 117 142 117 c 0
 150 117 158 111 171 97 c 0
78 -4 m 0
 134 -52 l 0
 144 -61 151 -65 157 -65 c 0
 163 -65 168 -62 174 -57 c 0
 197 -38 l 0
 207 -29 212 -23 212 -16 c 0
 212 -10 208 -3 197 6 c 0
 146 50 l 0
 137 58 130 62 124 62 c 0
 118 62 112 58 104 53 c 0
 81 34 l 0
 72 26 66 20 66 14 c 0
 66 9 70 3 78 -4 c 0
EndSplineSet
Validated: 1
EndChar

StartChar: parenright
Encoding: 41 41 16
Width: 151
Flags: HW
LayerCount: 2
Fore
SplineSet
64 210 m 0
 126 210 151 145 151 85 c 0
 151 -35 96 -118 62 -141 c 0
 41 -154 25 -139 41 -120 c 0
 67 -89 111 -26 111 50 c 0
 111 76 102 86 86 83 c 0
 78 82 76 80 64 80 c 0
 27 80 0 103 0 147 c 0
 0 182 29 210 64 210 c 0
EndSplineSet
Validated: 33
EndChar

StartChar: numbersign
Encoding: 35 35 17
Width: 274
Flags: HW
LayerCount: 2
Fore
SplineSet
274 6 m 0
 274 -1 260 -10 252 -10 c 0
 246 -10 243 -6 239 3 c 0
 157 179 l 0
 149 196 143 204 137 204 c 0
 131 204 125 196 117 178 c 0
 34 2 l 0
 31 -6 28 -10 22 -10 c 0
 13 -10 0 -1 0 5 c 0
 0 7 1 11 3 15 c 0
 119 264 l 0
 126 280 132 287 137 287 c 0
 143 287 149 278 156 262 c 0
 271 16 l 0
 273 12 274 8 274 6 c 0
EndSplineSet
Validated: 1
EndChar

StartChar: plus
Encoding: 43 43 18
Width: 202
Flags: HW
LayerCount: 2
Fore
SplineSet
25.6602 -84.667 m 0
 63.8096 -57.0762 142 1.4619 142 54 c 0
 142 67 136 76 122 76 c 0
 116 76 98.3332 70 81.0002 70 c 0
 50.0002 70 0.000198364 88 0.000198364 157 c 0
 0.000198364 214 39.0002 247 90.0002 247 c 0
 170 247 202 179 202 122 c 0
 202 -5.486 97.6922 -75.771 35.6642 -112 c 0
 9.7735 -126.876 4.9444 -99.1338 25.6602 -84.667 c 0
EndSplineSet
Validated: 1
EndChar

StartChar: comma
Encoding: 44 44 19
Width: 285
Flags: HW
LayerCount: 2
Fore
SplineSet
14 -38 m 0
 7 -38 0 -25 0 -14 c 0
 0 -9 4 -7 14 -4 c 0
 117 24 l 0
 142 30 150 40 150 71 c 0
 150 98 143 112 127 112 c 0
 114 112 103 107 87 107 c 0
 43 107 10 134 10 187 c 0
 10 229 45 263 87 263 c 0
 161 263 192 185 192 99 c 0
 192 87 191 74 191 62 c 0
 191 51 193 47 200 47 c 0
 204 47 209 48 215 50 c 0
 264 63 l 0
 267 64 269 64 271 64 c 0
 277 64 285 51 285 41 c 0
 285 36 281 34 271 31 c 0
 209 14 l 0
 185 8 182 4 174 -21 c 0
 151 -92 112 -136 87 -158 c 0
 80 -164 74 -167 69 -167 c 0
 63 -167 59 -162 59 -155 c 0
 59 -150 61 -143 67 -136 c 0
 92 -105 114 -74 129 -38 c 0
 132 -31 133 -25 133 -21 c 0
 133 -14 129 -11 122 -11 c 0
 119 -11 114 -12 109 -13 c 0
 24 -36 l 0
 20 -37 17 -38 14 -38 c 0
EndSplineSet
Validated: 1
EndChar

StartChar: period
Encoding: 46 46 20
Width: 168
Flags: W
HStem: -2 88<46.4399 121.793>
VStem: 40 88<4.43994 79.5601>
LayerCount: 2
Fore
SplineSet
40 42 m 0
 40 66 60 86 84 86 c 0
 109 86 128 66 128 42 c 0
 128 18 109 -2 84 -2 c 0
 60 -2 40 18 40 42 c 0
EndSplineSet
Validated: 1
EndChar

StartChar: colon
Encoding: 58 58 21
Width: 535
Flags: HW
LayerCount: 2
Fore
SplineSet
188 -55 m 0
 177 -100 l 0
 173 -121 167 -144 167 -162 c 0
 167 -187 175 -207 199 -207 c 0
 232 -207 246 -172 246 -135 c 0
 246 -103 237 -74 219 -45 c 0
 207 -26 191 -32 188 -55 c 0
86 69 m 0
 50 69 28 45 28 9 c 0
 28 -21 49 -53 89 -53 c 0
 116 -53 125 -41 130 -13 c 0
 134 9 l 0
 142 46 126 69 86 69 c 0
244 189 m 0
 221 91 l 0
 215 65 223 54 248 66 c 0
 270 76 291 81 314 81 c 0
 341 81 361 69 380 50 c 0
 393 36 399 24 408 24 c 0
 419 24 426 33 437 43 c 0
 453 57 476 66 495 66 c 0
 535 66 557 38 557 4 c 0
 557 -24 541 -46 512 -46 c 0
 487 -46 475 -25 475 -4 c 0
 475 15 471 23 462 23 c 0
 446 23 430 1 413 -32 c 0
 402 -54 394 -82 388 -109 c 0
 362 -220 l 0
 359 -232 358 -234 342 -234 c 0
 304 -234 l 0
 292 -234 289 -232 291 -222 c 0
 332 -50 l 0
 335 -36 337 -22 337 -8 c 0
 337 23 334 50 296 50 c 0
 277 50 226 33 226 10 c 0
 226 1 230 -9 238 -22 c 0
 257 -55 274 -93 274 -135 c 0
 274 -181 254 -242 185 -242 c 0
 141 -242 100 -206 100 -153 c 0
 100 -144 102 -136 104 -126 c 0
 107 -109 l 0
 111 -88 101 -83 79 -81 c 0
 28 -76 0 -37 0 9 c 0
 0 63 37 97 86 97 c 0
 111 97 123 89 137 89 c 0
 147 89 154 94 158 110 c 0
 176 189 l 0
 179 200 181 201 191 201 c 0
 234 201 l 0
 244 201 247 200 244 189 c 0
EndSplineSet
Validated: 33
EndChar

StartChar: semicolon
Encoding: 59 59 22
Width: 480
Flags: HW
LayerCount: 2
Fore
SplineSet
338 67 m 0
 338 63 336 51 336 46 c 0
 336 38 338 29 348 29 c 0
 354 29 363 32 375 41 c 0
 400 57 419 66 442 66 c 0
 476 66 497 36 497 4 c 0
 497 -22 482 -45 451 -45 c 0
 428 -45 414 -25 414 -3 c 0
 414 21 410 21 401 21 c 0
 392 21 379 15 366 6 c 0
 337 -12 323 -27 311 -81 c 0
 279 -218 l 0
 276 -232 275 -234 258 -234 c 0
 223 -234 l 0
 212 -234 212 -233 212 -226 c 0
 212 -223 213 -214 213 -210 c 0
 213 -204 209 -201 204 -201 c 0
 195 -201 183 -209 173 -213 c 0
 154 -223 129 -238 102 -238 c 0
 24 -238 31 -164 46 -97 c 0
 73 18 l 0
 79 42 75 44 46 44 c 0
 8 44 l 0
 0 44 -2 45 1 56 c 0
 4 72 5 73 17 73 c 0
 59 73 l 0
 81 73 89 85 94 107 c 0
 104 149 l 0
 108 168 108 172 117 181 c 0
 134 196 154 218 169 235 c 0
 185 254 195 249 189 224 c 0
 162 110 l 0
 160 102 160 97 160 92 c 0
 160 77 168 73 189 73 c 0
 219 73 l 0
 262 73 309 77 326 77 c 0
 337 77 338 74 338 67 c 0
241 44 m 0
 180 44 l 0
 152 44 147 41 139 10 c 0
 116 -87 l 0
 113 -103 107 -127 107 -148 c 0
 107 -172 114 -191 138 -191 c 0
 194 -191 225 -141 234 -106 c 0
 262 17 l 0
 266 34 265 44 241 44 c 0
EndSplineSet
Validated: 33
EndChar

StartChar: less
Encoding: 60 60 23
Width: 270
Flags: HW
LayerCount: 2
Fore
SplineSet
55 14 m 0
 31 14 17 -1 0 -18 c 0
 -6 -24 -10 -26 -14 -26 c 0
 -20 -26 -23 -22 -23 -18 c 0
 -23 -11 -13 5 0 18 c 0
 24 42 50 71 86 71 c 0
 143 71 166 -14 215 -14 c 0
 239 -14 253 1 270 18 c 0
 276 24 280 26 284 26 c 0
 290 26 293 22 293 18 c 0
 293 11 283 -5 270 -18 c 0
 246 -42 220 -71 184 -71 c 0
 127 -71 104 14 55 14 c 0
EndSplineSet
Validated: 1
EndChar

StartChar: greater
Encoding: 62 62 24
Width: 330
Flags: HW
LayerCount: 2
Fore
SplineSet
65 14 m 0
 38 14 18 -2 0 -17 c 0
 -6 -22 -11 -24 -15 -24 c 0
 -21 -24 -24 -20 -24 -16 c 0
 -24 -9 -14 5 0 17 c 0
 26 39 65 71 99 71 c 0
 160 71 212 -14 265 -14 c 0
 292 -14 312 2 330 17 c 0
 336 22 341 24 345 24 c 0
 351 24 354 20 354 16 c 0
 354 9 344 -5 330 -17 c 0
 304 -39 264 -71 230 -71 c 0
 169 -71 118 14 65 14 c 0
EndSplineSet
Validated: 1
EndChar

StartChar: question
Encoding: 63 63 25
Width: 363
Flags: HW
LayerCount: 2
Fore
SplineSet
258 -71 m 0
 188 -71 125 14 70 14 c 0
 40 14 20 -1 0 -16 c 0
 -7 -21 -11 -23 -15 -23 c 0
 -22 -23 -24 -20 -24 -16 c 0
 -24 -9 -15 4 0 16 c 0
 29 38 70 71 105 71 c 0
 175 71 238 -14 293 -14 c 0
 323 -14 343 1 363 16 c 0
 370 21 374 23 378 23 c 0
 385 23 387 20 387 16 c 0
 387 9 378 -4 363 -16 c 0
 334 -38 293 -71 258 -71 c 0
EndSplineSet
Validated: 1
EndChar

StartChar: bracketleft
Encoding: 91 91 26
Width: 1174
Flags: HW
LayerCount: 2
Fore
SplineSet
126 0 m 0
 222 107 l 0
 236 123 244 131 250 131 c 0
 258 131 264 120 278 98 c 0
 327 20 l 0
 338 3 346 -5 354 -5 c 0
 364 -5 374 4 391 23 c 0
 466 106 l 0
 480 123 488 132 494 132 c 0
 501 132 507 123 520 103 c 0
 574 17 l 0
 585 1 591 -8 599 -8 c 0
 607 -8 618 2 637 23 c 0
 711 106 l 0
 726 122 733 132 739 132 c 0
 746 132 752 123 765 103 c 0
 819 17 l 0
 830 1 836 -8 844 -8 c 0
 852 -8 863 1 882 23 c 0
 956 106 l 0
 971 122 978 132 984 132 c 0
 991 132 997 123 1010 103 c 0
 1064 17 l 0
 1075 1 1081 -8 1089 -8 c 0
 1097 -8 1107 2 1126 22 c 0
 1146 44 l 0
 1151 50 1155 53 1158 53 c 0
 1164 53 1174 36 1174 28 c 0
 1174 23 1171 17 1164 9 c 0
 1068 -98 l 0
 1050 -118 1041 -130 1033 -130 c 0
 1025 -130 1018 -119 1003 -96 c 0
 955 -21 l 0
 943 -2 936 8 928 8 c 0
 920 8 911 -1 895 -18 c 0
 823 -98 l 0
 805 -118 796 -130 788 -130 c 0
 780 -130 773 -119 758 -96 c 0
 710 -21 l 0
 698 -2 691 8 683 8 c 0
 675 8 666 0 650 -18 c 0
 578 -98 l 0
 560 -118 551 -130 543 -130 c 0
 535 -130 528 -119 513 -96 c 0
 465 -21 l 0
 453 -2 446 8 438 8 c 0
 430 8 421 0 405 -18 c 0
 328 -104 l 0
 312 -122 305 -131 298 -131 c 0
 290 -131 284 -121 271 -100 c 0
 218 -18 l 0
 207 -1 201 8 193 8 c 0
 185 8 176 0 161 -17 c 0
 122 -60 l 0
 103 -81 100 -81 82 -56 c 0
 31 11 0 96 0 176 c 0
 0 256 31 340 88 414 c 0
 94 421 100 429 106 429 c 0
 112 429 118 410 118 401 c 0
 118 398 118 395 114 390 c 0
 65 321 36 250 36 177 c 0
 36 121 52 57 89 0 c 0
 101 -19 110 -17 126 0 c 0
EndSplineSet
Validated: 33
EndChar

StartChar: bracketright
Encoding: 93 93 27
Width: 895
Flags: HW
LayerCount: 2
Fore
SplineSet
184 -120 m 0
 89 -120 23 -48 4 3 c 0
 2 8 0 12 0 15 c 0
 0 24 27 26 39 26 c 0
 47 26 52 24 55 16 c 0
 75 -35 113 -82 186 -82 c 0
 253 -82 299 -43 373 40 c 0
 433 107 l 0
 447 123 455 131 461 131 c 0
 469 131 475 120 489 98 c 0
 538 20 l 0
 549 3 557 -5 565 -5 c 0
 575 -5 585 4 602 23 c 0
 677 106 l 0
 691 123 699 132 705 132 c 0
 712 132 718 123 731 103 c 0
 785 17 l 0
 796 1 802 -8 810 -8 c 0
 818 -8 828 2 847 22 c 0
 867 44 l 0
 872 50 876 53 879 53 c 0
 885 53 895 36 895 28 c 0
 895 23 892 17 885 9 c 0
 789 -98 l 0
 771 -118 762 -130 754 -130 c 0
 746 -130 739 -119 724 -96 c 0
 676 -21 l 0
 664 -2 657 8 649 8 c 0
 641 8 632 0 616 -18 c 0
 539 -104 l 0
 523 -122 516 -131 509 -131 c 0
 501 -131 495 -121 482 -100 c 0
 429 -18 l 0
 418 -1 412 8 404 8 c 0
 396 8 387 0 372 -17 c 0
 334 -58 273 -120 184 -120 c 0
EndSplineSet
Validated: 1
EndChar

StartChar: underscore
Encoding: 95 95 28
Width: 1385
Flags: HW
LayerCount: 2
Fore
SplineSet
373 40 m 0
 433 107 l 0
 447 123 455 131 461 131 c 0
 469 131 475 120 489 98 c 0
 538 20 l 0
 549 3 557 -5 565 -5 c 0
 575 -5 585 4 602 23 c 0
 677 106 l 0
 691 123 699 132 705 132 c 0
 712 132 718 123 731 103 c 0
 785 17 l 0
 796 1 802 -8 810 -8 c 0
 818 -8 829 2 848 23 c 0
 922 106 l 0
 937 122 944 132 950 132 c 0
 957 132 963 123 976 103 c 0
 1030 17 l 0
 1041 1 1047 -8 1055 -8 c 0
 1063 -8 1074 1 1093 23 c 0
 1167 106 l 0
 1182 122 1189 132 1195 132 c 0
 1202 132 1208 123 1221 103 c 0
 1275 17 l 0
 1286 1 1292 -8 1300 -8 c 0
 1308 -8 1318 2 1337 22 c 0
 1357 44 l 0
 1362 50 1366 53 1369 53 c 0
 1375 53 1385 36 1385 28 c 0
 1385 23 1382 17 1375 9 c 0
 1279 -98 l 0
 1261 -118 1252 -130 1244 -130 c 0
 1236 -130 1229 -119 1214 -96 c 0
 1166 -21 l 0
 1154 -2 1147 8 1139 8 c 0
 1131 8 1122 -1 1106 -18 c 0
 1034 -98 l 0
 1016 -118 1007 -130 999 -130 c 0
 991 -130 984 -119 969 -96 c 0
 921 -21 l 0
 909 -2 902 8 894 8 c 0
 886 8 877 0 861 -18 c 0
 789 -98 l 0
 771 -118 762 -130 754 -130 c 0
 746 -130 739 -119 724 -96 c 0
 676 -21 l 0
 664 -2 657 8 649 8 c 0
 641 8 632 0 616 -18 c 0
 539 -104 l 0
 523 -122 516 -131 509 -131 c 0
 501 -131 495 -121 482 -100 c 0
 429 -18 l 0
 418 -1 412 8 404 8 c 0
 396 8 387 0 372 -17 c 0
 334 -58 273 -120 184 -120 c 0
 89 -120 23 -48 4 3 c 0
 2 8 0 12 0 15 c 0
 0 24 27 26 39 26 c 0
 47 26 52 24 55 16 c 0
 75 -35 113 -82 186 -82 c 0
 253 -82 299 -43 373 40 c 0
EndSplineSet
Validated: 1
EndChar

StartChar: braceleft
Encoding: 123 123 29
Width: 684
Flags: HW
LayerCount: 2
Fore
SplineSet
595 0 m 0
 583 19 574 17 558 0 c 0
 462 -107 l 0
 448 -123 440 -131 434 -131 c 0
 426 -131 420 -120 406 -98 c 0
 357 -20 l 0
 346 -3 338 5 330 5 c 0
 320 5 310 -4 293 -23 c 0
 218 -106 l 0
 204 -123 196 -132 190 -132 c 0
 183 -132 177 -123 164 -103 c 0
 110 -17 l 0
 99 -1 93 8 85 8 c 0
 77 8 67 -2 48 -22 c 0
 28 -44 l 0
 23 -50 19 -53 16 -53 c 0
 10 -53 0 -36 0 -28 c 0
 0 -23 3 -17 10 -9 c 0
 106 98 l 0
 124 118 133 130 141 130 c 0
 149 130 156 119 171 96 c 0
 219 21 l 0
 231 2 238 -8 246 -8 c 0
 254 -8 263 0 279 18 c 0
 356 104 l 0
 372 122 379 131 386 131 c 0
 394 131 400 121 413 100 c 0
 466 18 l 0
 477 1 483 -8 491 -8 c 0
 499 -8 508 0 523 17 c 0
 562 60 l 0
 581 81 584 81 602 56 c 0
 653 -11 684 -96 684 -176 c 0
 684 -256 653 -340 596 -414 c 0
 590 -421 584 -429 578 -429 c 0
 572 -429 566 -410 566 -401 c 0
 566 -398 566 -395 570 -390 c 0
 619 -321 648 -250 648 -177 c 0
 648 -121 632 -57 595 0 c 0
EndSplineSet
Validated: 33
EndChar

StartChar: bar
Encoding: 124 124 30
Width: 1062
Flags: HW
LayerCount: 2
Fore
SplineSet
1044 306 m 0
 1057 305 1062 304 1062 296 c 0
 1062 290 1059 281 1054 265 c 0
 1052 259 1048 253 1041 253 c 0
 1033 253 1000 257 982 257 c 0
 794 257 705 165 522 -40 c 0
 462 -107 l 0
 448 -123 440 -131 434 -131 c 0
 426 -131 420 -120 406 -98 c 0
 357 -20 l 0
 346 -3 338 5 330 5 c 0
 320 5 310 -4 293 -23 c 0
 218 -106 l 0
 204 -123 196 -132 190 -132 c 0
 183 -132 177 -123 164 -103 c 0
 110 -17 l 0
 99 -1 93 8 85 8 c 0
 77 8 67 -2 48 -22 c 0
 28 -44 l 0
 23 -50 19 -53 16 -53 c 0
 10 -53 0 -36 0 -28 c 0
 0 -23 3 -17 10 -9 c 0
 106 98 l 0
 124 118 133 130 141 130 c 0
 149 130 156 119 171 96 c 0
 219 21 l 0
 231 2 238 -8 246 -8 c 0
 254 -8 263 0 279 18 c 0
 356 104 l 0
 372 122 379 131 386 131 c 0
 394 131 400 121 413 100 c 0
 466 18 l 0
 477 1 483 -8 491 -8 c 0
 499 -8 508 0 523 17 c 0
 662 172 811 330 1044 306 c 0
EndSplineSet
Validated: 33
EndChar

StartChar: braceright
Encoding: 125 125 31
Width: 933
Flags: HW
LayerCount: 2
Fore
SplineSet
915 203 m 0
 928 202 933 201 933 193 c 0
 933 187 930 178 925 162 c 0
 923 156 919 150 912 150 c 0
 904 150 871 154 853 154 c 0
 740 154 673 129 522 -40 c 0
 462 -107 l 0
 448 -123 440 -131 434 -131 c 0
 426 -131 420 -120 406 -98 c 0
 357 -20 l 0
 346 -3 338 5 330 5 c 0
 320 5 310 -4 293 -23 c 0
 218 -106 l 0
 204 -123 196 -132 190 -132 c 0
 183 -132 177 -123 164 -103 c 0
 110 -17 l 0
 99 -1 93 8 85 8 c 0
 77 8 67 -2 48 -22 c 0
 28 -44 l 0
 23 -50 19 -53 16 -53 c 0
 10 -53 0 -36 0 -28 c 0
 0 -23 3 -17 10 -9 c 0
 106 98 l 0
 124 118 133 130 141 130 c 0
 149 130 156 119 171 96 c 0
 219 21 l 0
 231 2 238 -8 246 -8 c 0
 254 -8 263 0 279 18 c 0
 356 104 l 0
 372 122 379 131 386 131 c 0
 394 131 400 121 413 100 c 0
 466 18 l 0
 477 1 483 -8 491 -8 c 0
 499 -8 507 1 523 17 c 0
 650 151 738 221 915 203 c 0
EndSplineSet
Validated: 33
EndChar

StartChar: degree
Encoding: 176 176 32
Width: 349
Flags: HW
LayerCount: 2
Fore
SplineSet
0 123 m 0
 0 133 8 143 15 143 c 0
 19 143 25 142 33 138 c 0
 313 25 l 0
 337 15 349 8 349 0 c 0
 349 -8 336 -16 312 -25 c 0
 34 -138 l 0
 26 -141 20 -143 15 -143 c 0
 7 -143 0 -132 0 -122 c 0
 0 -116 5 -113 17 -108 c 0
 222 -25 l 0
 245 -16 255 -8 255 0 c 0
 255 9 242 17 220 26 c 0
 19 107 l 0
 6 113 0 116 0 123 c 0
EndSplineSet
Validated: 1
EndChar

StartChar: plusminus
Encoding: 177 177 33
Width: 349
Flags: HW
LayerCount: 2
Fore
SplineSet
0 328 m 0
 0 338 8 348 15 348 c 0
 19 348 25 347 33 343 c 0
 313 230 l 0
 337 220 349 213 349 205 c 0
 349 197 336 189 312 180 c 0
 34 67 l 0
 26 64 20 62 15 62 c 0
 7 62 0 73 0 83 c 0
 0 89 5 92 17 97 c 0
 222 180 l 0
 245 189 255 197 255 205 c 0
 255 214 242 222 220 231 c 0
 19 312 l 0
 6 318 0 321 0 328 c 0
143 0 m 0
 143 23 162 42 185 42 c 0
 208 42 226 23 226 0 c 0
 226 -23 208 -42 185 -42 c 0
 162 -42 143 -23 143 0 c 0
EndSplineSet
Validated: 1
EndChar

StartChar: multiply
Encoding: 215 215 34
Width: 804
Flags: HW
LayerCount: 2
Fore
SplineSet
453 -19 m 0
 453 -47 431 -69 403 -69 c 0
 375 -69 353 -47 353 -19 c 0
 353 9 375 31 403 31 c 0
 431 31 453 9 453 -19 c 0
791 20 m 0
 798 20 804 14 804 7 c 0
 804 -2 798 -7 787 -17 c 0
 457 -330 l 0
 431 -354 417 -366 403 -366 c 0
 389 -366 375 -354 349 -330 c 0
 16 -15 l 0
 6 -5 0 -1 0 7 c 0
 0 15 6 20 13 20 c 0
 19 20 26 18 35 11 c 0
 346 -210 l 0
 379 -234 386 -239 402 -239 c 0
 416 -239 422 -237 454 -214 c 0
 769 11 l 0
 778 18 785 20 791 20 c 0
EndSplineSet
Validated: 1
EndChar

StartChar: divide
Encoding: 247 247 35
Width: 850
Flags: HW
LayerCount: 2
Fore
SplineSet
774 19 m 0
 786 19 799 27 799 41 c 0
 799 52 789 62 772 68 c 0
 761 72 749 82 749 94 c 0
 749 106 755 120 780 120 c 0
 804 120 828 93 828 59 c 0
 828 9 791 -15 761 -15 c 0
 718 -15 696 35 656 35 c 0
 636 35 609 9 591 -1 c 0
 586 -4 582 -5 579 -5 c 0
 573 -5 570 -1 570 5 c 0
 570 10 573 17 579 22 c 0
 613 55 l 0
 652 89 711.5 148.5 753.5 191.5 c 0
 756.5 194.5 758.5 197.5 758.5 200.5 c 0
 758.5 211.5 703.5 211.5 690.5 211.5 c 0
 680.5 211.5 672.076 208.151 663.5 194.5 c 0
 647.479 169 l 0
 640.796 158.403 633.49 156.5 629.49 156.5 c 0
 625.49 156.5 622.49 159.5 622.49 165.5 c 0
 622.49 168.5 623.49 172.5 624.49 176.5 c 0
 646 235 l 0
 652.548 252.809 654 258 669 258 c 0
 687 258 711 251 761 251 c 0
 795 251 830 258 839 258 c 0
 848 258 850 255 850 251 c 0
 850 242 849 241 827 219 c 0
 732 128 l 0
 697 92 l 0
 690 85 686 79 686 74 c 0
 686 67 691 63 699 58 c 0
 713 50 730 36 747 27 c 0
 755 22 765 19 774 19 c 0
609 426 m 0
 653.333 426 691 398 691 357 c 0
 691 328 670 305 641 305 c 0
 621 305 604 319 604 339 c 0
 604 374 631 377 631 389 c 0
 631 396 622 399 613 399 c 0
 574 399 548 359 518 274 c 0
 510 248 516 238 537 238 c 0
 587 238 l 0
 595 238 601 236 597 223 c 0
 593 211 588 207 577 207 c 0
 531 207 l 0
 509 207 497 204 490 177 c 0
 480 141 l 0
 428 -49 334.5 -189 234 -189 c 0
 188 -189 153 -158 153 -116 c 0
 153 -87 174 -62 203 -62 c 0
 224 -62 244 -75 244 -98 c 0
 244 -137 216 -137 216 -151 c 0
 216 -157 220 -161 231 -161 c 0
 303 -161 345 -16 391 136 c 0
 405 180 l 0
 409 196 410 207 381 207 c 0
 333 207 l 0
 325 207 319 211 323 225 c 0
 326 237 333 238 345 238 c 0
 393 238 l 0
 418 238 426 245 436 268 c 0
 476 364 529 426 609 426 c 0
229 254 m 0
 262 254 286 232 286 198 c 0
 286 168 267 152 243 152 c 0
 223 152 208 164 208 183 c 0
 208 203 222 210 222 219 c 0
 222 222 219 224 216 224 c 0
 164 224 118 124 101 80 c 0
 78 19 l 0
 71 3 72 -1 65 -1 c 0
 58 -1 57 3 49 3 c 0
 39 3 38 -1 30 -1 c 0
 27 -1 25 1 25 4 c 0
 25 6 26 10 28 14 c 0
 91 184 l 0
 94 192 95 198 95 203 c 0
 95 213 90 217 83 217 c 0
 62 217 45 192 22 147 c 0
 18 140 13 136 8 136 c 0
 3 136 0 140 0 148 c 0
 0 151 0 155 2 159 c 0
 21 212 57 254 97 254 c 0
 118 254 129 245 136 233 c 0
 140 227 144 223 149 223 c 0
 153 223 157 225 163 230 c 0
 182 243 205 254 229 254 c 0
EndSplineSet
Validated: 33
EndChar

StartChar: quotedbl
Encoding: 34 34 38
Width: 336
Flags: HW
LayerCount: 2
Fore
SplineSet
21 -136 m 0
 8 -136 0 -134 0 -125 c 0
 0 -122 1 -118 2 -114 c 0
 26 -36 92 19 168 19 c 0
 248 19 311 -40 334 -115 c 0
 335 -119 336 -123 336 -126 c 0
 336 -135 324 -137 312 -137 c 0
 304 -137 301 -134 298 -125 c 0
 279 -62 228 -18 168 -18 c 0
 111 -18 58 -60 38 -124 c 0
 35 -134 31 -136 21 -136 c 0
EndSplineSet
Validated: 1
EndChar

StartChar: dollar
Encoding: 36 36 39
Width: 250
Flags: HW
LayerCount: 2
Fore
SplineSet
125 -14 m 0
 200 -14 250 35 250 147 c 0
 250 265 l 0
 250 278 247 280 232 280 c 0
 217 280 215 278 215 264 c 0
 215 153 l 0
 215 58 179 21 125 21 c 0
 71 21 35 58 35 153 c 0
 35 265 l 0
 35 276 34 280 17 280 c 0
 3 280 0 278 0 268 c 0
 0 147 l 0
 0 35 51 -14 125 -14 c 0
EndSplineSet
Validated: 9
EndChar

StartChar: quotesingle
Encoding: 39 39 40
Width: 230
Flags: HW
LayerCount: 2
Fore
SplineSet
115 115 m 0
 129 115 131 112 131 100 c 0
 131 39 l 0
 131 26 139 16 153 16 c 0
 217 16 l 0
 229 16 230 12 230 0 c 0
 230 -12 228 -16 215 -16 c 0
 153 -16 l 0
 138 -16 131 -22 131 -36 c 0
 131 -102 l 0
 131 -114 126 -115 115 -115 c 0
 103 -115 99 -113 99 -100 c 0
 99 -38 l 0
 99 -23 94 -16 72 -16 c 0
 12 -16 l 0
 1 -16 0 -12 0 0 c 0
 0 14 3 16 15 16 c 0
 75 16 l 0
 95 16 99 23 99 39 c 0
 99 103 l 0
 99 114 103 115 115 115 c 0
EndSplineSet
Validated: 1
EndChar

StartChar: asterisk
Encoding: 42 42 41
Width: 182
Flags: HW
LayerCount: 2
Fore
SplineSet
77 263 m 0
 151 263 182 185 182 99 c 0
 182 -43 114 -125.5 77 -158 c 0
 54.6992 -177.588 38.001 -159.749 57 -136 c 0
 103 -78.5 140 -20 140 71 c 0
 140 98 133 112 117 112 c 0
 104 112 93 107 77 107 c 0
 33 107 0 134 0 187 c 0
 0 229 35 263 77 263 c 0
EndSplineSet
Validated: 1
EndChar

StartChar: hyphen
Encoding: 45 45 42
Width: 284
Flags: HW
LayerCount: 2
Fore
SplineSet
148 88 m 0
 148 101 139 112 127 112 c 0
 114 112 103 107 87 107 c 0
 43 107 10 134 10 187 c 0
 10 229 45 263 87 263 c 0
 156 263 188 195 192 116 c 0
 193 97 196 91 206 91 c 0
 209 91 212 91 216 92 c 0
 263 105 l 0
 266 106 269 106 271 106 c 0
 277 106 284 93 284 83 c 0
 284 77 280 76 270 73 c 0
 213 57 l 0
 195 53 185 45 185 17 c 0
 185 9 188 6 195 6 c 0
 198 6 201 6 206 7 c 0
 263 23 l 0
 266 24 269 24 271 24 c 0
 277 24 284 11 284 1 c 0
 284 -5 280 -6 270 -9 c 0
 194 -30 l 0
 172 -36 168 -41 158 -62 c 0
 135 -109 107 -141 87 -158 c 0
 80 -164 74 -166 69 -166 c 0
 63 -166 59 -162 59 -155 c 0
 59 -150 61 -143 67 -136 c 0
 81 -118 94 -100 106 -82 c 0
 111 -73 114 -67 114 -63 c 0
 114 -58 111 -56 104 -56 c 0
 100 -56 94 -57 87 -59 c 0
 23 -76 l 0
 19 -77 16 -78 14 -78 c 0
 6 -78 0 -67 0 -55 c 0
 0 -49 4 -47 13 -44 c 0
 112 -17 l 0
 135 -11 140 -9 145 16 c 0
 146 19 146 22 146 24 c 0
 146 32 142 35 135 35 c 0
 131 35 127 34 121 33 c 0
 23 6 l 0
 19 5 16 4 14 4 c 0
 6 4 0 15 0 27 c 0
 0 33 4 35 13 38 c 0
 126 68 l 0
 141 72 148 78 148 88 c 0
EndSplineSet
Validated: 1
EndChar

StartChar: at
Encoding: 64 64 43
Width: 399
Flags: HW
LayerCount: 2
Fore
SplineSet
399 -16 m 0
 368 -39 321 -71 284 -71 c 0
 202 -71 139 14 77 14 c 0
 46 14 21 0 0 -16 c 0
 -6 -20 -12 -22 -16 -22 c 0
 -24 -22 -25 -18 -25 -14 c 0
 -25 -7 -16 4 0 16 c 0
 31 39 78 71 115 71 c 0
 197 71 260 -14 322 -14 c 0
 353 -14 378 0 399 16 c 0
 405 20 411 22 415 22 c 0
 423 22 424 18 424 14 c 0
 424 7 415 -4 399 -16 c 0
EndSplineSet
Validated: 1
EndChar

StartChar: A
Encoding: 65 65 44
Width: 601
Flags: HW
LayerCount: 2
Fore
SplineSet
203 36 m 0
 168.229 66.2646 149 82 116 82 c 0
 78 82 32 63 32 -3 c 0
 32 -39 53 -72 82 -87 c 0
 93 -93 99 -88 102 -73 c 0
 106 -50 126 -32 151 -32 c 0
 177 -32 201 -51 201 -80 c 0
 201 -114 172 -135 138 -135 c 0
 65 -135 0 -77 0 -3 c 0
 0 88 63.5 135 141 135 c 0
 202 135 238.128 103.147 290 58 c 0
 398 -36 l 0
 432.772 -66.2646 452 -82 485 -82 c 0
 523 -82 569 -63 569 3 c 0
 569 39 548 72 519 87 c 0
 508 93 502 88 499 73 c 0
 495 50 475 32 450 32 c 0
 424 32 400 51 400 80 c 0
 400 114 429 135 463 135 c 0
 536 135 601 77 601 3 c 0
 601 -88 537.5 -135 460 -135 c 0
 399 -135 362.872 -103.147 311 -58 c 0
 203 36 l 0
EndSplineSet
Validated: 1
EndChar

StartChar: B
Encoding: 66 66 45
Width: 601
Flags: HW
LayerCount: 2
Fore
SplineSet
398 36 m 0
 432.772 66.2646 452 82 485 82 c 0
 523 82 569 63 569 -3 c 0
 569 -39 548 -72 519 -87 c 0
 508 -93 502 -88 499 -73 c 0
 495 -50 475 -32 450 -32 c 0
 424 -32 400 -51 400 -80 c 0
 400 -114 429 -135 463 -135 c 0
 536 -135 601 -77 601 -3 c 0
 601 88 537.5 135 460 135 c 0
 399 135 362.872 103.147 311 58 c 0
 203 -36 l 0
 168.229 -66.2646 149 -82 116 -82 c 0
 78 -82 32 -63 32 3 c 0
 32 39 53 72 82 87 c 0
 93 93 99 88 102 73 c 0
 106 50 126 32 151 32 c 0
 177 32 201 51 201 80 c 0
 201 114 172 135 138 135 c 0
 65 135 0 77 0 3 c 0
 0 -88 63.5 -135 141 -135 c 0
 202 -135 238.128 -103.147 290 -58 c 0
 398 36 l 0
EndSplineSet
Validated: 9
EndChar

StartChar: C
Encoding: 67 67 46
Width: 601
Flags: HW
LayerCount: 2
Fore
SplineSet
282 200 m 0
 282 210 283 210 291 210 c 0
 308 210 l 0
 317 210 318 210 318 200 c 0
 318 60 l 0
 318 34 323 30 337 17 c 0
 398 -36 l 0
 433 -66 452 -82 485 -82 c 0
 523 -82 569 -63 569 3 c 0
 569 39 548 72 519 87 c 0
 508 93 502 88 499 73 c 0
 495 50 475 32 450 32 c 0
 424 32 400 51 400 80 c 0
 400 114 429 135 463 135 c 0
 536 135 601 77 601 3 c 0
 601 -88 538 -135 460 -135 c 0
 414 -135 383 -117 348 -89 c 0
 323 -69 318 -79 318 -110 c 0
 318 -200 l 0
 318 -210 317 -210 309 -210 c 0
 292 -210 l 0
 283 -210 282 -210 282 -200 c 0
 282 -57 l 0
 282 -33 278 -29 265 -18 c 0
 203 36 l 0
 168 66 149 82 116 82 c 0
 78 82 32 63 32 -3 c 0
 32 -39 53 -72 82 -87 c 0
 93 -93 99 -88 102 -73 c 0
 106 -50 126 -32 151 -32 c 0
 177 -32 201 -51 201 -80 c 0
 201 -114 172 -135 138 -135 c 0
 65 -135 0 -77 0 -3 c 0
 0 88 64 135 141 135 c 0
 185 135 216 118 250 92 c 0
 273 74 282 83 282 107 c 0
 282 200 l 0
EndSplineSet
Validated: 33
EndChar

StartChar: D
Encoding: 68 68 47
Width: 601
Flags: HW
LayerCount: 2
Fore
SplineSet
319 200 m 0
 319 210 318 210 310 210 c 0
 293 210 l 0
 284 210 283 210 283 200 c 0
 283 60 l 0
 283 34 278 30 264 17 c 0
 203 -36 l 0
 168 -66 149 -82 116 -82 c 0
 78 -82 32 -63 32 3 c 0
 32 39 53 72 82 87 c 0
 93 93 99 88 102 73 c 0
 106 50 126 32 151 32 c 0
 177 32 201 51 201 80 c 0
 201 114 172 135 138 135 c 0
 65 135 0 77 0 3 c 0
 0 -88 63 -135 141 -135 c 0
 187 -135 218 -117 253 -89 c 0
 278 -69 283 -79 283 -110 c 0
 283 -200 l 0
 283 -210 284 -210 292 -210 c 0
 309 -210 l 0
 318 -210 319 -210 319 -200 c 0
 319 -57 l 0
 319 -33 323 -29 336 -18 c 0
 398 36 l 0
 433 66 452 82 485 82 c 0
 523 82 569 63 569 -3 c 0
 569 -39 548 -72 519 -87 c 0
 508 -93 502 -88 499 -73 c 0
 495 -50 475 -32 450 -32 c 0
 424 -32 400 -51 400 -80 c 0
 400 -114 429 -135 463 -135 c 0
 536 -135 601 -77 601 -3 c 0
 601 88 537 135 460 135 c 0
 416 135 385 118 351 92 c 0
 328 74 319 83 319 107 c 0
 319 200 l 0
EndSplineSet
Validated: 41
EndChar

StartChar: E
Encoding: 69 69 48
Width: 509
Flags: HW
LayerCount: 2
Fore
SplineSet
253 163 m 0
 253 219 327 252 374 252 c 0
 407 252 440 240 465 215 c 0
 495 184 509 151 509 118 c 0
 509 82 492 46 463 17 c 0
 420 -26 372 -29 303 -34 c 0
 160 -43 l 0
 114 -47 89 -49 66 -72 c 0
 51 -88 38 -109 38 -132 c 0
 38 -151 46 -171 67 -192 c 0
 85 -211 111 -220 135 -220 c 0
 147 -220 171 -218 171 -206 c 0
 171 -202 169 -198 166 -192 c 0
 160 -184 157 -174 157 -164 c 0
 157 -137 181 -113 208 -113 c 0
 234 -113 256 -138 256 -163 c 0
 256 -219 182 -252 135 -252 c 0
 102 -252 69 -240 44 -215 c 0
 14 -184 0 -151 0 -118 c 0
 0 -82 17 -46 46 -17 c 0
 89 26 137 29 206 34 c 0
 349 43 l 0
 395 47 420 49 443 72 c 0
 458 88 471 109 471 132 c 0
 471 151 463 171 442 192 c 0
 424 211 398 220 374 220 c 0
 362 220 338 218 338 206 c 0
 338 202 340 198 343 192 c 0
 349 184 352 174 352 164 c 0
 352 137 328 113 301 113 c 0
 275 113 253 138 253 163 c 0
EndSplineSet
Validated: 1
EndChar

StartChar: F
Encoding: 70 70 49
Width: 503
Flags: HW
LayerCount: 2
Fore
SplineSet
415 -2 m 0
 471 -2 503 72 503 119 c 0
 503 152 491 185 466 210 c 0
 436 241 402 254 370 254 c 0
 333 254 298 237 269 208 c 0
 226 165 223 117 218 48 c 0
 208 -94 l 0
 205 -140 202 -165 179 -188 c 0
 164 -203 143 -216 119 -216 c 0
 100 -216 80 -208 60 -188 c 0
 41 -169 31 -144 31 -120 c 0
 31 -108 34 -83 46 -83 c 0
 49 -83 54 -85 60 -89 c 0
 68 -95 78 -98 88 -98 c 0
 115 -98 139 -74 139 -47 c 0
 139 -20 114 2 88 2 c 0
 32 2 0 -72 0 -119 c 0
 0 -152 12 -185 37 -210 c 0
 67 -241 101 -254 133 -254 c 0
 170 -254 205 -237 234 -208 c 0
 277 -165 280 -117 285 -48 c 0
 295 94 l 0
 298 140 301 165 324 188 c 0
 339 203 360 216 384 216 c 0
 403 216 423 208 443 188 c 0
 462 169 472 144 472 120 c 0
 472 108 469 83 457 83 c 0
 454 83 449 85 443 89 c 0
 435 95 425 98 415 98 c 0
 388 98 364 74 364 47 c 0
 364 20 389 -2 415 -2 c 0
EndSplineSet
Validated: 9
EndChar

StartChar: G
Encoding: 71 71 50
Width: 509
Flags: HW
LayerCount: 2
Fore
SplineSet
256 163 m 0
 256 219 182 252 135 252 c 0
 102 252 69 240 44 215 c 0
 14 184 0 151 0 118 c 0
 0 82 17 46 46 17 c 0
 89 -26 137 -29 206 -34 c 0
 349 -43 l 0
 395 -47 420 -49 443 -72 c 0
 458 -88 471 -109 471 -132 c 0
 471 -151 463 -171 442 -192 c 0
 424 -211 398 -220 374 -220 c 0
 362 -220 338 -218 338 -206 c 0
 338 -202 340 -198 343 -192 c 0
 349 -184 352 -174 352 -164 c 0
 352 -137 328 -113 301 -113 c 0
 275 -113 253 -138 253 -163 c 0
 253 -219 327 -252 374 -252 c 0
 407 -252 440 -240 465 -215 c 0
 495 -184 509 -151 509 -118 c 0
 509 -82 492 -46 463 -17 c 0
 420 26 372 29 303 34 c 0
 160 43 l 0
 114 47 89 49 66 72 c 0
 51 88 38 109 38 132 c 0
 38 151 46 171 67 192 c 0
 85 211 111 220 135 220 c 0
 147 220 171 218 171 206 c 0
 171 202 169 198 166 192 c 0
 160 184 157 174 157 164 c 0
 157 137 181 113 208 113 c 0
 234 113 256 138 256 163 c 0
EndSplineSet
Validated: 9
EndChar

StartChar: H
Encoding: 72 72 51
Width: 503
Flags: HW
LayerCount: 2
Fore
SplineSet
88 -2 m 0
 32 -2 0 72 0 119 c 0
 0 152 12 185 37 210 c 0
 67 241 101 254 133 254 c 0
 170 254 205 237 234 208 c 0
 277 165 280 117 285 48 c 0
 295 -94 l 0
 298 -140 301 -165 324 -188 c 0
 339 -203 360 -216 384 -216 c 0
 403 -216 423 -208 443 -188 c 0
 462 -169 472 -144 472 -120 c 0
 472 -108 469 -83 457 -83 c 0
 454 -83 449 -85 443 -89 c 0
 435 -95 425 -98 415 -98 c 0
 388 -98 364 -74 364 -47 c 0
 364 -20 389 2 415 2 c 0
 471 2 503 -72 503 -119 c 0
 503 -152 491 -185 466 -210 c 0
 436 -241 402 -254 370 -254 c 0
 333 -254 298 -237 269 -208 c 0
 226 -165 223 -117 218 -48 c 0
 208 94 l 0
 205 140 202 165 179 188 c 0
 164 203 143 216 119 216 c 0
 100 216 80 208 60 188 c 0
 41 169 31 144 31 120 c 0
 31 108 34 83 46 83 c 0
 49 83 54 85 60 89 c 0
 68 95 78 98 88 98 c 0
 115 98 139 74 139 47 c 0
 139 20 114 -2 88 -2 c 0
EndSplineSet
Validated: 1
EndChar

StartChar: I
Encoding: 73 73 52
Width: 577
Flags: W
HStem: -131 22G<187 194.5 432 440> -131 22G<187 194.5 432 440> 111 20G<140 147 384 390.5> 111 20G<140 147 384 390.5>
LayerCount: 2
Fore
SplineSet
17 -52 m 0xa0
 11 -52 0 -35 0 -28 c 0
 0 -23 3 -18 10 -11 c 0
 115 107 l 0
 129 123 137 131 143 131 c 0
 151 131 157 120 171 98 c 0
 220 20 l 0
 231 3 239 -5 247 -5 c 0
 257 -5 267 4 284 23 c 0
 359 106 l 0
 373 123 381 132 387 132 c 0
 394 132 400 123 413 103 c 0
 467 17 l 0
 478 1 484 -8 492 -8 c 0
 500 -8 510 2 529 22 c 0
 549 44 l 0
 554 50 558 53 561 53 c 0
 567 53 577 36 577 28 c 0
 577 23 574 17 567 9 c 0
 471 -98 l 0
 453 -118 444 -130 436 -130 c 0
 428 -130 421 -119 406 -96 c 0
 358 -21 l 0
 346 -2 339 8 331 8 c 0
 323 8 314 0 298 -18 c 0
 221 -104 l 0
 205 -122 198 -131 191 -131 c 0
 183 -131 177 -121 164 -100 c 0
 111 -18 l 0
 100 -1 94 8 86 8 c 0
 78 8 69 0 54 -17 c 0
 32 -42 l 0
 25 -49 21 -52 17 -52 c 0xa0
EndSplineSet
Validated: 1
EndChar

StartChar: J
Encoding: 74 74 53
Width: 822
Flags: HW
LayerCount: 2
Fore
SplineSet
530 23 m 0
 604 106 l 0
 618.655 122.438 626 132 632 132 c 0
 639 132 645 123 658 103 c 0
 712 17 l 0
 723 1 729 -8 737 -8 c 0
 745 -8 755 2 774 22 c 0
 794 44 l 0
 799 50 803 53 806 53 c 0
 812 53 822 36 822 28 c 0
 822 23 819 17 812 9 c 0
 716 -98 l 0
 698 -118 689 -130 681 -130 c 0
 673 -130 666 -119 651 -96 c 0
 603 -21 l 0
 591 -2 584 8 576 8 c 0
 568 8 559.105 -0.0947266 542.992 -18 c 0
 471 -98 l 0
 453 -118.002 444 -130 436 -130 c 0
 428 -130 421 -119 406 -96 c 0
 358 -21 l 0
 346 -2 339 8 331 8 c 0
 323 8 314 0 298 -18 c 0
 221 -104 l 0
 205 -122 198 -131 191 -131 c 0
 183 -131 177 -121 164 -100 c 0
 111 -18 l 0
 100 -1 94 8 86 8 c 0
 78 8 69 0 54 -17 c 0
 32 -42 l 0
 25 -49 21 -52 17 -52 c 0
 11 -52 0 -35 0 -28 c 0
 0 -23 3 -18 10 -11 c 0
 115 107 l 0
 129 123 137 131 143 131 c 0
 151 131 157 120 171 98 c 0
 220 20 l 0
 231 3 239 -5 247 -5 c 0
 257 -5 267 4 284 23 c 0
 359 106 l 0
 373 123 381 132 387 132 c 0
 394 132 400 123 413 103 c 0
 467 17 l 0
 478 1 484 -8 492 -8 c 0
 500 -8 511.283 2.00586 530 23 c 0
EndSplineSet
Validated: 1
EndChar

StartChar: K
Encoding: 75 75 54
Width: 1067
Flags: HW
LayerCount: 2
Fore
SplineSet
775 23 m 0
 849 106 l 0
 863.655 122.438 871 132 877 132 c 0
 884 132 890 123 903 103 c 0
 957 17 l 0
 968 1 974 -8 982 -8 c 0
 990 -8 1000 2 1019 22 c 0
 1039 44 l 0
 1044 50 1048 53 1051 53 c 0
 1057 53 1067 36 1067 28 c 0
 1067 23 1064 17 1057 9 c 0
 961 -98 l 0
 943 -118 934 -130 926 -130 c 0
 918 -130 911 -119 896 -96 c 0
 848 -21 l 0
 836 -2 829 8 821 8 c 0
 813 8 803.658 -0.591797 787.994 -17.998 c 0
 716 -98 l 0
 698 -118.002 689 -130 681 -130 c 0
 673 -130 666 -119 651 -96 c 0
 603 -21 l 0
 591 -2 584 8 576 8 c 0
 568 8 559.105 -0.0947266 542.992 -18 c 0
 471 -98 l 0
 453 -118.002 444 -130 436 -130 c 0
 428 -130 421 -119 406 -96 c 0
 358 -21 l 0
 346 -2 339 8 331 8 c 0
 323 8 314 0 298 -18 c 0
 221 -104 l 0
 205 -122 198 -131 191 -131 c 0
 183 -131 177 -121 164 -100 c 0
 111 -18 l 0
 100 -1 94 8 86 8 c 0
 78 8 69 0 54 -17 c 0
 32 -42 l 0
 25 -49 21 -52 17 -52 c 0
 11 -52 0 -35 0 -28 c 0
 0 -23 3 -18 10 -11 c 0
 115 107 l 0
 129 123 137 131 143 131 c 0
 151 131 157 120 171 98 c 0
 220 20 l 0
 231 3 239 -5 247 -5 c 0
 257 -5 267 4 284 23 c 0
 359 106 l 0
 373 123 381 132 387 132 c 0
 394 132 400 123 413 103 c 0
 467 17 l 0
 478 1 484 -8 492 -8 c 0
 500 -8 511.283 2.00586 530 23 c 0
 604 106 l 0
 618.655 122.438 626 132 632 132 c 0
 639 132 645 123 658 103 c 0
 712 17 l 0
 723 1 729 -8 737 -8 c 0
 745 -8 755.604 1.24512 775 23 c 0
EndSplineSet
Validated: 1
EndChar

StartChar: L
Encoding: 76 76 55
Width: 1312
Flags: HW
LayerCount: 2
Fore
SplineSet
1033 -17.9932 m 0
 961 -98 l 0
 943.001 -118.001 934 -130 926 -130 c 0
 918 -130 911 -119 896 -96 c 0
 848 -21 l 0
 836 -2 829 8 821 8 c 0
 813 8 803.658 -0.591797 787.994 -17.998 c 0
 716 -98 l 0
 698 -118.002 689 -130 681 -130 c 0
 673 -130 666 -119 651 -96 c 0
 603 -21 l 0
 591 -2 584 8 576 8 c 0
 568 8 559.105 -0.0947266 542.992 -18 c 0
 471 -98 l 0
 453 -118.002 444 -130 436 -130 c 0
 428 -130 421 -119 406 -96 c 0
 358 -21 l 0
 346 -2 339 8 331 8 c 0
 323 8 314 0 298 -18 c 0
 221 -104 l 0
 205 -122 198 -131 191 -131 c 0
 183 -131 177 -121 164 -100 c 0
 111 -18 l 0
 100 -1 94 8 86 8 c 0
 78 8 69 0 54 -17 c 0
 32 -42 l 0
 25 -49 21 -52 17 -52 c 0
 11 -52 0 -35 0 -28 c 0
 0 -23 3 -18 10 -11 c 0
 115 107 l 0
 129 123 137 131 143 131 c 0
 151 131 157 120 171 98 c 0
 220 20 l 0
 231 3 239 -5 247 -5 c 0
 257 -5 267 4 284 23 c 0
 359 106 l 0
 373 123 381 132 387 132 c 0
 394 132 400 123 413 103 c 0
 467 17 l 0
 478 1 484 -8 492 -8 c 0
 500 -8 511.283 2.00586 530 23 c 0
 604 106 l 0
 618.655 122.438 626 132 632 132 c 0
 639 132 645 123 658 103 c 0
 712 17 l 0
 723 1 729 -8 737 -8 c 0
 745 -8 755.604 1.24512 775 23 c 0
 849 106 l 0
 863.655 122.438 871 132 877 132 c 0
 884 132 890 123 903 103 c 0
 957 17 l 0
 968 1 974 -8 982 -8 c 0
 990 -8 1000.62 1.41211 1019 22 c 0
 1094 106 l 0
 1108.67 122.428 1116 132 1122 132 c 0
 1129 132 1135 123 1148 103 c 0
 1202 17 l 0
 1213 1 1219 -8 1227 -8 c 0
 1235 -8 1245 2 1264 22 c 0
 1284 44 l 0
 1289 50 1293 53 1296 53 c 0
 1302 53 1312 36 1312 28 c 0
 1312 23 1309 17 1302 9 c 0
 1206 -98 l 0
 1188 -118 1179 -130 1171 -130 c 0
 1163 -130 1156 -119 1141 -96 c 0
 1093 -21 l 0
 1081 -2 1074 8 1066 8 c 0
 1058 8 1048.36 -0.922852 1033 -17.9932 c 0
EndSplineSet
Validated: 1
EndChar

StartChar: M
Encoding: 77 77 56
Width: 577
Flags: HW
LayerCount: 2
Fore
SplineSet
17 -52 m 0
 11 -52 0 -35 0 -28 c 0
 0 -23 3 -18 10 -11 c 0
 115 107 l 0
 129 123 137 131 143 131 c 0
 151 131 157 120 171 98 c 0
 220 20 l 0
 231 3 239 -5 247 -5 c 0
 251 -5 255 -4 259 -1 c 0
 270 6 272 10 272 29 c 0
 272 200 l 0
 272 210 273 210 281 210 c 0
 298 210 l 0
 307 210 308 210 308 200 c 0
 308 85 l 0
 308 67 317 59 333 77 c 0
 359 106 l 0
 373 123 381 132 387 132 c 0
 394 132 400 123 413 103 c 0
 467 17 l 0
 478 1 484 -8 492 -8 c 0
 500 -8 510 2 529 22 c 0
 549 44 l 0
 554 50 558 53 561 53 c 0
 567 53 577 36 577 28 c 0
 577 23 574 17 567 9 c 0
 471 -98 l 0
 453 -118 444 -130 436 -130 c 0
 428 -130 421 -119 406 -96 c 0
 358 -21 l 0
 346 -2 339 8 331 8 c 0
 328 8 325 7 322 5 c 0
 312 -2 308 -6 308 -25 c 0
 308 -200 l 0
 308 -210 307 -210 299 -210 c 0
 282 -210 l 0
 273 -210 272 -210 272 -200 c 0
 272 -90 l 0
 272 -60 263 -57 244 -78 c 0
 221 -104 l 0
 205 -122 198 -131 191 -131 c 0
 183 -131 177 -121 164 -100 c 0
 111 -18 l 0
 100 -1 94 8 86 8 c 0
 78 8 69 0 54 -17 c 0
 32 -42 l 0
 25 -49 21 -52 17 -52 c 0
EndSplineSet
Validated: 1
EndChar

StartChar: N
Encoding: 78 78 57
Width: 822
Flags: HW
LayerCount: 2
Fore
SplineSet
604 106 m 0
 619 122 626 132 632 132 c 0
 639 132 645 123 658 103 c 0
 712 17 l 0
 723 1 729 -8 737 -8 c 0
 745 -8 755 2 774 22 c 0
 794 44 l 0
 799 50 803 53 806 53 c 0
 812 53 822 36 822 28 c 0
 822 23 819 17 812 9 c 0
 716 -98 l 0
 698 -118 689 -130 681 -130 c 0
 673 -130 666 -119 651 -96 c 0
 603 -21 l 0
 591 -2 584 8 576 8 c 0
 573 8 570 7 566 4 c 0
 557 -2 553 -7 553 -25 c 0
 553 -200 l 0
 553 -210 552 -210 544 -210 c 0
 527 -210 l 0
 518 -210 517 -210 517 -200 c 0
 517 -90 l 0
 517 -60 508 -57 489 -78 c 0
 471 -98 l 0
 453 -118 444 -130 436 -130 c 0
 428 -130 421 -119 406 -96 c 0
 358 -21 l 0
 346 -2 339 8 331 8 c 0
 323 8 314 0 298 -18 c 0
 221 -104 l 0
 205 -122 198 -131 191 -131 c 0
 183 -131 177 -121 164 -100 c 0
 111 -18 l 0
 100 -1 94 8 86 8 c 0
 78 8 69 0 54 -17 c 0
 32 -42 l 0
 25 -49 21 -52 17 -52 c 0
 11 -52 0 -35 0 -28 c 0
 0 -23 3 -18 10 -11 c 0
 115 107 l 0
 129 123 137 131 143 131 c 0
 151 131 157 120 171 98 c 0
 220 20 l 0
 231 3 239 -5 247 -5 c 0
 257 -5 267 4 284 23 c 0
 359 106 l 0
 373 123 381 132 387 132 c 0
 394 132 400 123 413 103 c 0
 467 17 l 0
 478 1 484 -7 492 -7 c 0
 496 -7 500 -5 504 -2 c 0
 515 7 517 10 517 29 c 0
 517 200 l 0
 517 210 518 210 526 210 c 0
 543 210 l 0
 552 210 553 210 553 200 c 0
 553 85 l 0
 553 67 562 59 578 77 c 0
 604 106 l 0
EndSplineSet
Validated: 1
EndChar

StartChar: O
Encoding: 79 79 58
Width: 1067
Flags: W
HStem: -131 22G<187 194.5 432 440 677 684.5 922 930> -131 22G<187 194.5 432 440 677 684.5 922 930> 111 20G<140 147 384 390.5 630 637 767 792.5 874 880.5> 111 20G<140 147 384 390.5 630 637 767 792.5 874 880.5>
VStem: 762 36<-210 -71.2559 -3.73306 7.05078 73.2497 210>
LayerCount: 2
Fore
SplineSet
17 -52 m 0xa8
 11 -52 0 -35 0 -28 c 0
 0 -23 3 -18 10 -11 c 0
 115 107 l 0
 129 123 137 131 143 131 c 0
 151 131 157 120 171 98 c 0
 220 20 l 0
 231 3 239 -5 247 -5 c 0
 257 -5 267 4 284 23 c 0
 359 106 l 0
 373 123 381 132 387 132 c 0
 394 132 400 123 413 103 c 0
 467 17 l 0
 478 1 484 -8 492 -8 c 0
 500 -8 509 1 528 22 c 0
 605 107 l 0
 619 123 627 131 633 131 c 0
 641 131 647 120 661 98 c 0
 710 20 l 0
 721 3 729 -5 737 -5 c 0
 741 -5 745 -4 749 -1 c 0
 760 6 762 10 762 29 c 0
 762 200 l 0
 762 210 763 210 771 210 c 0
 788 210 l 0
 797 210 798 210 798 200 c 0
 798 85 l 0
 798 67 807 59 823 77 c 0
 849 106 l 0
 863 123 871 132 877 132 c 0
 884 132 890 123 903 103 c 0
 957 17 l 0
 968 1 974 -8 982 -8 c 0
 990 -8 1000 2 1019 22 c 0
 1039 44 l 0
 1044 50 1048 53 1051 53 c 0
 1057 53 1067 36 1067 28 c 0
 1067 23 1064 17 1057 9 c 0
 961 -98 l 0
 943 -118 934 -130 926 -130 c 0
 918 -130 911 -119 896 -96 c 0
 848 -21 l 0
 836 -2 829 8 821 8 c 0
 818 8 815 7 812 5 c 0
 802 -2 798 -6 798 -25 c 0
 798 -200 l 0
 798 -210 797 -210 789 -210 c 0
 772 -210 l 0
 763 -210 762 -210 762 -200 c 0
 762 -90 l 0
 762 -60 753 -57 734 -78 c 0
 711 -104 l 0
 695 -122 688 -131 681 -131 c 0
 673 -131 667 -121 654 -100 c 0
 601 -18 l 0
 590 -1 584 8 576 8 c 0
 568 8 558 -1 544 -17 c 0
 471 -98 l 0
 453 -118 444 -130 436 -130 c 0
 428 -130 421 -119 406 -96 c 0
 358 -21 l 0
 346 -2 339 8 331 8 c 0
 323 8 314 0 298 -18 c 0
 221 -104 l 0
 205 -122 198 -131 191 -131 c 0
 183 -131 177 -121 164 -100 c 0
 111 -18 l 0
 100 -1 94 8 86 8 c 0
 78 8 69 0 54 -17 c 0
 32 -42 l 0
 25 -49 21 -52 17 -52 c 0xa8
EndSplineSet
Validated: 1
EndChar

StartChar: P
Encoding: 80 80 59
Width: 1312
Flags: HW
LayerCount: 2
Fore
SplineSet
530 23 m 0
 604 106 l 0
 619 122 626 132 632 132 c 0
 639 132 645 123 658 103 c 0
 712 17 l 0
 723 1 729 -8 737 -8 c 0
 745 -8 754 1 773 22 c 0
 850 107 l 0
 864 123 872 131 878 131 c 0
 886 131 892 120 906 98 c 0
 955 20 l 0
 966 3 974 -5 982 -5 c 0
 986 -5 990 -4 994 -1 c 0
 1005 6 1007 10 1007 29 c 0
 1007 200 l 0
 1007 210 1008 210 1016 210 c 0
 1033 210 l 0
 1042 210 1043 210 1043 200 c 0
 1043 85 l 0
 1043 67 1052 59 1068 77 c 0
 1094 106 l 0
 1108 123 1116 132 1122 132 c 0
 1129 132 1135 123 1148 103 c 0
 1202 17 l 0
 1213 1 1219 -8 1227 -8 c 0
 1235 -8 1245 2 1264 22 c 0
 1284 44 l 0
 1289 50 1293 53 1296 53 c 0
 1302 53 1312 36 1312 28 c 0
 1312 23 1309 17 1302 9 c 0
 1206 -98 l 0
 1188 -118 1179 -130 1171 -130 c 0
 1163 -130 1156 -119 1141 -96 c 0
 1093 -21 l 0
 1081 -2 1074 8 1066 8 c 0
 1063 8 1060 7 1057 5 c 0
 1047 -2 1043 -6 1043 -25 c 0
 1043 -200 l 0
 1043 -210 1042 -210 1034 -210 c 0
 1017 -210 l 0
 1008 -210 1007 -210 1007 -200 c 0
 1007 -90 l 0
 1007 -60 998 -57 979 -78 c 0
 956 -104 l 0
 940 -122 933 -131 926 -131 c 0
 918 -131 912 -121 899 -100 c 0
 846 -18 l 0
 835 -1 829 8 821 8 c 0
 813 8 804 0 789 -17 c 0
 716 -98 l 0
 698 -118 689 -130 681 -130 c 0
 673 -130 666 -119 651 -96 c 0
 603 -21 l 0
 591 -2 584 8 576 8 c 0
 568 8 559 0 543 -18 c 0
 471 -98 l 0
 453 -118 444 -130 436 -130 c 0
 428 -130 421 -119 406 -96 c 0
 358 -21 l 0
 346 -2 339 8 331 8 c 0
 323 8 314 0 298 -18 c 0
 221 -104 l 0
 205 -122 198 -131 191 -131 c 0
 183 -131 177 -121 164 -100 c 0
 111 -18 l 0
 100 -1 94 8 86 8 c 0
 78 8 69 0 54 -17 c 0
 32 -42 l 0
 25 -49 21 -52 17 -52 c 0
 11 -52 0 -35 0 -28 c 0
 0 -23 3 -18 10 -11 c 0
 115 107 l 0
 129 123 137 131 143 131 c 0
 151 131 157 120 171 98 c 0
 220 20 l 0
 231 3 239 -5 247 -5 c 0
 257 -5 267 4 284 23 c 0
 359 106 l 0
 373 123 381 132 387 132 c 0
 394 132 400 123 413 103 c 0
 467 17 l 0
 478 1 484 -8 492 -8 c 0
 500 -8 511 2 530 23 c 0
EndSplineSet
Validated: 1
EndChar

StartChar: Q
Encoding: 81 81 60
Width: 1067
Flags: HW
LayerCount: 2
Fore
SplineSet
775 23 m 0
 849 106 l 0
 864 122 871 132 877 132 c 0
 884 132 890 123 903 103 c 0
 957 17 l 0
 968 1 974 -8 982 -8 c 0
 990 -8 1000 2 1019 22 c 0
 1039 44 l 0
 1044 50 1048 53 1051 53 c 0
 1057 53 1067 36 1067 28 c 0
 1067 23 1064 17 1057 9 c 0
 961 -98 l 0
 943 -118 934 -130 926 -130 c 0
 918 -130 911 -119 896 -96 c 0
 848 -21 l 0
 836 -2 829 8 821 8 c 0
 813 8 804 -1 788 -18 c 0
 716 -98 l 0
 698 -118 689 -130 681 -130 c 0
 673 -130 666 -119 651 -96 c 0
 603 -21 l 0
 591 -2 584 8 576 8 c 0
 573 8 570 7 566 4 c 0
 557 -2 553 -7 553 -25 c 0
 553 -200 l 0
 553 -210 552 -210 544 -210 c 0
 527 -210 l 0
 518 -210 517 -210 517 -200 c 0
 517 -90 l 0
 517 -60 508 -57 489 -78 c 0
 471 -98 l 0
 453 -118 444 -130 436 -130 c 0
 428 -130 421 -119 406 -96 c 0
 358 -21 l 0
 346 -2 339 8 331 8 c 0
 323 8 314 0 298 -18 c 0
 221 -104 l 0
 205 -122 198 -131 191 -131 c 0
 183 -131 177 -121 164 -100 c 0
 111 -18 l 0
 100 -1 94 8 86 8 c 0
 78 8 69 0 54 -17 c 0
 32 -42 l 0
 25 -49 21 -52 17 -52 c 0
 11 -52 0 -35 0 -28 c 0
 0 -23 3 -18 10 -11 c 0
 115 107 l 0
 129 123 137 131 143 131 c 0
 151 131 157 120 171 98 c 0
 220 20 l 0
 231 3 239 -5 247 -5 c 0
 257 -5 267 4 284 23 c 0
 359 106 l 0
 373 123 381 132 387 132 c 0
 394 132 400 123 413 103 c 0
 467 17 l 0
 478 1 484 -8 492 -8 c 0
 496 -8 501 -5 505 -2 c 0
 514 5 517 10 517 29 c 0
 517 200 l 0
 517 210 518 210 526 210 c 0
 543 210 l 0
 552 210 553 210 553 200 c 0
 553 85 l 0
 553 67 562 59 578 77 c 0
 604 106 l 0
 619 122 626 132 632 132 c 0
 639 132 645 123 658 103 c 0
 712 17 l 0
 723 1 729 -8 737 -8 c 0
 745 -8 756 1 775 23 c 0
EndSplineSet
Validated: 1
EndChar

StartChar: R
Encoding: 82 82 61
Width: 822
Flags: HW
LayerCount: 2
Fore
SplineSet
218 -106 m 0
 203 -122 196 -132 190 -132 c 0
 183 -132 177 -123 164 -103 c 0
 110 -17 l 0
 99 -1 93 8 85 8 c 0
 77 8 67 -2 48 -22 c 0
 28 -44 l 0
 23 -50 19 -53 16 -53 c 0
 10 -53 0 -36 0 -28 c 0
 0 -23 3 -17 10 -9 c 0
 106 98 l 0
 124 118 133 130 141 130 c 0
 149 130 156 119 171 96 c 0
 219 21 l 0
 231 2 238 -8 246 -8 c 0
 249 -8 252 -7 256 -4 c 0
 265 2 269 7 269 25 c 0
 269 200 l 0
 269 210 270 210 278 210 c 0
 295 210 l 0
 304 210 305 210 305 200 c 0
 305 90 l 0
 305 60 314 57 333 78 c 0
 351 98 l 0
 369 118 378 130 386 130 c 0
 394 130 401 119 416 96 c 0
 464 21 l 0
 476 2 483 -8 491 -8 c 0
 499 -8 508 0 524 18 c 0
 601 104 l 0
 617 122 624 131 631 131 c 0
 639 131 645 121 658 100 c 0
 711 18 l 0
 722 1 728 -8 736 -8 c 0
 744 -8 753 0 768 17 c 0
 790 42 l 0
 797 49 801 52 805 52 c 0
 811 52 822 35 822 28 c 0
 822 23 819 18 812 11 c 0
 707 -107 l 0
 693 -123 685 -131 679 -131 c 0
 671 -131 665 -120 651 -98 c 0
 602 -20 l 0
 591 -3 583 5 575 5 c 0
 565 5 555 -4 538 -23 c 0
 463 -106 l 0
 449 -123 441 -132 435 -132 c 0
 428 -132 422 -123 409 -103 c 0
 355 -17 l 0
 344 -1 338 7 330 7 c 0
 326 7 322 5 318 2 c 0
 307 -7 305 -10 305 -29 c 0
 305 -200 l 0
 305 -210 304 -210 296 -210 c 0
 279 -210 l 0
 270 -210 269 -210 269 -200 c 0
 269 -85 l 0
 269 -67 260 -59 244 -77 c 0
 218 -106 l 0
EndSplineSet
Validated: 1
EndChar

StartChar: S
Encoding: 83 83 62
Width: 1067
Flags: HW
LayerCount: 2
Fore
SplineSet
1050 52 m 0
 1056 52 1067 35 1067 28 c 0
 1067 23 1064 18 1057 11 c 0
 952 -107 l 0
 938 -123 930 -131 924 -131 c 0
 916 -131 910 -120 896 -98 c 0
 847 -20 l 0
 836 -3 828 5 820 5 c 0
 810 5 800 -4 783 -23 c 0
 708 -106 l 0
 694 -123 686 -132 680 -132 c 0
 673 -132 667 -123 654 -103 c 0
 600 -17 l 0
 589 -1 583 8 575 8 c 0
 567 8 558 -1 539 -22 c 0
 462 -107 l 0
 448 -123 440 -131 434 -131 c 0
 426 -131 420 -120 406 -98 c 0
 357 -20 l 0
 346 -3 338 5 330 5 c 0
 326 5 322 4 318 1 c 0
 307 -6 305 -10 305 -29 c 0
 305 -200 l 0
 305 -210 304 -210 296 -210 c 0
 279 -210 l 0
 270 -210 269 -210 269 -200 c 0
 269 -85 l 0
 269 -67 260 -59 244 -77 c 0
 218 -106 l 0
 204 -123 196 -132 190 -132 c 0
 183 -132 177 -123 164 -103 c 0
 110 -17 l 0
 99 -1 93 8 85 8 c 0
 77 8 67 -2 48 -22 c 0
 28 -44 l 0
 23 -50 19 -53 16 -53 c 0
 10 -53 0 -36 0 -28 c 0
 0 -23 3 -17 10 -9 c 0
 106 98 l 0
 124 118 133 130 141 130 c 0
 149 130 156 119 171 96 c 0
 219 21 l 0
 231 2 238 -8 246 -8 c 0
 249 -8 252 -7 255 -5 c 0
 265 2 269 6 269 25 c 0
 269 200 l 0
 269 210 270 210 278 210 c 0
 295 210 l 0
 304 210 305 210 305 200 c 0
 305 90 l 0
 305 60 314 57 333 78 c 0
 356 104 l 0
 372 122 379 131 386 131 c 0
 394 131 400 121 413 100 c 0
 466 18 l 0
 477 1 483 -8 491 -8 c 0
 499 -8 509 1 523 17 c 0
 596 98 l 0
 614 118 623 130 631 130 c 0
 639 130 646 119 661 96 c 0
 709 21 l 0
 721 2 728 -8 736 -8 c 0
 744 -8 753 0 769 18 c 0
 846 104 l 0
 862 122 869 131 876 131 c 0
 884 131 890 121 903 100 c 0
 956 18 l 0
 967 1 973 -8 981 -8 c 0
 989 -8 998 0 1013 17 c 0
 1035 42 l 0
 1042 49 1046 52 1050 52 c 0
EndSplineSet
Validated: 1
EndChar

StartChar: T
Encoding: 84 84 63
Width: 1312
Flags: HW
LayerCount: 2
Fore
SplineSet
782 -23 m 0
 708 -106 l 0
 693 -122 686 -132 680 -132 c 0
 673 -132 667 -123 654 -103 c 0
 600 -17 l 0
 589 -1 583 8 575 8 c 0
 567 8 558 -1 539 -22 c 0
 462 -107 l 0
 448 -123 440 -131 434 -131 c 0
 426 -131 420 -120 406 -98 c 0
 357 -20 l 0
 346 -3 338 5 330 5 c 0
 326 5 322 4 318 1 c 0
 307 -6 305 -10 305 -29 c 0
 305 -200 l 0
 305 -210 304 -210 296 -210 c 0
 279 -210 l 0
 270 -210 269 -210 269 -200 c 0
 269 -85 l 0
 269 -67 260 -59 244 -77 c 0
 218 -106 l 0
 204 -123 196 -132 190 -132 c 0
 183 -132 177 -123 164 -103 c 0
 110 -17 l 0
 99 -1 93 8 85 8 c 0
 77 8 67 -2 48 -22 c 0
 28 -44 l 0
 23 -50 19 -53 16 -53 c 0
 10 -53 0 -36 0 -28 c 0
 0 -23 3 -17 10 -9 c 0
 106 98 l 0
 124 118 133 130 141 130 c 0
 149 130 156 119 171 96 c 0
 219 21 l 0
 231 2 238 -8 246 -8 c 0
 249 -8 252 -7 255 -5 c 0
 265 2 269 6 269 25 c 0
 269 200 l 0
 269 210 270 210 278 210 c 0
 295 210 l 0
 304 210 305 210 305 200 c 0
 305 90 l 0
 305 60 314 57 333 78 c 0
 356 104 l 0
 372 122 379 131 386 131 c 0
 394 131 400 121 413 100 c 0
 466 18 l 0
 477 1 483 -8 491 -8 c 0
 499 -8 508 0 523 17 c 0
 596 98 l 0
 614 118 623 130 631 130 c 0
 639 130 646 119 661 96 c 0
 709 21 l 0
 721 2 728 -8 736 -8 c 0
 744 -8 753 0 769 18 c 0
 841 98 l 0
 859 118 868 130 876 130 c 0
 884 130 891 119 906 96 c 0
 954 21 l 0
 966 2 973 -8 981 -8 c 0
 989 -8 998 0 1014 18 c 0
 1091 104 l 0
 1107 122 1114 131 1121 131 c 0
 1129 131 1135 121 1148 100 c 0
 1201 18 l 0
 1212 1 1218 -8 1226 -8 c 0
 1234 -8 1243 0 1258 17 c 0
 1280 42 l 0
 1287 49 1291 52 1295 52 c 0
 1301 52 1312 35 1312 28 c 0
 1312 23 1309 18 1302 11 c 0
 1197 -107 l 0
 1183 -123 1175 -131 1169 -131 c 0
 1161 -131 1155 -120 1141 -98 c 0
 1092 -20 l 0
 1081 -3 1073 5 1065 5 c 0
 1055 5 1045 -4 1028 -23 c 0
 953 -106 l 0
 939 -123 931 -132 925 -132 c 0
 918 -132 912 -123 899 -103 c 0
 845 -17 l 0
 834 -1 828 8 820 8 c 0
 812 8 801 -2 782 -23 c 0
EndSplineSet
Validated: 1
EndChar

StartChar: U
Encoding: 85 85 64
Width: 613
Flags: HW
LayerCount: 2
Fore
SplineSet
0 -88 m 0
 0 317 l 0
 0 327 1 327 9 327 c 0
 26 327 l 0
 35 327 36 327 36 317 c 0
 36 22 l 0
 36 4 40 -2 46 -2 c 0
 52 -2 61 7 69 16 c 0
 151 107 l 0
 165 123 173 131 179 131 c 0
 187 131 193 120 207 98 c 0
 256 20 l 0
 267 3 275 -5 283 -5 c 0
 293 -5 303 4 320 23 c 0
 395 106 l 0
 409 123 417 132 423 132 c 0
 430 132 436 123 449 103 c 0
 503 17 l 0
 514 1 520 -8 528 -8 c 0
 536 -8 546 2 565 22 c 0
 585 44 l 0
 590 50 594 53 597 53 c 0
 603 53 613 36 613 28 c 0
 613 23 610 17 603 9 c 0
 507 -98 l 0
 489 -118 480 -130 472 -130 c 0
 464 -130 457 -119 442 -96 c 0
 394 -21 l 0
 382 -2 375 8 367 8 c 0
 359 8 350 0 334 -18 c 0
 257 -104 l 0
 241 -122 234 -131 227 -131 c 0
 219 -131 213 -121 200 -100 c 0
 147 -18 l 0
 136 -1 130 8 122 8 c 0
 114 8 105 0 90 -17 c 0
 18 -97 l 0
 9 -107 0 -104 0 -88 c 0
EndSplineSet
Validated: 1
EndChar

StartChar: V
Encoding: 86 86 65
Width: 858
Flags: HW
LayerCount: 2
Fore
SplineSet
151 107 m 0
 165 123 173 131 179 131 c 0
 187 131 193 120 207 98 c 0
 256 20 l 0
 267 3 275 -5 283 -5 c 0
 293 -5 303 4 320 23 c 0
 395 106 l 0
 409 123 417 132 423 132 c 0
 430 132 436 123 449 103 c 0
 503 17 l 0
 514 1 520 -8 528 -8 c 0
 536 -8 547 2 566 23 c 0
 640 106 l 0
 655 122 662 132 668 132 c 0
 675 132 681 123 694 103 c 0
 748 17 l 0
 759 1 765 -8 773 -8 c 0
 781 -8 791 2 810 22 c 0
 830 44 l 0
 835 50 839 53 842 53 c 0
 848 53 858 36 858 28 c 0
 858 23 855 17 848 9 c 0
 752 -98 l 0
 734 -118 725 -130 717 -130 c 0
 709 -130 702 -119 687 -96 c 0
 639 -21 l 0
 627 -2 620 8 612 8 c 0
 604 8 595 0 579 -18 c 0
 507 -98 l 0
 489 -118 480 -130 472 -130 c 0
 464 -130 457 -119 442 -96 c 0
 394 -21 l 0
 382 -2 375 8 367 8 c 0
 359 8 350 0 334 -18 c 0
 257 -104 l 0
 241 -122 234 -131 227 -131 c 0
 219 -131 213 -121 200 -100 c 0
 147 -18 l 0
 136 -1 130 8 122 8 c 0
 114 8 105 0 90 -17 c 0
 18 -97 l 0
 9 -107 0 -104 0 -88 c 0
 0 317 l 0
 0 327 1 327 9 327 c 0
 26 327 l 0
 35 327 36 327 36 317 c 0
 36 22 l 0
 36 4 40 -2 46 -2 c 0
 52 -2 61 7 69 16 c 0
 151 107 l 0
EndSplineSet
Validated: 1
EndChar

StartChar: W
Encoding: 87 87 66
Width: 1103
Flags: HW
LayerCount: 2
Fore
SplineSet
69 16 m 0
 151 107 l 0
 165 123 173 131 179 131 c 0
 187 131 193 120 207 98 c 0
 256 20 l 0
 267 3 275 -5 283 -5 c 0
 293 -5 303 4 320 23 c 0
 395 106 l 0
 409 123 417 132 423 132 c 0
 430 132 436 123 449 103 c 0
 503 17 l 0
 514 1 520 -8 528 -8 c 0
 536 -8 547 2 566 23 c 0
 640 106 l 0
 655 122 662 132 668 132 c 0
 675 132 681 123 694 103 c 0
 748 17 l 0
 759 1 765 -8 773 -8 c 0
 781 -8 792 1 811 23 c 0
 885 106 l 0
 900 122 907 132 913 132 c 0
 920 132 926 123 939 103 c 0
 993 17 l 0
 1004 1 1010 -8 1018 -8 c 0
 1026 -8 1036 2 1055 22 c 0
 1075 44 l 0
 1080 50 1084 53 1087 53 c 0
 1093 53 1103 36 1103 28 c 0
 1103 23 1100 17 1093 9 c 0
 997 -98 l 0
 979 -118 970 -130 962 -130 c 0
 954 -130 947 -119 932 -96 c 0
 884 -21 l 0
 872 -2 865 8 857 8 c 0
 849 8 840 -1 824 -18 c 0
 752 -98 l 0
 734 -118 725 -130 717 -130 c 0
 709 -130 702 -119 687 -96 c 0
 639 -21 l 0
 627 -2 620 8 612 8 c 0
 604 8 595 0 579 -18 c 0
 507 -98 l 0
 489 -118 480 -130 472 -130 c 0
 464 -130 457 -119 442 -96 c 0
 394 -21 l 0
 382 -2 375 8 367 8 c 0
 359 8 350 0 334 -18 c 0
 257 -104 l 0
 241 -122 234 -131 227 -131 c 0
 219 -131 213 -121 200 -100 c 0
 147 -18 l 0
 136 -1 130 8 122 8 c 0
 114 8 105 0 90 -17 c 0
 18 -97 l 0
 9 -107 0 -104 0 -88 c 0
 0 317 l 0
 0 327 1 327 9 327 c 0
 26 327 l 0
 35 327 36 327 36 317 c 0
 36 22 l 0
 36 4 40 -2 46 -2 c 0
 52 -2 61 7 69 16 c 0
EndSplineSet
Validated: 1
EndChar

StartChar: X
Encoding: 88 88 67
Width: 1348
Flags: HW
LayerCount: 2
Fore
SplineSet
69 16 m 0
 151 107 l 0
 165 123 173 131 179 131 c 0
 187 131 193 120 207 98 c 0
 256 20 l 0
 267 3 275 -5 283 -5 c 0
 293 -5 303 4 320 23 c 0
 395 106 l 0
 409 123 417 132 423 132 c 0
 430 132 436 123 449 103 c 0
 503 17 l 0
 514 1 520 -8 528 -8 c 0
 536 -8 547 2 566 23 c 0
 640 106 l 0
 655 122 662 132 668 132 c 0
 675 132 681 123 694 103 c 0
 748 17 l 0
 759 1 765 -8 773 -8 c 0
 781 -8 792 1 811 23 c 0
 885 106 l 0
 900 122 907 132 913 132 c 0
 920 132 926 123 939 103 c 0
 993 17 l 0
 1004 1 1010 -8 1018 -8 c 0
 1026 -8 1037 1 1055 22 c 0
 1130 106 l 0
 1145 122 1152 132 1158 132 c 0
 1165 132 1171 123 1184 103 c 0
 1238 17 l 0
 1249 1 1255 -8 1263 -8 c 0
 1271 -8 1281 2 1300 22 c 0
 1320 44 l 0
 1325 50 1329 53 1332 53 c 0
 1338 53 1348 36 1348 28 c 0
 1348 23 1345 17 1338 9 c 0
 1242 -98 l 0
 1224 -118 1215 -130 1207 -130 c 0
 1199 -130 1192 -119 1177 -96 c 0
 1129 -21 l 0
 1117 -2 1110 8 1102 8 c 0
 1094 8 1084 -1 1069 -18 c 0
 997 -98 l 0
 979 -118 970 -130 962 -130 c 0
 954 -130 947 -119 932 -96 c 0
 884 -21 l 0
 872 -2 865 8 857 8 c 0
 849 8 840 -1 824 -18 c 0
 752 -98 l 0
 734 -118 725 -130 717 -130 c 0
 709 -130 702 -119 687 -96 c 0
 639 -21 l 0
 627 -2 620 8 612 8 c 0
 604 8 595 0 579 -18 c 0
 507 -98 l 0
 489 -118 480 -130 472 -130 c 0
 464 -130 457 -119 442 -96 c 0
 394 -21 l 0
 382 -2 375 8 367 8 c 0
 359 8 350 0 334 -18 c 0
 257 -104 l 0
 241 -122 234 -131 227 -131 c 0
 219 -131 213 -121 200 -100 c 0
 147 -18 l 0
 136 -1 130 8 122 8 c 0
 114 8 105 0 90 -17 c 0
 18 -97 l 0
 9 -107 0 -104 0 -88 c 0
 0 317 l 0
 0 327 1 327 9 327 c 0
 26 327 l 0
 35 327 36 327 36 317 c 0
 36 22 l 0
 36 4 40 -2 46 -2 c 0
 52 -2 61 7 69 16 c 0
EndSplineSet
Validated: 1
EndChar

StartChar: Y
Encoding: 89 89 68
Width: 684
Flags: HW
LayerCount: 2
Fore
SplineSet
89 0 m 0
 101 -19 110 -17 126 0 c 0
 222 107 l 0
 236 123 244 131 250 131 c 0
 258 131 264 120 278 98 c 0
 327 20 l 0
 338 3 346 -5 354 -5 c 0
 364 -5 374 4 391 23 c 0
 466 106 l 0
 480 123 488 132 494 132 c 0
 501 132 507 123 520 103 c 0
 574 17 l 0
 585 1 591 -8 599 -8 c 0
 607 -8 617 2 636 22 c 0
 656 44 l 0
 661 50 665 53 668 53 c 0
 674 53 684 36 684 28 c 0
 684 23 681 17 674 9 c 0
 578 -98 l 0
 560 -118 551 -130 543 -130 c 0
 535 -130 528 -119 513 -96 c 0
 465 -21 l 0
 453 -2 446 8 438 8 c 0
 430 8 421 0 405 -18 c 0
 328 -104 l 0
 312 -122 305 -131 298 -131 c 0
 290 -131 284 -121 271 -100 c 0
 218 -18 l 0
 207 -1 201 8 193 8 c 0
 185 8 176 0 161 -17 c 0
 122 -60 l 0
 103 -81 100 -81 82 -56 c 0
 31 11 0 96 0 176 c 0
 0 256 31 340 88 414 c 0
 94 421 100 429 106 429 c 0
 112 429 118 410 118 401 c 0
 118 398 118 395 114 390 c 0
 65 321 36 250 36 177 c 0
 36 121 52 57 89 0 c 0
EndSplineSet
Validated: 33
EndChar

StartChar: Z
Encoding: 90 90 69
Width: 929
Flags: HW
LayerCount: 2
Fore
SplineSet
126 0 m 0
 222 107 l 0
 236 123 244 131 250 131 c 0
 258 131 264 120 278 98 c 0
 327 20 l 0
 338 3 346 -5 354 -5 c 0
 364 -5 374 4 391 23 c 0
 466 106 l 0
 480 123 488 132 494 132 c 0
 501 132 507 123 520 103 c 0
 574 17 l 0
 585 1 591 -8 599 -8 c 0
 607 -8 618 2 637 23 c 0
 711 106 l 0
 726 122 733 132 739 132 c 0
 746 132 752 123 765 103 c 0
 819 17 l 0
 830 1 836 -8 844 -8 c 0
 852 -8 862 2 881 22 c 0
 901 44 l 0
 906 50 910 53 913 53 c 0
 919 53 929 36 929 28 c 0
 929 23 926 17 919 9 c 0
 823 -98 l 0
 805 -118 796 -130 788 -130 c 0
 780 -130 773 -119 758 -96 c 0
 710 -21 l 0
 698 -2 691 8 683 8 c 0
 675 8 666 0 650 -18 c 0
 578 -98 l 0
 560 -118 551 -130 543 -130 c 0
 535 -130 528 -119 513 -96 c 0
 465 -21 l 0
 453 -2 446 8 438 8 c 0
 430 8 421 0 405 -18 c 0
 328 -104 l 0
 312 -122 305 -131 298 -131 c 0
 290 -131 284 -121 271 -100 c 0
 218 -18 l 0
 207 -1 201 8 193 8 c 0
 185 8 176 0 161 -17 c 0
 122 -60 l 0
 103 -81 100 -81 82 -56 c 0
 31 11 0 96 0 176 c 0
 0 256 31 340 88 414 c 0
 94 421 100 429 106 429 c 0
 112 429 118 410 118 401 c 0
 118 398 118 395 114 390 c 0
 65 321 36 250 36 177 c 0
 36 121 52 57 89 0 c 0
 101 -19 110 -17 126 0 c 0
EndSplineSet
Validated: 33
EndChar

StartChar: backslash
Encoding: 92 92 70
Width: 1419
Flags: HW
LayerCount: 2
Fore
SplineSet
126 0 m 0
 222 107 l 0
 236 123 244 131 250 131 c 0
 258 131 264 120 278 98 c 0
 327 20 l 0
 338 3 346 -5 354 -5 c 0
 364 -5 374 4 391 23 c 0
 466 106 l 0
 480 123 488 132 494 132 c 0
 501 132 507 123 520 103 c 0
 574 17 l 0
 585 1 591 -8 599 -8 c 0
 607 -8 618 2 637 23 c 0
 711 106 l 0
 726 122 733 132 739 132 c 0
 746 132 752 123 765 103 c 0
 819 17 l 0
 830 1 836 -8 844 -8 c 0
 852 -8 863 1 882 23 c 0
 956 106 l 0
 971 122 978 132 984 132 c 0
 991 132 997 123 1010 103 c 0
 1064 17 l 0
 1075 1 1081 -8 1089 -8 c 0
 1097 -8 1108 1 1126 22 c 0
 1201 106 l 0
 1216 122 1223 132 1229 132 c 0
 1236 132 1242 123 1255 103 c 0
 1309 17 l 0
 1320 1 1326 -8 1334 -8 c 0
 1342 -8 1352 2 1371 22 c 0
 1391 44 l 0
 1396 50 1400 53 1403 53 c 0
 1409 53 1419 36 1419 28 c 0
 1419 23 1416 17 1409 9 c 0
 1313 -98 l 0
 1295 -118 1286 -130 1278 -130 c 0
 1270 -130 1263 -119 1248 -96 c 0
 1200 -21 l 0
 1188 -2 1181 8 1173 8 c 0
 1165 8 1155 -1 1140 -18 c 0
 1068 -98 l 0
 1050 -118 1041 -130 1033 -130 c 0
 1025 -130 1018 -119 1003 -96 c 0
 955 -21 l 0
 943 -2 936 8 928 8 c 0
 920 8 911 -1 895 -18 c 0
 823 -98 l 0
 805 -118 796 -130 788 -130 c 0
 780 -130 773 -119 758 -96 c 0
 710 -21 l 0
 698 -2 691 8 683 8 c 0
 675 8 666 0 650 -18 c 0
 578 -98 l 0
 560 -118 551 -130 543 -130 c 0
 535 -130 528 -119 513 -96 c 0
 465 -21 l 0
 453 -2 446 8 438 8 c 0
 430 8 421 0 405 -18 c 0
 328 -104 l 0
 312 -122 305 -131 298 -131 c 0
 290 -131 284 -121 271 -100 c 0
 218 -18 l 0
 207 -1 201 8 193 8 c 0
 185 8 176 0 161 -17 c 0
 122 -60 l 0
 103 -81 100 -81 82 -56 c 0
 31 11 0 96 0 176 c 0
 0 256 31 340 88 414 c 0
 94 421 100 429 106 429 c 0
 112 429 118 410 118 401 c 0
 118 398 118 395 114 390 c 0
 65 321 36 250 36 177 c 0
 36 121 52 57 89 0 c 0
 101 -19 110 -17 126 0 c 0
EndSplineSet
Validated: 33
EndChar

StartChar: asciicircum
Encoding: 94 94 71
Width: 1140
Flags: HW
LayerCount: 2
Fore
SplineSet
373 40 m 0
 433 107 l 0
 447 123 455 131 461 131 c 0
 469 131 475 120 489 98 c 0
 538 20 l 0
 549 3 557 -5 565 -5 c 0
 575 -5 585 4 602 23 c 0
 677 106 l 0
 691 123 699 132 705 132 c 0
 712 132 718 123 731 103 c 0
 785 17 l 0
 796 1 802 -8 810 -8 c 0
 818 -8 829 2 848 23 c 0
 922 106 l 0
 937 122 944 132 950 132 c 0
 957 132 963 123 976 103 c 0
 1030 17 l 0
 1041 1 1047 -8 1055 -8 c 0
 1063 -8 1073 2 1092 22 c 0
 1112 44 l 0
 1117 50 1121 53 1124 53 c 0
 1130 53 1140 36 1140 28 c 0
 1140 23 1137 17 1130 9 c 0
 1034 -98 l 0
 1016 -118 1007 -130 999 -130 c 0
 991 -130 984 -119 969 -96 c 0
 921 -21 l 0
 909 -2 902 8 894 8 c 0
 886 8 877 0 861 -18 c 0
 789 -98 l 0
 771 -118 762 -130 754 -130 c 0
 746 -130 739 -119 724 -96 c 0
 676 -21 l 0
 664 -2 657 8 649 8 c 0
 641 8 632 0 616 -18 c 0
 539 -104 l 0
 523 -122 516 -131 509 -131 c 0
 501 -131 495 -121 482 -100 c 0
 429 -18 l 0
 418 -1 412 8 404 8 c 0
 396 8 387 0 372 -17 c 0
 334 -58 273 -120 184 -120 c 0
 89 -120 23 -48 4 3 c 0
 2 8 0 12 0 15 c 0
 0 24 27 26 39 26 c 0
 47 26 52 24 55 16 c 0
 75 -35 113 -82 186 -82 c 0
 253 -82 299 -43 373 40 c 0
EndSplineSet
Validated: 1
EndChar

StartChar: grave
Encoding: 96 96 72
Width: 1630
Flags: HW
LayerCount: 2
Fore
SplineSet
373 40 m 0
 433 107 l 0
 447 123 455 131 461 131 c 0
 469 131 475 120 489 98 c 0
 538 20 l 0
 549 3 557 -5 565 -5 c 0
 575 -5 585 4 602 23 c 0
 677 106 l 0
 691 123 699 132 705 132 c 0
 712 132 718 123 731 103 c 0
 785 17 l 0
 796 1 802 -8 810 -8 c 0
 818 -8 829 2 848 23 c 0
 922 106 l 0
 937 122 944 132 950 132 c 0
 957 132 963 123 976 103 c 0
 1030 17 l 0
 1041 1 1047 -8 1055 -8 c 0
 1063 -8 1074 1 1093 23 c 0
 1167 106 l 0
 1182 122 1189 132 1195 132 c 0
 1202 132 1208 123 1221 103 c 0
 1275 17 l 0
 1286 1 1292 -8 1300 -8 c 0
 1308 -8 1319 1 1337 22 c 0
 1412 106 l 0
 1427 122 1434 132 1440 132 c 0
 1447 132 1453 123 1466 103 c 0
 1520 17 l 0
 1531 1 1537 -8 1545 -8 c 0
 1553 -8 1563 2 1582 22 c 0
 1602 44 l 0
 1607 50 1611 53 1614 53 c 0
 1620 53 1630 36 1630 28 c 0
 1630 23 1627 17 1620 9 c 0
 1524 -98 l 0
 1506 -118 1497 -130 1489 -130 c 0
 1481 -130 1474 -119 1459 -96 c 0
 1411 -21 l 0
 1399 -2 1392 8 1384 8 c 0
 1376 8 1366 -1 1351 -18 c 0
 1279 -98 l 0
 1261 -118 1252 -130 1244 -130 c 0
 1236 -130 1229 -119 1214 -96 c 0
 1166 -21 l 0
 1154 -2 1147 8 1139 8 c 0
 1131 8 1122 -1 1106 -18 c 0
 1034 -98 l 0
 1016 -118 1007 -130 999 -130 c 0
 991 -130 984 -119 969 -96 c 0
 921 -21 l 0
 909 -2 902 8 894 8 c 0
 886 8 877 0 861 -18 c 0
 789 -98 l 0
 771 -118 762 -130 754 -130 c 0
 746 -130 739 -119 724 -96 c 0
 676 -21 l 0
 664 -2 657 8 649 8 c 0
 641 8 632 0 616 -18 c 0
 539 -104 l 0
 523 -122 516 -131 509 -131 c 0
 501 -131 495 -121 482 -100 c 0
 429 -18 l 0
 418 -1 412 8 404 8 c 0
 396 8 387 0 372 -17 c 0
 334 -58 273 -120 184 -120 c 0
 89 -120 23 -48 4 3 c 0
 2 8 0 12 0 15 c 0
 0 24 27 26 39 26 c 0
 47 26 52 24 55 16 c 0
 75 -35 113 -82 186 -82 c 0
 253 -82 299 -43 373 40 c 0
EndSplineSet
Validated: 1
EndChar

StartChar: a
Encoding: 97 97 73
Width: 684
Flags: HW
LayerCount: 2
Fore
SplineSet
126 0 m 0
 222 107 l 0
 236 123 244 131 250 131 c 0
 258 131 264 120 278 98 c 0
 327 20 l 0
 338 3 346 -5 354 -5 c 0
 358 -5 362 -4 366 -1 c 0
 377 6 379 10 379 29 c 0
 379 200 l 0
 379 210 380 210 388 210 c 0
 405 210 l 0
 414 210 415 210 415 200 c 0
 415 85 l 0
 415 67 424 59 440 77 c 0
 466 106 l 0
 480 123 488 132 494 132 c 0
 501 132 507 123 520 103 c 0
 574 17 l 0
 585 1 591 -8 599 -8 c 0
 607 -8 617 2 636 22 c 0
 656 44 l 0
 661 50 665 53 668 53 c 0
 674 53 684 36 684 28 c 0
 684 23 681 17 674 9 c 0
 578 -98 l 0
 560 -118 551 -130 543 -130 c 0
 535 -130 528 -119 513 -96 c 0
 465 -21 l 0
 453 -2 446 8 438 8 c 0
 435 8 432 7 429 5 c 0
 419 -2 415 -6 415 -25 c 0
 415 -200 l 0
 415 -210 414 -210 406 -210 c 0
 389 -210 l 0
 380 -210 379 -210 379 -200 c 0
 379 -90 l 0
 379 -60 370 -57 351 -78 c 0
 328 -104 l 0
 312 -122 305 -131 298 -131 c 0
 290 -131 284 -121 271 -100 c 0
 218 -18 l 0
 207 -1 201 8 193 8 c 0
 185 8 176 0 161 -17 c 0
 122 -60 l 0
 103 -81 100 -81 82 -56 c 0
 31 11 0 96 0 176 c 0
 0 256 31 340 88 414 c 0
 94 421 100 429 106 429 c 0
 112 429 118 410 118 401 c 0
 118 398 118 395 114 390 c 0
 65 321 36 250 36 177 c 0
 36 121 52 57 89 0 c 0
 101 -19 110 -18 126 0 c 0
EndSplineSet
Validated: 33
EndChar

StartChar: b
Encoding: 98 98 74
Width: 929
Flags: HW
LayerCount: 2
Fore
SplineSet
126 0 m 0
 222 107 l 0
 236 123 244 131 250 131 c 0
 258 131 264 120 278 98 c 0
 327 20 l 0
 338 3 346 -5 354 -5 c 0
 364 -5 374 4 391 23 c 0
 466 106 l 0
 480 123 488 132 494 132 c 0
 501 132 507 123 520 103 c 0
 574 17 l 0
 585 1 591 -7 599 -7 c 0
 603 -7 607 -5 611 -2 c 0
 622 7 624 10 624 29 c 0
 624 200 l 0
 624 210 625 210 633 210 c 0
 650 210 l 0
 659 210 660 210 660 200 c 0
 660 85 l 0
 660 67 669 59 685 77 c 0
 711 106 l 0
 726 122 733 132 739 132 c 0
 746 132 752 123 765 103 c 0
 819 17 l 0
 830 1 836 -8 844 -8 c 0
 852 -8 862 2 881 22 c 0
 901 44 l 0
 906 50 910 53 913 53 c 0
 919 53 929 36 929 28 c 0
 929 23 926 17 919 9 c 0
 823 -98 l 0
 805 -118 796 -130 788 -130 c 0
 780 -130 773 -119 758 -96 c 0
 710 -21 l 0
 698 -2 691 8 683 8 c 0
 680 8 677 7 673 4 c 0
 664 -2 660 -7 660 -25 c 0
 660 -200 l 0
 660 -210 659 -210 651 -210 c 0
 634 -210 l 0
 625 -210 624 -210 624 -200 c 0
 624 -90 l 0
 624 -60 615 -57 596 -78 c 0
 578 -98 l 0
 560 -118 551 -130 543 -130 c 0
 535 -130 528 -119 513 -96 c 0
 465 -21 l 0
 453 -2 446 8 438 8 c 0
 430 8 421 0 405 -18 c 0
 328 -104 l 0
 312 -122 305 -131 298 -131 c 0
 290 -131 284 -121 271 -100 c 0
 218 -18 l 0
 207 -1 201 8 193 8 c 0
 185 8 176 0 161 -17 c 0
 122 -60 l 0
 103 -81 100 -81 82 -56 c 0
 31 11 0 96 0 176 c 0
 0 256 31 340 88 414 c 0
 94 421 100 429 106 429 c 0
 112 429 118 410 118 401 c 0
 118 398 118 395 114 390 c 0
 65 321 36 250 36 177 c 0
 36 121 52 57 89 0 c 0
 101 -19 110 -17 126 0 c 0
EndSplineSet
Validated: 33
EndChar

StartChar: c
Encoding: 99 99 75
Width: 1174
Flags: HW
LayerCount: 2
Fore
SplineSet
126 0 m 0
 222 107 l 0
 236 123 244 131 250 131 c 0
 258 131 264 120 278 98 c 0
 327 20 l 0
 338 3 346 -5 354 -5 c 0
 364 -5 374 4 391 23 c 0
 466 106 l 0
 480 123 488 132 494 132 c 0
 501 132 507 123 520 103 c 0
 574 17 l 0
 585 1 591 -8 599 -8 c 0
 607 -8 616 1 635 22 c 0
 712 107 l 0
 726 123 734 131 740 131 c 0
 748 131 754 120 768 98 c 0
 817 20 l 0
 828 3 836 -5 844 -5 c 0
 848 -5 852 -4 856 -1 c 0
 867 6 869 10 869 29 c 0
 869 200 l 0
 869 210 870 210 878 210 c 0
 895 210 l 0
 904 210 905 210 905 200 c 0
 905 85 l 0
 905 67 914 59 930 77 c 0
 956 106 l 0
 970 123 978 132 984 132 c 0
 991 132 997 123 1010 103 c 0
 1064 17 l 0
 1075 1 1081 -8 1089 -8 c 0
 1097 -8 1107 2 1126 22 c 0
 1146 44 l 0
 1151 50 1155 53 1158 53 c 0
 1164 53 1174 36 1174 28 c 0
 1174 23 1171 17 1164 9 c 0
 1068 -98 l 0
 1050 -118 1041 -130 1033 -130 c 0
 1025 -130 1018 -119 1003 -96 c 0
 955 -21 l 0
 943 -2 936 8 928 8 c 0
 925 8 922 7 919 5 c 0
 909 -2 905 -6 905 -25 c 0
 905 -200 l 0
 905 -210 904 -210 896 -210 c 0
 879 -210 l 0
 870 -210 869 -210 869 -200 c 0
 869 -90 l 0
 869 -60 860 -57 841 -78 c 0
 818 -104 l 0
 802 -122 795 -131 788 -131 c 0
 780 -131 774 -121 761 -100 c 0
 708 -18 l 0
 697 -1 691 8 683 8 c 0
 675 8 665 -1 651 -17 c 0
 578 -98 l 0
 560 -118 551 -130 543 -130 c 0
 535 -130 528 -119 513 -96 c 0
 465 -21 l 0
 453 -2 446 8 438 8 c 0
 430 8 421 0 405 -18 c 0
 328 -104 l 0
 312 -122 305 -131 298 -131 c 0
 290 -131 284 -121 271 -100 c 0
 218 -18 l 0
 207 -1 201 8 193 8 c 0
 185 8 176 0 161 -17 c 0
 122 -60 l 0
 103 -81 100 -81 82 -56 c 0
 31 11 0 96 0 176 c 0
 0 256 31 340 88 414 c 0
 94 421 100 429 106 429 c 0
 112 429 118 410 118 401 c 0
 118 398 118 395 114 390 c 0
 65 321 36 250 36 177 c 0
 36 121 52 57 89 0 c 0
 101 -19 110 -17 126 0 c 0
EndSplineSet
Validated: 33
EndChar

StartChar: d
Encoding: 100 100 76
Width: 1419
Flags: HW
LayerCount: 2
Fore
SplineSet
126 0 m 0
 222 107 l 0
 236 123 244 131 250 131 c 0
 258 131 264 120 278 98 c 0
 327 20 l 0
 338 3 346 -5 354 -5 c 0
 364 -5 374 4 391 23 c 0
 466 106 l 0
 480 123 488 132 494 132 c 0
 501 132 507 123 520 103 c 0
 574 17 l 0
 585 1 591 -8 599 -8 c 0
 607 -8 618 2 637 23 c 0
 711 106 l 0
 726 122 733 132 739 132 c 0
 746 132 752 123 765 103 c 0
 819 17 l 0
 830 1 836 -8 844 -8 c 0
 852 -8 861 1 880 22 c 0
 957 107 l 0
 971 123 979 131 985 131 c 0
 993 131 999 120 1013 98 c 0
 1062 20 l 0
 1073 3 1081 -5 1089 -5 c 0
 1093 -5 1097 -4 1101 -1 c 0
 1112 6 1114 10 1114 29 c 0
 1114 200 l 0
 1114 210 1115 210 1123 210 c 0
 1140 210 l 0
 1149 210 1150 210 1150 200 c 0
 1150 85 l 0
 1150 67 1159 59 1175 77 c 0
 1201 106 l 0
 1215 123 1223 132 1229 132 c 0
 1236 132 1242 123 1255 103 c 0
 1309 17 l 0
 1320 1 1326 -8 1334 -8 c 0
 1342 -8 1352 2 1371 22 c 0
 1391 44 l 0
 1396 50 1400 53 1403 53 c 0
 1409 53 1419 36 1419 28 c 0
 1419 23 1416 17 1409 9 c 0
 1313 -98 l 0
 1295 -118 1286 -130 1278 -130 c 0
 1270 -130 1263 -119 1248 -96 c 0
 1200 -21 l 0
 1188 -2 1181 8 1173 8 c 0
 1170 8 1167 7 1164 5 c 0
 1154 -2 1150 -6 1150 -25 c 0
 1150 -200 l 0
 1150 -210 1149 -210 1141 -210 c 0
 1124 -210 l 0
 1115 -210 1114 -210 1114 -200 c 0
 1114 -90 l 0
 1114 -60 1105 -57 1086 -78 c 0
 1063 -104 l 0
 1047 -122 1040 -131 1033 -131 c 0
 1025 -131 1019 -121 1006 -100 c 0
 953 -18 l 0
 942 -1 936 8 928 8 c 0
 920 8 911 0 896 -17 c 0
 823 -98 l 0
 805 -118 796 -130 788 -130 c 0
 780 -130 773 -119 758 -96 c 0
 710 -21 l 0
 698 -2 691 8 683 8 c 0
 675 8 666 0 650 -18 c 0
 578 -98 l 0
 560 -118 551 -130 543 -130 c 0
 535 -130 528 -119 513 -96 c 0
 465 -21 l 0
 453 -2 446 8 438 8 c 0
 430 8 421 0 405 -18 c 0
 328 -104 l 0
 312 -122 305 -131 298 -131 c 0
 290 -131 284 -121 271 -100 c 0
 218 -18 l 0
 207 -1 201 8 193 8 c 0
 185 8 176 0 161 -17 c 0
 122 -60 l 0
 103 -81 100 -81 82 -56 c 0
 31 11 0 96 0 176 c 0
 0 256 31 340 88 414 c 0
 94 421 100 429 106 429 c 0
 112 429 118 410 118 401 c 0
 118 398 118 395 114 390 c 0
 65 321 36 250 36 177 c 0
 36 121 52 57 89 0 c 0
 101 -19 110 -17 126 0 c 0
EndSplineSet
Validated: 33
EndChar

StartChar: e
Encoding: 101 101 77
Width: 895
Flags: HW
LayerCount: 2
Fore
SplineSet
373 40 m 0
 433 107 l 0
 447 123 455 131 461 131 c 0
 469 131 475 120 489 98 c 0
 538 20 l 0
 549 3 557 -5 565 -5 c 0
 569 -5 573 -4 577 -1 c 0
 588 6 590 10 590 29 c 0
 590 200 l 0
 590 210 591 210 599 210 c 0
 616 210 l 0
 625 210 626 210 626 200 c 0
 626 85 l 0
 626 67 635 59 651 77 c 0
 677 106 l 0
 691 123 699 132 705 132 c 0
 712 132 718 123 731 103 c 0
 785 17 l 0
 796 1 802 -8 810 -8 c 0
 818 -8 828 2 847 22 c 0
 867 44 l 0
 872 50 876 53 879 53 c 0
 885 53 895 36 895 28 c 0
 895 23 892 17 885 9 c 0
 789 -98 l 0
 771 -118 762 -130 754 -130 c 0
 746 -130 739 -119 724 -96 c 0
 676 -21 l 0
 664 -2 657 8 649 8 c 0
 646 8 643 7 640 5 c 0
 630 -2 626 -6 626 -25 c 0
 626 -200 l 0
 626 -210 625 -210 617 -210 c 0
 600 -210 l 0
 591 -210 590 -210 590 -200 c 0
 590 -90 l 0
 590 -60 581 -57 562 -78 c 0
 539 -104 l 0
 523 -122 516 -131 509 -131 c 0
 501 -131 495 -121 482 -100 c 0
 429 -18 l 0
 418 -1 412 8 404 8 c 0
 396 8 387 0 372 -17 c 0
 334 -58 273 -120 184 -120 c 0
 89 -120 23 -48 4 3 c 0
 2 8 0 12 0 15 c 0
 0 24 27 26 39 26 c 0
 47 26 52 24 55 16 c 0
 75 -35 113 -82 186 -82 c 0
 253 -82 299 -43 373 40 c 0
EndSplineSet
Validated: 1
EndChar

StartChar: f
Encoding: 102 102 78
Width: 1140
Flags: HW
LayerCount: 2
Fore
SplineSet
373 40 m 0
 433 107 l 0
 447 123 455 131 461 131 c 0
 469 131 475 120 489 98 c 0
 538 20 l 0
 549 3 557 -5 565 -5 c 0
 575 -5 585 4 602 23 c 0
 677 106 l 0
 691 123 699 132 705 132 c 0
 712 132 718 123 731 103 c 0
 785 17 l 0
 796 1 802 -7 810 -7 c 0
 814 -7 818 -5 822 -2 c 0
 833 7 835 10 835 29 c 0
 835 200 l 0
 835 210 836 210 844 210 c 0
 861 210 l 0
 870 210 871 210 871 200 c 0
 871 85 l 0
 871 67 880 59 896 77 c 0
 922 106 l 0
 937 122 944 132 950 132 c 0
 957 132 963 123 976 103 c 0
 1030 17 l 0
 1041 1 1047 -8 1055 -8 c 0
 1063 -8 1073 2 1092 22 c 0
 1112 44 l 0
 1117 50 1121 53 1124 53 c 0
 1130 53 1140 36 1140 28 c 0
 1140 23 1137 17 1130 9 c 0
 1034 -98 l 0
 1016 -118 1007 -130 999 -130 c 0
 991 -130 984 -119 969 -96 c 0
 921 -21 l 0
 909 -2 902 8 894 8 c 0
 891 8 888 7 884 4 c 0
 875 -2 871 -7 871 -25 c 0
 871 -200 l 0
 871 -210 870 -210 862 -210 c 0
 845 -210 l 0
 836 -210 835 -210 835 -200 c 0
 835 -90 l 0
 835 -60 826 -57 807 -78 c 0
 789 -98 l 0
 771 -118 762 -130 754 -130 c 0
 746 -130 739 -119 724 -96 c 0
 676 -21 l 0
 664 -2 657 8 649 8 c 0
 641 8 632 0 616 -18 c 0
 539 -104 l 0
 523 -122 516 -131 509 -131 c 0
 501 -131 495 -121 482 -100 c 0
 429 -18 l 0
 418 -1 412 8 404 8 c 0
 396 8 387 0 372 -17 c 0
 334 -58 273 -120 184 -120 c 0
 89 -120 23 -48 4 3 c 0
 2 8 0 12 0 15 c 0
 0 24 27 26 39 26 c 0
 47 26 52 24 55 16 c 0
 75 -35 113 -82 186 -82 c 0
 253 -82 299 -43 373 40 c 0
EndSplineSet
Validated: 1
EndChar

StartChar: g
Encoding: 103 103 79
Width: 1385
Flags: HW
LayerCount: 2
Fore
SplineSet
373 40 m 0
 433 107 l 0
 447 123 455 131 461 131 c 0
 469 131 475 120 489 98 c 0
 538 20 l 0
 549 3 557 -5 565 -5 c 0
 575 -5 585 4 602 23 c 0
 677 106 l 0
 691 123 699 132 705 132 c 0
 712 132 718 123 731 103 c 0
 785 17 l 0
 796 1 802 -8 810 -8 c 0
 818 -8 827 1 846 22 c 0
 923 107 l 0
 937 123 945 131 951 131 c 0
 959 131 965 120 979 98 c 0
 1028 20 l 0
 1039 3 1047 -5 1055 -5 c 0
 1059 -5 1063 -4 1067 -1 c 0
 1078 6 1080 10 1080 29 c 0
 1080 200 l 0
 1080 210 1081 210 1089 210 c 0
 1106 210 l 0
 1115 210 1116 210 1116 200 c 0
 1116 85 l 0
 1116 67 1125 59 1141 77 c 0
 1167 106 l 0
 1181 123 1189 132 1195 132 c 0
 1202 132 1208 123 1221 103 c 0
 1275 17 l 0
 1286 1 1292 -8 1300 -8 c 0
 1308 -8 1318 2 1337 22 c 0
 1357 44 l 0
 1362 50 1366 53 1369 53 c 0
 1375 53 1385 36 1385 28 c 0
 1385 23 1382 17 1375 9 c 0
 1279 -98 l 0
 1261 -118 1252 -130 1244 -130 c 0
 1236 -130 1229 -119 1214 -96 c 0
 1166 -21 l 0
 1154 -2 1147 8 1139 8 c 0
 1136 8 1133 7 1130 5 c 0
 1120 -2 1116 -6 1116 -25 c 0
 1116 -200 l 0
 1116 -210 1115 -210 1107 -210 c 0
 1090 -210 l 0
 1081 -210 1080 -210 1080 -200 c 0
 1080 -90 l 0
 1080 -60 1071 -57 1052 -78 c 0
 1029 -104 l 0
 1013 -122 1006 -131 999 -131 c 0
 991 -131 985 -121 972 -100 c 0
 919 -18 l 0
 908 -1 902 8 894 8 c 0
 886 8 876 -1 862 -17 c 0
 789 -98 l 0
 771 -118 762 -130 754 -130 c 0
 746 -130 739 -119 724 -96 c 0
 676 -21 l 0
 664 -2 657 8 649 8 c 0
 641 8 632 0 616 -18 c 0
 539 -104 l 0
 523 -122 516 -131 509 -131 c 0
 501 -131 495 -121 482 -100 c 0
 429 -18 l 0
 418 -1 412 8 404 8 c 0
 396 8 387 0 372 -17 c 0
 334 -58 273 -120 184 -120 c 0
 89 -120 23 -48 4 3 c 0
 2 8 0 12 0 15 c 0
 0 24 27 26 39 26 c 0
 47 26 52 24 55 16 c 0
 75 -35 113 -82 186 -82 c 0
 253 -82 299 -43 373 40 c 0
EndSplineSet
Validated: 1
EndChar

StartChar: h
Encoding: 104 104 80
Width: 1630
Flags: HW
LayerCount: 2
Fore
SplineSet
373 40 m 0
 433 107 l 0
 447 123 455 131 461 131 c 0
 469 131 475 120 489 98 c 0
 538 20 l 0
 549 3 557 -5 565 -5 c 0
 575 -5 585 4 602 23 c 0
 677 106 l 0
 691 123 699 132 705 132 c 0
 712 132 718 123 731 103 c 0
 785 17 l 0
 796 1 802 -8 810 -8 c 0
 818 -8 829 2 848 23 c 0
 922 106 l 0
 937 122 944 132 950 132 c 0
 957 132 963 123 976 103 c 0
 1030 17 l 0
 1041 1 1047 -8 1055 -8 c 0
 1063 -8 1072 1 1091 22 c 0
 1168 107 l 0
 1182 123 1190 131 1196 131 c 0
 1204 131 1210 120 1224 98 c 0
 1273 20 l 0
 1284 3 1292 -5 1300 -5 c 0
 1304 -5 1308 -4 1312 -1 c 0
 1323 6 1325 10 1325 29 c 0
 1325 200 l 0
 1325 210 1326 210 1334 210 c 0
 1351 210 l 0
 1360 210 1361 210 1361 200 c 0
 1361 85 l 0
 1361 67 1370 59 1386 77 c 0
 1412 106 l 0
 1426 123 1434 132 1440 132 c 0
 1447 132 1453 123 1466 103 c 0
 1520 17 l 0
 1531 1 1537 -8 1545 -8 c 0
 1553 -8 1563 2 1582 22 c 0
 1602 44 l 0
 1607 50 1611 53 1614 53 c 0
 1620 53 1630 36 1630 28 c 0
 1630 23 1627 17 1620 9 c 0
 1524 -98 l 0
 1506 -118 1497 -130 1489 -130 c 0
 1481 -130 1474 -119 1459 -96 c 0
 1411 -21 l 0
 1399 -2 1392 8 1384 8 c 0
 1381 8 1378 7 1375 5 c 0
 1365 -2 1361 -6 1361 -25 c 0
 1361 -200 l 0
 1361 -210 1360 -210 1352 -210 c 0
 1335 -210 l 0
 1326 -210 1325 -210 1325 -200 c 0
 1325 -90 l 0
 1325 -60 1316 -57 1297 -78 c 0
 1274 -104 l 0
 1258 -122 1251 -131 1244 -131 c 0
 1236 -131 1230 -121 1217 -100 c 0
 1164 -18 l 0
 1153 -1 1147 8 1139 8 c 0
 1131 8 1122 0 1107 -17 c 0
 1034 -98 l 0
 1016 -118 1007 -130 999 -130 c 0
 991 -130 984 -119 969 -96 c 0
 921 -21 l 0
 909 -2 902 8 894 8 c 0
 886 8 877 0 861 -18 c 0
 789 -98 l 0
 771 -118 762 -130 754 -130 c 0
 746 -130 739 -119 724 -96 c 0
 676 -21 l 0
 664 -2 657 8 649 8 c 0
 641 8 632 0 616 -18 c 0
 539 -104 l 0
 523 -122 516 -131 509 -131 c 0
 501 -131 495 -121 482 -100 c 0
 429 -18 l 0
 418 -1 412 8 404 8 c 0
 396 8 387 0 372 -17 c 0
 334 -58 273 -120 184 -120 c 0
 89 -120 23 -48 4 3 c 0
 2 8 0 12 0 15 c 0
 0 24 27 26 39 26 c 0
 47 26 52 24 55 16 c 0
 75 -35 113 -82 186 -82 c 0
 253 -82 299 -43 373 40 c 0
EndSplineSet
Validated: 1
EndChar

StartChar: i
Encoding: 105 105 81
Width: 638
Flags: HW
LayerCount: 2
Fore
SplineSet
90 -406 m 0
 90 -416 83 -442 76 -442 c 0
 72 -442 66 -435 60 -427 c 0
 19 -371 0 -297 0 -234 c 0
 0 -122 39 -46 104 27 c 0
 176 107 l 0
 191 123 198 131 204 131 c 0
 212 131 218 120 232 98 c 0
 281 20 l 0
 292 3 300 -5 308 -5 c 0
 318 -5 328 4 345 23 c 0
 420 106 l 0
 434 123 442 132 448 132 c 0
 455 132 461 123 474 103 c 0
 528 17 l 0
 539 1 545 -8 553 -8 c 0
 561 -8 571 2 590 22 c 0
 610 44 l 0
 615 50 619 53 622 53 c 0
 628 53 638 36 638 28 c 0
 638 23 635 17 628 9 c 0
 532 -98 l 0
 514 -118 505 -130 497 -130 c 0
 489 -130 482 -119 467 -96 c 0
 419 -21 l 0
 407 -2 400 8 392 8 c 0
 384 8 375 0 359 -18 c 0
 282 -104 l 0
 266 -122 259 -131 252 -131 c 0
 244 -131 238 -121 225 -100 c 0
 172 -18 l 0
 161 -1 155 8 147 8 c 0
 139 8 129 0 115 -16 c 0
 56 -85 36 -152 36 -235 c 0
 36 -290 51 -353 86 -397 c 0
 89 -401 90 -403 90 -406 c 0
EndSplineSet
Validated: 1
EndChar

StartChar: j
Encoding: 106 106 82
Width: 883
Flags: HW
LayerCount: 2
Fore
SplineSet
104 27 m 0
 176 107 l 0
 190 123 198 131 204 131 c 0
 212 131 218 120 232 98 c 0
 281 20 l 0
 292 3 300 -5 308 -5 c 0
 318 -5 328 4 345 23 c 0
 420 106 l 0
 434 123 442 132 448 132 c 0
 455 132 461 123 474 103 c 0
 528 17 l 0
 539 1 545 -8 553 -8 c 0
 561 -8 572 2 591 23 c 0
 665 106 l 0
 680 122 687 132 693 132 c 0
 700 132 706 123 719 103 c 0
 773 17 l 0
 784 1 790 -8 798 -8 c 0
 806 -8 816 2 835 22 c 0
 855 44 l 0
 860 50 864 53 867 53 c 0
 873 53 883 36 883 28 c 0
 883 23 880 17 873 9 c 0
 777 -98 l 0
 759 -118 750 -130 742 -130 c 0
 734 -130 727 -119 712 -96 c 0
 664 -21 l 0
 652 -2 645 8 637 8 c 0
 629 8 620 0 604 -18 c 0
 532 -98 l 0
 514 -118 505 -130 497 -130 c 0
 489 -130 482 -119 467 -96 c 0
 419 -21 l 0
 407 -2 400 8 392 8 c 0
 384 8 375 0 359 -18 c 0
 282 -104 l 0
 266 -122 259 -131 252 -131 c 0
 244 -131 238 -121 225 -100 c 0
 172 -18 l 0
 161 -1 155 8 147 8 c 0
 139 8 129 0 115 -16 c 0
 56 -85 36 -152 36 -235 c 0
 36 -290 51 -353 86 -397 c 0
 89 -401 90 -403 90 -406 c 0
 90 -416 83 -442 76 -442 c 0
 72 -442 66 -435 60 -427 c 0
 19 -371 0 -297 0 -234 c 0
 0 -122 39 -46 104 27 c 0
EndSplineSet
Validated: 1
EndChar

StartChar: k
Encoding: 107 107 83
Width: 1128
Flags: HW
LayerCount: 2
Fore
SplineSet
104 27 m 0
 176 107 l 0
 190 123 198 131 204 131 c 0
 212 131 218 120 232 98 c 0
 281 20 l 0
 292 3 300 -5 308 -5 c 0
 318 -5 328 4 345 23 c 0
 420 106 l 0
 434 123 442 132 448 132 c 0
 455 132 461 123 474 103 c 0
 528 17 l 0
 539 1 545 -8 553 -8 c 0
 561 -8 572 2 591 23 c 0
 665 106 l 0
 680 122 687 132 693 132 c 0
 700 132 706 123 719 103 c 0
 773 17 l 0
 784 1 790 -8 798 -8 c 0
 806 -8 817 1 836 23 c 0
 910 106 l 0
 925 122 932 132 938 132 c 0
 945 132 951 123 964 103 c 0
 1018 17 l 0
 1029 1 1035 -8 1043 -8 c 0
 1051 -8 1061 2 1080 22 c 0
 1100 44 l 0
 1105 50 1109 53 1112 53 c 0
 1118 53 1128 36 1128 28 c 0
 1128 23 1125 17 1118 9 c 0
 1022 -98 l 0
 1004 -118 995 -130 987 -130 c 0
 979 -130 972 -119 957 -96 c 0
 909 -21 l 0
 897 -2 890 8 882 8 c 0
 874 8 865 -1 849 -18 c 0
 777 -98 l 0
 759 -118 750 -130 742 -130 c 0
 734 -130 727 -119 712 -96 c 0
 664 -21 l 0
 652 -2 645 8 637 8 c 0
 629 8 620 0 604 -18 c 0
 532 -98 l 0
 514 -118 505 -130 497 -130 c 0
 489 -130 482 -119 467 -96 c 0
 419 -21 l 0
 407 -2 400 8 392 8 c 0
 384 8 375 0 359 -18 c 0
 282 -104 l 0
 266 -122 259 -131 252 -131 c 0
 244 -131 238 -121 225 -100 c 0
 172 -18 l 0
 161 -1 155 8 147 8 c 0
 139 8 129 0 115 -16 c 0
 56 -85 36 -152 36 -235 c 0
 36 -290 51 -353 86 -397 c 0
 89 -401 90 -403 90 -406 c 0
 90 -416 83 -442 76 -442 c 0
 72 -442 66 -435 60 -427 c 0
 19 -371 0 -297 0 -234 c 0
 0 -122 40.0303 -44.077 104 27 c 0
EndSplineSet
Validated: 1
EndChar

StartChar: l
Encoding: 108 108 84
Width: 1373
Flags: HW
LayerCount: 2
Fore
SplineSet
147 8 m 0
 139 8 129 0 115 -16 c 0
 56 -85 36 -152 36 -235 c 0
 36 -290 51 -353 86 -397 c 0
 89 -401 90 -403 90 -406 c 0
 90 -416 83 -442 76 -442 c 0
 72 -442 66 -435 60 -427 c 0
 19 -371 0 -297 0 -234 c 0
 0 -122 39 -46 104 27 c 0
 176 107 l 0
 190 123 198 131 204 131 c 0
 212 131 218 120 232 98 c 0
 281 20 l 0
 292 3 300 -5 308 -5 c 0
 318 -5 328 4 345 23 c 0
 420 106 l 0
 434 123 442 132 448 132 c 0
 455 132 461 123 474 103 c 0
 528 17 l 0
 539 1 545 -8 553 -8 c 0
 561 -8 572 2 591 23 c 0
 665 106 l 0
 680 122 687 132 693 132 c 0
 700 132 706 123 719 103 c 0
 773 17 l 0
 784 1 790 -8 798 -8 c 0
 806 -8 817 1 836 23 c 0
 910 106 l 0
 925 122 932 132 938 132 c 0
 945 132 951 123 964 103 c 0
 1018 17 l 0
 1029 1 1035 -8 1043 -8 c 0
 1051 -8 1062 1 1080 22 c 0
 1155 106 l 0
 1170 122 1177 132 1183 132 c 0
 1190 132 1196 123 1209 103 c 0
 1263 17 l 0
 1274 1 1280 -8 1288 -8 c 0
 1296 -8 1306 2 1325 22 c 0
 1345 44 l 0
 1350 50 1354 53 1357 53 c 0
 1363 53 1373 36 1373 28 c 0
 1373 23 1370 17 1363 9 c 0
 1267 -98 l 0
 1249 -118 1240 -130 1232 -130 c 0
 1224 -130 1217 -119 1202 -96 c 0
 1154 -21 l 0
 1142 -2 1135 8 1127 8 c 0
 1119 8 1109 -1 1094 -18 c 0
 1022 -98 l 0
 1004 -118 995 -130 987 -130 c 0
 979 -130 972 -119 957 -96 c 0
 909 -21 l 0
 897 -2 890 8 882 8 c 0
 874 8 865 -1 849 -18 c 0
 777 -98 l 0
 759 -118 750 -130 742 -130 c 0
 734 -130 727 -119 712 -96 c 0
 664 -21 l 0
 652 -2 645 8 637 8 c 0
 629 8 620 0 604 -18 c 0
 532 -98 l 0
 514 -118 505 -130 497 -130 c 0
 489 -130 482 -119 467 -96 c 0
 419 -21 l 0
 407 -2 400 8 392 8 c 0
 384 8 375 0 359 -18 c 0
 282 -104 l 0
 266 -122 259 -131 252 -131 c 0
 244 -131 238 -121 225 -100 c 0
 172 -18 l 0
 161 -1 155 8 147 8 c 0
EndSplineSet
Validated: 1
EndChar

StartChar: m
Encoding: 109 109 85
Width: 989
Flags: HW
LayerCount: 2
Fore
SplineSet
408 -26 m 0
 527 107 l 0
 541.176 122.844 549 131 555 131 c 0
 563 131 569 120 583 98 c 0
 632 20 l 0
 643 3 651 -5 659 -5 c 0
 669 -5 679 4 696 23 c 0
 771 106 l 0
 785 123 793 132 799 132 c 0
 806 132 812 123 825 103 c 0
 879 17 l 0
 890 1 896 -8 904 -8 c 0
 912 -8 922 2 941 22 c 0
 961 44 l 0
 966 50 970 53 973 53 c 0
 979 53 989 36 989 28 c 0
 989 23 986 17 979 9 c 0
 883 -98 l 0
 865 -118 856 -130 848 -130 c 0
 840 -130 833 -119 818 -96 c 0
 770 -21 l 0
 758 -2 751 8 743 8 c 0
 735 8 726 0 710 -18 c 0
 633 -104 l 0
 617 -122 610 -131 603 -131 c 0
 595 -131 589 -121 576 -100 c 0
 523 -18 l 0
 512 -1 506 8 498 8 c 0
 490 8 481 0 466 -17 c 0
 408 -82 l 0
 398 -92 394 -95 385 -86 c 0
 365 -65 l 0
 290 16 243 51 181 51 c 0
 127 51 84 20 55 -29 c 0
 51 -37 47 -39 39 -39 c 0
 27 -39 0 -37 0 -28 c 0
 0 -25 2 -21 4 -16 c 0
 27 32 99 89 179 89 c 0
 257 89 310 43 370 -17 c 0
 380 -27 l 0
 390 -37 397 -38 408 -26 c 0
EndSplineSet
Validated: 1
EndChar

StartChar: n
Encoding: 110 110 86
Width: 1234
Flags: HW
LayerCount: 2
Fore
SplineSet
408 -26 m 0
 527 107 l 0
 541 123 549 131 555 131 c 0
 563 131 569 120 583 98 c 0
 632 20 l 0
 643 3 651 -5 659 -5 c 0
 669 -5 679 4 696 23 c 0
 771 106 l 0
 785 123 793 132 799 132 c 0
 806 132 812 123 825 103 c 0
 879 17 l 0
 890 1 896 -8 904 -8 c 0
 912 -8 923 2 942 23 c 0
 1016 106 l 0
 1031 122 1038 132 1044 132 c 0
 1051 132 1057 123 1070 103 c 0
 1124 17 l 0
 1135 1 1141 -8 1149 -8 c 0
 1157 -8 1167 2 1186 22 c 0
 1206 44 l 0
 1211 50 1215 53 1218 53 c 0
 1224 53 1234 36 1234 28 c 0
 1234 23 1231 17 1224 9 c 0
 1128 -98 l 0
 1110 -118 1101 -130 1093 -130 c 0
 1085 -130 1078 -119 1063 -96 c 0
 1015 -21 l 0
 1003 -2 996 8 988 8 c 0
 980 8 971 0 955 -18 c 0
 883 -98 l 0
 865 -118 856 -130 848 -130 c 0
 840 -130 833 -119 818 -96 c 0
 770 -21 l 0
 758 -2 751 8 743 8 c 0
 735 8 726 0 710 -18 c 0
 633 -104 l 0
 617 -122 610 -131 603 -131 c 0
 595 -131 589 -121 576 -100 c 0
 523 -18 l 0
 512 -1 506 8 498 8 c 0
 490 8 481 0 466 -17 c 0
 408 -82 l 0
 399 -93 394 -95 385 -86 c 0
 365 -65 l 0
 290 16 243 51 181 51 c 0
 127 51 84 20 55 -29 c 0
 51 -37 47 -39 39 -39 c 0
 27 -39 0 -37 0 -28 c 0
 0 -25 2 -21 4 -16 c 0
 27 32 99 89 179 89 c 0
 257 89 310 43 370 -17 c 0
 380 -27 l 0
 390 -37 397 -38 408 -26 c 0
EndSplineSet
Validated: 1
EndChar

StartChar: o
Encoding: 111 111 87
Width: 1479
Flags: W
HStem: -130 21G<599 606.5 844 852 1089 1097 1334 1342> -130 21G<599 606.5 844 852 1089 1097 1334 1342> 51 38<114.48 251.947> 111 21G<552 559 796 802.5 1041 1047.5 1286 1292.5> 111 21G<552 559 796 802.5 1041 1047.5 1286 1292.5>
LayerCount: 2
Fore
SplineSet
408 -26 m 0xb0
 527 107 l 0
 541 123 549 131 555 131 c 0
 563 131 569 120 583 98 c 0
 632 20 l 0
 643 3 651 -5 659 -5 c 0
 669 -5 679 4 696 23 c 0
 771 106 l 0
 785 123 793 132 799 132 c 0
 806 132 812 123 825 103 c 0
 879 17 l 0
 890 1 896 -8 904 -8 c 0
 912 -8 923 2 942 23 c 0
 1016 106 l 0
 1031 122 1038 132 1044 132 c 0
 1051 132 1057 123 1070 103 c 0
 1124 17 l 0
 1135 1 1141 -8 1149 -8 c 0
 1157 -8 1168 1 1187 23 c 0
 1261 106 l 0
 1276 122 1283 132 1289 132 c 0
 1296 132 1302 123 1315 103 c 0
 1369 17 l 0
 1380 1 1386 -8 1394 -8 c 0
 1402 -8 1412 2 1431 22 c 0
 1451 44 l 0
 1456 50 1460 53 1463 53 c 0
 1469 53 1479 36 1479 28 c 0
 1479 23 1476 17 1469 9 c 0
 1373 -98 l 0
 1355 -118 1346 -130 1338 -130 c 0
 1330 -130 1323 -119 1308 -96 c 0
 1260 -21 l 0
 1248 -2 1241 8 1233 8 c 0
 1225 8 1216 -1 1200 -18 c 0
 1128 -98 l 0
 1110 -118 1101 -130 1093 -130 c 0
 1085 -130 1078 -119 1063 -96 c 0
 1015 -21 l 0
 1003 -2 996 8 988 8 c 0
 980 8 971 0 955 -18 c 0
 883 -98 l 0
 865 -118 856 -130 848 -130 c 0
 840 -130 833 -119 818 -96 c 0
 770 -21 l 0
 758 -2 751 8 743 8 c 0
 735 8 726 0 710 -18 c 0
 633 -104 l 0
 617 -122 610 -131 603 -131 c 0
 595 -131 589 -121 576 -100 c 0
 523 -18 l 0
 512 -1 506 8 498 8 c 0
 490 8 481 0 466 -17 c 0
 408 -82 l 0
 399 -93 394 -95 385 -86 c 0
 365 -65 l 0
 290 16 243 51 181 51 c 0
 127 51 84 20 55 -29 c 0
 51 -37 47 -39 39 -39 c 0
 27 -39 0 -37 0 -28 c 0
 0 -25 2 -21 4 -16 c 0
 27 32 99 89 179 89 c 0
 257 89 310 43 370 -17 c 0
 380 -27 l 0
 390 -37 397 -38 408 -26 c 0xb0
EndSplineSet
Validated: 1
EndChar

StartChar: p
Encoding: 112 112 88
Width: 1724
Flags: HW
LayerCount: 2
Fore
SplineSet
408 -26 m 0
 527 107 l 0
 541 123 549 131 555 131 c 0
 563 131 569 120 583 98 c 0
 632 20 l 0
 643 3 651 -5 659 -5 c 0
 669 -5 679 4 696 23 c 0
 771 106 l 0
 785 123 793 132 799 132 c 0
 806 132 812 123 825 103 c 0
 879 17 l 0
 890 1 896 -8 904 -8 c 0
 912 -8 923 2 942 23 c 0
 1016 106 l 0
 1031 122 1038 132 1044 132 c 0
 1051 132 1057 123 1070 103 c 0
 1124 17 l 0
 1135 1 1141 -8 1149 -8 c 0
 1157 -8 1168 1 1187 23 c 0
 1261 106 l 0
 1276 122 1283 132 1289 132 c 0
 1296 132 1302 123 1315 103 c 0
 1369 17 l 0
 1380 1 1386 -8 1394 -8 c 0
 1402 -8 1413 1 1431 22 c 0
 1506 106 l 0
 1521 122 1528 132 1534 132 c 0
 1541 132 1547 123 1560 103 c 0
 1614 17 l 0
 1625 1 1631 -8 1639 -8 c 0
 1647 -8 1657 2 1676 22 c 0
 1696 44 l 0
 1701 50 1705 53 1708 53 c 0
 1714 53 1724 36 1724 28 c 0
 1724 23 1721 17 1714 9 c 0
 1618 -98 l 0
 1600 -118 1591 -130 1583 -130 c 0
 1575 -130 1568 -119 1553 -96 c 0
 1505 -21 l 0
 1493 -2 1486 8 1478 8 c 0
 1470 8 1460 -1 1445 -18 c 0
 1373 -98 l 0
 1355 -118 1346 -130 1338 -130 c 0
 1330 -130 1323 -119 1308 -96 c 0
 1260 -21 l 0
 1248 -2 1241 8 1233 8 c 0
 1225 8 1216 -1 1200 -18 c 0
 1128 -98 l 0
 1110 -118 1101 -130 1093 -130 c 0
 1085 -130 1078 -119 1063 -96 c 0
 1015 -21 l 0
 1003 -2 996 8 988 8 c 0
 980 8 971 0 955 -18 c 0
 883 -98 l 0
 865 -118 856 -130 848 -130 c 0
 840 -130 833 -119 818 -96 c 0
 770 -21 l 0
 758 -2 751 8 743 8 c 0
 735 8 726 0 710 -18 c 0
 633 -104 l 0
 617 -122 610 -131 603 -131 c 0
 595 -131 589 -121 576 -100 c 0
 523 -18 l 0
 512 -1 506 8 498 8 c 0
 490 8 481 0 466 -17 c 0
 408 -82 l 0
 399 -93 394 -95 385 -86 c 0
 365 -65 l 0
 290 16 243 51 181 51 c 0
 127 51 84 20 55 -29 c 0
 51 -37 47 -39 39 -39 c 0
 27 -39 0 -37 0 -28 c 0
 0 -25 2 -21 4 -16 c 0
 27 32 99 89 179 89 c 0
 257 89 310 43 370 -17 c 0
 380 -27 l 0
 390 -37 397 -38 408 -26 c 0
EndSplineSet
Validated: 1
EndChar

StartChar: q
Encoding: 113 113 89
Width: 638
Flags: HW
LayerCount: 2
Fore
SplineSet
104 27 m 0
 176 107 l 0
 190 123 198 131 204 131 c 0
 212 131 218 120 232 98 c 0
 281 20 l 0
 292 3 300 -5 308 -5 c 0
 312 -5 316 -4 320 -1 c 0
 331 6 333 10 333 29 c 0
 333 200 l 0
 333 210 334 210 342 210 c 0
 359 210 l 0
 368 210 369 210 369 200 c 0
 369 85 l 0
 369 67 378 59 394 77 c 0
 420 106 l 0
 434 123 442 132 448 132 c 0
 455 132 461 123 474 103 c 0
 528 17 l 0
 539 1 545 -8 553 -8 c 0
 561 -8 571 2 590 22 c 0
 610 44 l 0
 615 50 619 53 622 53 c 0
 628 53 638 36 638 28 c 0
 638 23 635 17 628 9 c 0
 532 -98 l 0
 514 -118 505 -130 497 -130 c 0
 489 -130 482 -119 467 -96 c 0
 419 -21 l 0
 407 -2 400 8 392 8 c 0
 389 8 386 7 383 5 c 0
 373 -2 369 -6 369 -25 c 0
 369 -200 l 0
 369 -210 368 -210 360 -210 c 0
 343 -210 l 0
 334 -210 333 -210 333 -200 c 0
 333 -90 l 0
 333 -60 324 -57 305 -78 c 0
 282 -104 l 0
 266 -122 259 -131 252 -131 c 0
 244 -131 238 -121 225 -100 c 0
 172 -18 l 0
 161 -1 155 8 147 8 c 0
 139 8 129 0 115 -16 c 0
 56 -85 36 -152 36 -235 c 0
 36 -290 51 -353 86 -397 c 0
 89 -401 90 -403 90 -406 c 0
 90 -416 83 -442 76 -442 c 0
 72 -442 66 -435 60 -427 c 0
 19 -371 0 -297 0 -234 c 0
 0 -122 39 -46 104 27 c 0
EndSplineSet
Validated: 1
EndChar

StartChar: r
Encoding: 114 114 90
Width: 883
Flags: HW
LayerCount: 2
Fore
SplineSet
104 27 m 0
 176 107 l 0
 190 123 198 131 204 131 c 0
 212 131 218 120 232 98 c 0
 281 20 l 0
 292 3 300 -5 308 -5 c 0
 318 -5 328 4 345 23 c 0
 420 106 l 0
 434 123 442 132 448 132 c 0
 455 132 461 123 474 103 c 0
 528 17 l 0
 539 1 545 -7 553 -7 c 0
 557 -7 561 -5 565 -2 c 0
 576 7 578 10 578 29 c 0
 578 200 l 0
 578 210 579 210 587 210 c 0
 604 210 l 0
 613 210 614 210 614 200 c 0
 614 85 l 0
 614 67 623 59 639 77 c 0
 665 106 l 0
 680 122 687 132 693 132 c 0
 700 132 706 123 719 103 c 0
 773 17 l 0
 784 1 790 -8 798 -8 c 0
 806 -8 816 2 835 22 c 0
 855 44 l 0
 860 50 864 53 867 53 c 0
 873 53 883 36 883 28 c 0
 883 23 880 17 873 9 c 0
 777 -98 l 0
 759 -118 750 -130 742 -130 c 0
 734 -130 727 -119 712 -96 c 0
 664 -21 l 0
 652 -2 645 8 637 8 c 0
 634 8 631 7 627 4 c 0
 618 -2 614 -7 614 -25 c 0
 614 -200 l 0
 614 -210 613 -210 605 -210 c 0
 588 -210 l 0
 579 -210 578 -210 578 -200 c 0
 578 -90 l 0
 578 -60 569 -57 550 -78 c 0
 532 -98 l 0
 514 -118 505 -130 497 -130 c 0
 489 -130 482 -119 467 -96 c 0
 419 -21 l 0
 407 -2 400 8 392 8 c 0
 384 8 375 0 359 -18 c 0
 282 -104 l 0
 266 -122 259 -131 252 -131 c 0
 244 -131 238 -121 225 -100 c 0
 172 -18 l 0
 161 -1 155 8 147 8 c 0
 139 8 129 0 115 -16 c 0
 56 -85 36 -152 36 -235 c 0
 36 -290 51 -353 86 -397 c 0
 89 -401 90 -403 90 -406 c 0
 90 -416 83 -442 76 -442 c 0
 72 -442 66 -435 60 -427 c 0
 19 -371 0 -297 0 -234 c 0
 0 -122 39 -46 104 27 c 0
EndSplineSet
Validated: 1
EndChar

StartChar: s
Encoding: 115 115 91
Width: 1128
Flags: HW
LayerCount: 2
Fore
SplineSet
104 27 m 0
 176 107 l 0
 190 123 198 131 204 131 c 0
 212 131 218 120 232 98 c 0
 281 20 l 0
 292 3 300 -5 308 -5 c 0
 318 -5 328 4 345 23 c 0
 420 106 l 0
 434 123 442 132 448 132 c 0
 455 132 461 123 474 103 c 0
 528 17 l 0
 539 1 545 -8 553 -8 c 0
 561 -8 570 1 589 22 c 0
 666 107 l 0
 680 123 688 131 694 131 c 0
 702 131 708 120 722 98 c 0
 771 20 l 0
 782 3 790 -5 798 -5 c 0
 802 -5 806 -4 810 -1 c 0
 821 6 823 10 823 29 c 0
 823 200 l 0
 823 210 824 210 832 210 c 0
 849 210 l 0
 858 210 859 210 859 200 c 0
 859 85 l 0
 859 67 868 59 884 77 c 0
 910 106 l 0
 924 123 932 132 938 132 c 0
 945 132 951 123 964 103 c 0
 1018 17 l 0
 1029 1 1035 -8 1043 -8 c 0
 1051 -8 1061 2 1080 22 c 0
 1100 44 l 0
 1105 50 1109 53 1112 53 c 0
 1118 53 1128 36 1128 28 c 0
 1128 23 1125 17 1118 9 c 0
 1022 -98 l 0
 1004 -118 995 -130 987 -130 c 0
 979 -130 972 -119 957 -96 c 0
 909 -21 l 0
 897 -2 890 8 882 8 c 0
 879 8 876 7 873 5 c 0
 863 -2 859 -6 859 -25 c 0
 859 -200 l 0
 859 -210 858 -210 850 -210 c 0
 833 -210 l 0
 824 -210 823 -210 823 -200 c 0
 823 -90 l 0
 823 -60 814 -57 795 -78 c 0
 772 -104 l 0
 756 -122 749 -131 742 -131 c 0
 734 -131 728 -121 715 -100 c 0
 662 -18 l 0
 651 -1 645 8 637 8 c 0
 629 8 619 -1 605 -17 c 0
 532 -98 l 0
 514 -118 505 -130 497 -130 c 0
 489 -130 482 -119 467 -96 c 0
 419 -21 l 0
 407 -2 400 8 392 8 c 0
 384 8 375 0 359 -18 c 0
 282 -104 l 0
 266 -122 259 -131 252 -131 c 0
 244 -131 238 -121 225 -100 c 0
 172 -18 l 0
 161 -1 155 8 147 8 c 0
 139 8 129 0 115 -16 c 0
 56 -85 36 -152 36 -235 c 0
 36 -290 51 -353 86 -397 c 0
 89 -401 90 -403 90 -406 c 0
 90 -416 83 -442 76 -442 c 0
 72 -442 66 -435 60 -427 c 0
 19 -371 0 -297 0 -234 c 0
 0 -122 39 -46 104 27 c 0
EndSplineSet
Validated: 1
EndChar

StartChar: t
Encoding: 116 116 92
Width: 1373
Flags: HW
LayerCount: 2
Fore
SplineSet
104 27 m 0
 176 107 l 0
 190 123 198 131 204 131 c 0
 212 131 218 120 232 98 c 0
 281 20 l 0
 292 3 300 -5 308 -5 c 0
 318 -5 328 4 345 23 c 0
 420 106 l 0
 434 123 442 132 448 132 c 0
 455 132 461 123 474 103 c 0
 528 17 l 0
 539 1 545 -8 553 -8 c 0
 561 -8 572 2 591 23 c 0
 665 106 l 0
 680 122 687 132 693 132 c 0
 700 132 706 123 719 103 c 0
 773 17 l 0
 784 1 790 -8 798 -8 c 0
 806 -8 815 1 834 22 c 0
 911 107 l 0
 925 123 933 131 939 131 c 0
 947 131 953 120 967 98 c 0
 1016 20 l 0
 1027 3 1035 -5 1043 -5 c 0
 1047 -5 1051 -4 1055 -1 c 0
 1066 6 1068 10 1068 29 c 0
 1068 200 l 0
 1068 210 1069 210 1077 210 c 0
 1094 210 l 0
 1103 210 1104 210 1104 200 c 0
 1104 85 l 0
 1104 67 1113 59 1129 77 c 0
 1155 106 l 0
 1169 123 1177 132 1183 132 c 0
 1190 132 1196 123 1209 103 c 0
 1263 17 l 0
 1274 1 1280 -8 1288 -8 c 0
 1296 -8 1306 2 1325 22 c 0
 1345 44 l 0
 1350 50 1354 53 1357 53 c 0
 1363 53 1373 36 1373 28 c 0
 1373 23 1370 17 1363 9 c 0
 1267 -98 l 0
 1249 -118 1240 -130 1232 -130 c 0
 1224 -130 1217 -119 1202 -96 c 0
 1154 -21 l 0
 1142 -2 1135 8 1127 8 c 0
 1124 8 1121 7 1118 5 c 0
 1108 -2 1104 -6 1104 -25 c 0
 1104 -200 l 0
 1104 -210 1103 -210 1095 -210 c 0
 1078 -210 l 0
 1069 -210 1068 -210 1068 -200 c 0
 1068 -90 l 0
 1068 -60 1059 -57 1040 -78 c 0
 1017 -104 l 0
 1001 -122 994 -131 987 -131 c 0
 979 -131 973 -121 960 -100 c 0
 907 -18 l 0
 896 -1 890 8 882 8 c 0
 874 8 865 0 850 -17 c 0
 777 -98 l 0
 759 -118 750 -130 742 -130 c 0
 734 -130 727 -119 712 -96 c 0
 664 -21 l 0
 652 -2 645 8 637 8 c 0
 629 8 620 0 604 -18 c 0
 532 -98 l 0
 514 -118 505 -130 497 -130 c 0
 489 -130 482 -119 467 -96 c 0
 419 -21 l 0
 407 -2 400 8 392 8 c 0
 384 8 375 0 359 -18 c 0
 282 -104 l 0
 266 -122 259 -131 252 -131 c 0
 244 -131 238 -121 225 -100 c 0
 172 -18 l 0
 161 -1 155 8 147 8 c 0
 139 8 129 0 115 -16 c 0
 56 -85 36 -152 36 -235 c 0
 36 -290 51 -353 86 -397 c 0
 89 -401 90 -403 90 -406 c 0
 90 -416 83 -442 76 -442 c 0
 72 -442 66 -435 60 -427 c 0
 19 -371 0 -297 0 -234 c 0
 0 -122 39 -46 104 27 c 0
EndSplineSet
Validated: 1
EndChar

StartChar: u
Encoding: 117 117 93
Width: 989
Flags: HW
LayerCount: 2
Fore
SplineSet
408 -26 m 0
 527 107 l 0
 541 123 549 131 555 131 c 0
 563 131 569 120 583 98 c 0
 632 20 l 0
 643 3 651 -5 659 -5 c 0
 663 -5 667 -4 671 -1 c 0
 682 6 684 10 684 29 c 0
 684 200 l 0
 684 210 685 210 693 210 c 0
 710 210 l 0
 719 210 720 210 720 200 c 0
 720 85 l 0
 720 67 729 59 745 77 c 0
 771 106 l 0
 785 123 793 132 799 132 c 0
 806 132 812 123 825 103 c 0
 879 17 l 0
 890 1 896 -8 904 -8 c 0
 912 -8 922 2 941 22 c 0
 961 44 l 0
 966 50 970 53 973 53 c 0
 979 53 989 36 989 28 c 0
 989 23 986 17 979 9 c 0
 883 -98 l 0
 865 -118 856 -130 848 -130 c 0
 840 -130 833 -119 818 -96 c 0
 770 -21 l 0
 758 -2 751 8 743 8 c 0
 740 8 737 7 734 5 c 0
 724 -2 720 -6 720 -25 c 0
 720 -200 l 0
 720 -210 719 -210 711 -210 c 0
 694 -210 l 0
 685 -210 684 -210 684 -200 c 0
 684 -90 l 0
 684 -60 675 -57 656 -78 c 0
 633 -104 l 0
 617 -122 610 -131 603 -131 c 0
 595 -131 589 -121 576 -100 c 0
 523 -18 l 0
 512 -1 506 8 498 8 c 0
 490 8 481 0 466 -17 c 0
 408 -82 l 0
 399 -93 394 -95 385 -86 c 0
 365 -65 l 0
 290 16 243 51 181 51 c 0
 127 51 84 20 55 -29 c 0
 51 -37 47 -39 39 -39 c 0
 27 -39 0 -37 0 -28 c 0
 0 -25 2 -21 4 -16 c 0
 27 32 99 89 179 89 c 0
 257 89 310 43 370 -17 c 0
 380 -27 l 0
 390 -37 397 -38 408 -26 c 0
EndSplineSet
Validated: 1
EndChar

StartChar: v
Encoding: 118 118 94
Width: 1234
Flags: HW
LayerCount: 2
Fore
SplineSet
408 -26 m 0
 527 107 l 0
 541 123 549 131 555 131 c 0
 563 131 569 120 583 98 c 0
 632 20 l 0
 643 3 651 -5 659 -5 c 0
 669 -5 679 4 696 23 c 0
 771 106 l 0
 785 123 793 132 799 132 c 0
 806 132 812 123 825 103 c 0
 879 17 l 0
 890 1 896 -7 904 -7 c 0
 908 -7 912 -5 916 -2 c 0
 927 7 929 10 929 29 c 0
 929 200 l 0
 929 210 930 210 938 210 c 0
 955 210 l 0
 964 210 965 210 965 200 c 0
 965 85 l 0
 965 67 974 59 990 77 c 0
 1016 106 l 0
 1031 122 1038 132 1044 132 c 0
 1051 132 1057 123 1070 103 c 0
 1124 17 l 0
 1135 1 1141 -8 1149 -8 c 0
 1157 -8 1167 2 1186 22 c 0
 1206 44 l 0
 1211 50 1215 53 1218 53 c 0
 1224 53 1234 36 1234 28 c 0
 1234 23 1231 17 1224 9 c 0
 1128 -98 l 0
 1110 -118 1101 -130 1093 -130 c 0
 1085 -130 1078 -119 1063 -96 c 0
 1015 -21 l 0
 1003 -2 996 8 988 8 c 0
 985 8 982 7 978 4 c 0
 969 -2 965 -7 965 -25 c 0
 965 -200 l 0
 965 -210 964 -210 956 -210 c 0
 939 -210 l 0
 930 -210 929 -210 929 -200 c 0
 929 -90 l 0
 929 -60 920 -57 901 -78 c 0
 883 -98 l 0
 865 -118 856 -130 848 -130 c 0
 840 -130 833 -119 818 -96 c 0
 770 -21 l 0
 758 -2 751 8 743 8 c 0
 735 8 726 0 710 -18 c 0
 633 -104 l 0
 617 -122 610 -131 603 -131 c 0
 595 -131 589 -121 576 -100 c 0
 523 -18 l 0
 512 -1 506 8 498 8 c 0
 490 8 481 0 466 -17 c 0
 408 -82 l 0
 399 -93 394 -95 385 -86 c 0
 365 -65 l 0
 290 16 243 51 181 51 c 0
 127 51 84 20 55 -29 c 0
 51 -37 47 -39 39 -39 c 0
 27 -39 0 -37 0 -28 c 0
 0 -25 2 -21 4 -16 c 0
 27 32 99 89 179 89 c 0
 257 89 310 43 370 -17 c 0
 380 -27 l 0
 390 -37 397 -38 408 -26 c 0
EndSplineSet
Validated: 1
EndChar

StartChar: w
Encoding: 119 119 95
Width: 1479
Flags: HW
LayerCount: 2
Fore
SplineSet
408 -26 m 0
 527 107 l 0
 541 123 549 131 555 131 c 0
 563 131 569 120 583 98 c 0
 632 20 l 0
 643 3 651 -5 659 -5 c 0
 669 -5 679 4 696 23 c 0
 771 106 l 0
 785 123 793 132 799 132 c 0
 806 132 812 123 825 103 c 0
 879 17 l 0
 890 1 896 -8 904 -8 c 0
 912 -8 921 1 940 22 c 0
 1017 107 l 0
 1031 123 1039 131 1045 131 c 0
 1053 131 1059 120 1073 98 c 0
 1122 20 l 0
 1133 3 1141 -5 1149 -5 c 0
 1153 -5 1157 -4 1161 -1 c 0
 1172 6 1174 10 1174 29 c 0
 1174 200 l 0
 1174 210 1175 210 1183 210 c 0
 1200 210 l 0
 1209 210 1210 210 1210 200 c 0
 1210 85 l 0
 1210 67 1219 59 1235 77 c 0
 1261 106 l 0
 1275 123 1283 132 1289 132 c 0
 1296 132 1302 123 1315 103 c 0
 1369 17 l 0
 1380 1 1386 -8 1394 -8 c 0
 1402 -8 1412 2 1431 22 c 0
 1451 44 l 0
 1456 50 1460 53 1463 53 c 0
 1469 53 1479 36 1479 28 c 0
 1479 23 1476 17 1469 9 c 0
 1373 -98 l 0
 1355 -118 1346 -130 1338 -130 c 0
 1330 -130 1323 -119 1308 -96 c 0
 1260 -21 l 0
 1248 -2 1241 8 1233 8 c 0
 1230 8 1227 7 1224 5 c 0
 1214 -2 1210 -6 1210 -25 c 0
 1210 -200 l 0
 1210 -210 1209 -210 1201 -210 c 0
 1184 -210 l 0
 1175 -210 1174 -210 1174 -200 c 0
 1174 -90 l 0
 1174 -60 1165 -57 1146 -78 c 0
 1123 -104 l 0
 1107 -122 1100 -131 1093 -131 c 0
 1085 -131 1079 -121 1066 -100 c 0
 1013 -18 l 0
 1002 -1 996 8 988 8 c 0
 980 8 970 -1 956 -17 c 0
 883 -98 l 0
 865 -118 856 -130 848 -130 c 0
 840 -130 833 -119 818 -96 c 0
 770 -21 l 0
 758 -2 751 8 743 8 c 0
 735 8 726 0 710 -18 c 0
 633 -104 l 0
 617 -122 610 -131 603 -131 c 0
 595 -131 589 -121 576 -100 c 0
 523 -18 l 0
 512 -1 506 8 498 8 c 0
 490 8 481 0 466 -17 c 0
 408 -82 l 0
 399 -93 394 -95 385 -86 c 0
 365 -65 l 0
 290 16 243 51 181 51 c 0
 127 51 84 20 55 -29 c 0
 51 -37 47 -39 39 -39 c 0
 27 -39 0 -37 0 -28 c 0
 0 -25 2 -21 4 -16 c 0
 27 32 99 89 179 89 c 0
 257 89 310 43 370 -17 c 0
 380 -27 l 0
 390 -37 397 -38 408 -26 c 0
EndSplineSet
Validated: 1
EndChar

StartChar: x
Encoding: 120 120 96
Width: 1724
Flags: W
HStem: -130 21G<599 606.5 844 852 1089 1097 1334 1341.5 1579 1587> -130 21G<599 606.5 844 852 1089 1097 1334 1341.5 1579 1587> 51 38<114.48 251.947> 111 21G<552 559 796 802.5 1041 1047.5 1287 1294 1424 1449.5 1531 1537.5> 111 21G<552 559 796 802.5 1041 1047.5 1287 1294 1424 1449.5 1531 1537.5>
VStem: 1419 36<-210 -71.2559 -3.73306 7.05078 73.2497 210>
LayerCount: 2
Fore
SplineSet
408 -26 m 0xb4
 527 107 l 0
 541 123 549 131 555 131 c 0
 563 131 569 120 583 98 c 0
 632 20 l 0
 643 3 651 -5 659 -5 c 0
 669 -5 679 4 696 23 c 0
 771 106 l 0
 785 123 793 132 799 132 c 0
 806 132 812 123 825 103 c 0
 879 17 l 0
 890 1 896 -8 904 -8 c 0
 912 -8 923 2 942 23 c 0
 1016 106 l 0
 1031 122 1038 132 1044 132 c 0
 1051 132 1057 123 1070 103 c 0
 1124 17 l 0
 1135 1 1141 -8 1149 -8 c 0
 1157 -8 1166 1 1185 22 c 0
 1262 107 l 0
 1276 123 1284 131 1290 131 c 0
 1298 131 1304 120 1318 98 c 0
 1367 20 l 0
 1378 3 1386 -5 1394 -5 c 0
 1398 -5 1402 -4 1406 -1 c 0
 1417 6 1419 10 1419 29 c 0
 1419 200 l 0
 1419 210 1420 210 1428 210 c 0
 1445 210 l 0
 1454 210 1455 210 1455 200 c 0
 1455 85 l 0
 1455 67 1464 59 1480 77 c 0
 1506 106 l 0
 1520 123 1528 132 1534 132 c 0
 1541 132 1547 123 1560 103 c 0
 1614 17 l 0
 1625 1 1631 -8 1639 -8 c 0
 1647 -8 1657 2 1676 22 c 0
 1696 44 l 0
 1701 50 1705 53 1708 53 c 0
 1714 53 1724 36 1724 28 c 0
 1724 23 1721 17 1714 9 c 0
 1618 -98 l 0
 1600 -118 1591 -130 1583 -130 c 0
 1575 -130 1568 -119 1553 -96 c 0
 1505 -21 l 0
 1493 -2 1486 8 1478 8 c 0
 1475 8 1472 7 1469 5 c 0
 1459 -2 1455 -6 1455 -25 c 0
 1455 -200 l 0
 1455 -210 1454 -210 1446 -210 c 0
 1429 -210 l 0
 1420 -210 1419 -210 1419 -200 c 0
 1419 -90 l 0
 1419 -60 1410 -57 1391 -78 c 0
 1368 -104 l 0
 1352 -122 1345 -131 1338 -131 c 0
 1330 -131 1324 -121 1311 -100 c 0
 1258 -18 l 0
 1247 -1 1241 8 1233 8 c 0
 1225 8 1216 0 1201 -17 c 0
 1128 -98 l 0
 1110 -118 1101 -130 1093 -130 c 0
 1085 -130 1078 -119 1063 -96 c 0
 1015 -21 l 0
 1003 -2 996 8 988 8 c 0
 980 8 971 0 955 -18 c 0
 883 -98 l 0
 865 -118 856 -130 848 -130 c 0
 840 -130 833 -119 818 -96 c 0
 770 -21 l 0
 758 -2 751 8 743 8 c 0
 735 8 726 0 710 -18 c 0
 633 -104 l 0
 617 -122 610 -131 603 -131 c 0
 595 -131 589 -121 576 -100 c 0
 523 -18 l 0
 512 -1 506 8 498 8 c 0
 490 8 481 0 466 -17 c 0
 408 -82 l 0
 399 -93 394 -95 385 -86 c 0
 365 -65 l 0
 290 16 243 51 181 51 c 0
 127 51 84 20 55 -29 c 0
 51 -37 47 -39 39 -39 c 0
 27 -39 0 -37 0 -28 c 0
 0 -25 2 -21 4 -16 c 0
 27 32 99 89 179 89 c 0
 257 89 310 43 370 -17 c 0
 380 -27 l 0
 390 -37 397 -38 408 -26 c 0xb4
EndSplineSet
Validated: 1
EndChar

StartChar: y
Encoding: 121 121 97
Width: 638
Flags: HW
LayerCount: 2
Fore
SplineSet
548 406 m 0
 548 416 555 442 562 442 c 0
 566 442 572 435 578 427 c 0
 619 371 638 297 638 234 c 0
 638 122 599 46 534 -27 c 0
 462 -107 l 0
 447 -123 440 -131 434 -131 c 0
 426 -131 420 -120 406 -98 c 0
 357 -20 l 0
 346 -3 338 5 330 5 c 0
 320 5 310 -4 293 -23 c 0
 218 -106 l 0
 204 -123 196 -132 190 -132 c 0
 183 -132 177 -123 164 -103 c 0
 110 -17 l 0
 99 -1 93 8 85 8 c 0
 77 8 67 -2 48 -22 c 0
 28 -44 l 0
 23 -50 19 -53 16 -53 c 0
 10 -53 0 -36 0 -28 c 0
 0 -23 3 -17 10 -9 c 0
 106 98 l 0
 124 118 133 130 141 130 c 0
 149 130 156 119 171 96 c 0
 219 21 l 0
 231 2 238 -8 246 -8 c 0
 254 -8 263 0 279 18 c 0
 356 104 l 0
 372 122 379 131 386 131 c 0
 394 131 400 121 413 100 c 0
 466 18 l 0
 477 1 483 -8 491 -8 c 0
 499 -8 509 0 523 16 c 0
 582 85 602 152 602 235 c 0
 602 290 587 353 552 397 c 0
 549 401 548 403 548 406 c 0
EndSplineSet
Validated: 1
EndChar

StartChar: z
Encoding: 122 122 98
Width: 638
Flags: HW
LayerCount: 2
Fore
SplineSet
534 -27 m 0
 462 -107 l 0
 448 -123 440 -131 434 -131 c 0
 426 -131 420 -120 406 -98 c 0
 357 -20 l 0
 346 -3 338 5 330 5 c 0
 326 5 322 4 318 1 c 0
 307 -6 305 -10 305 -29 c 0
 305 -200 l 0
 305 -210 304 -210 296 -210 c 0
 279 -210 l 0
 270 -210 269 -210 269 -200 c 0
 269 -85 l 0
 269 -67 260 -59 244 -77 c 0
 218 -106 l 0
 204 -123 196 -132 190 -132 c 0
 183 -132 177 -123 164 -103 c 0
 110 -17 l 0
 99 -1 93 8 85 8 c 0
 77 8 67 -2 48 -22 c 0
 28 -44 l 0
 23 -50 19 -53 16 -53 c 0
 10 -53 0 -36 0 -28 c 0
 0 -23 3 -17 10 -9 c 0
 106 98 l 0
 124 118 133 130 141 130 c 0
 149 130 156 119 171 96 c 0
 219 21 l 0
 231 2 238 -8 246 -8 c 0
 249 -8 252 -7 255 -5 c 0
 265 2 269 6 269 25 c 0
 269 200 l 0
 269 210 270 210 278 210 c 0
 295 210 l 0
 304 210 305 210 305 200 c 0
 305 90 l 0
 305 60 314 57 333 78 c 0
 356 104 l 0
 372 122 379 131 386 131 c 0
 394 131 400 121 413 100 c 0
 466 18 l 0
 477 1 483 -8 491 -8 c 0
 499 -8 509 0 523 16 c 0
 582 85 602 152 602 235 c 0
 602 290 587 353 552 397 c 0
 549 401 548 403 548 406 c 0
 548 416 555 442 562 442 c 0
 566 442 572 435 578 427 c 0
 619 371 638 297 638 234 c 0
 638 122 599 46 534 -27 c 0
EndSplineSet
Validated: 1
EndChar

StartChar: exclamdown
Encoding: 161 161 99
Width: 886
Flags: HW
LayerCount: 2
Fore
SplineSet
492 -8 m 0
 500 -8 504 -4 514 6 c 0
 574 66 629 112 707 112 c 0
 787 112 859 55 882 7 c 0
 884 2 886 -2 886 -5 c 0
 886 -14 859 -16 847 -16 c 0
 839 -16 835 -14 831 -6 c 0
 802 43 759 74 705 74 c 0
 643 74 595 40 521 -42 c 0
 471 -98 l 0
 453 -118 444 -130 436 -130 c 0
 428 -130 421 -119 406 -96 c 0
 358 -21 l 0
 346 -2 339 8 331 8 c 0
 323 8 314 0 298 -18 c 0
 221 -104 l 0
 205 -122 198 -131 191 -131 c 0
 183 -131 177 -121 164 -100 c 0
 111 -18 l 0
 100 -1 94 8 86 8 c 0
 78 8 69 0 54 -17 c 0
 32 -42 l 0
 25 -49 21 -52 17 -52 c 0
 11 -52 0 -35 0 -28 c 0
 0 -23 3 -18 10 -11 c 0
 115 107 l 0
 129 123 137 131 143 131 c 0
 151 131 157 120 171 98 c 0
 220 20 l 0
 231 3 239 -5 247 -5 c 0
 257 -5 267 4 284 23 c 0
 359 106 l 0
 373 123 381 132 387 132 c 0
 394 132 400 123 413 103 c 0
 467 17 l 0
 478 1 484 -8 492 -8 c 0
EndSplineSet
Validated: 1
EndChar

StartChar: cent
Encoding: 162 162 100
Width: 83
Flags: HW
LayerCount: 2
Fore
SplineSet
0 0 m 0
 0 23 19 42 42 42 c 0
 65 42 83 23 83 0 c 0
 83 -23 65 -42 42 -42 c 0
 19 -42 0 -23 0 0 c 0
EndSplineSet
Validated: 1
EndChar

StartChar: sterling
Encoding: 163 163 101
Width: 312
Flags: HW
LayerCount: 2
Fore
SplineSet
0 0 m 0
 0 20 8 22 24 22 c 0
 290 22 l 0
 307 22 312 18 312 0 c 0
 312 -20 307 -22 290 -22 c 0
 23 -22 l 0
 6 -22 0 -20 0 0 c 0
EndSplineSet
Validated: 1
EndChar

StartChar: currency
Encoding: 164 164 102
Width: 312
Flags: HW
LayerCount: 2
Fore
SplineSet
0 138 m 0
 0 158 8 160 24 160 c 0
 290 160 l 0
 307 160 312 156 312 138 c 0
 312 118 307 116 290 116 c 0
 23 116 l 0
 6 116 0 118 0 138 c 0
114 0 m 0
 114 23 133 42 156 42 c 0
 179 42 197 23 197 0 c 0
 197 -23 179 -42 156 -42 c 0
 133 -42 114 -23 114 0 c 0
EndSplineSet
Validated: 1
EndChar

StartChar: yen
Encoding: 165 165 103
Width: 312
Flags: HW
LayerCount: 2
Fore
SplineSet
312 -138 m 0
 312 -158 304 -160 288 -160 c 0
 22 -160 l 0
 5 -160 0 -156 0 -138 c 0
 0 -118 5 -116 22 -116 c 0
 289 -116 l 0
 306 -116 312 -118 312 -138 c 0
198 0 m 0
 198 -23 179 -42 156 -42 c 0
 133 -42 115 -23 115 0 c 0
 115 23 133 42 156 42 c 0
 179 42 198 23 198 0 c 0
EndSplineSet
Validated: 1
EndChar

StartChar: brokenbar
Encoding: 166 166 104
Width: 483
Flags: HW
LayerCount: 2
Fore
SplineSet
0 108 m 0
 0 120 6 134 15 134 c 0
 17 134 20 133 24 132 c 0
 445 20 l 0
 473 12 483 6 483 0 c 0
 483 -6 475 -12 447 -19 c 0
 25 -132 l 0
 21 -133 18 -134 15 -134 c 0
 6 -134 0 -119 0 -107 c 0
 0 -101 3 -98 11 -96 c 0
 300 -18 l 0
 321 -12 326 -6 326 0 c 0
 326 6 319 13 297 19 c 0
 13 96 l 0
 4 98 0 101 0 108 c 0
EndSplineSet
Validated: 1
EndChar

StartChar: section
Encoding: 167 167 105
Width: 479
Flags: HW
LayerCount: 2
Fore
SplineSet
0 311 m 0
 0 323 6 337 15 337 c 0
 17 337 20 336 24 335 c 0
 445 223 l 0
 473 215 483 209 483 203 c 0
 483 197 475 191 447 184 c 0
 25 71 l 0
 21 70 18 69 15 69 c 0
 6 69 0 84 0 96 c 0
 0 102 3 105 11 107 c 0
 300 185 l 0
 321 191 326 197 326 203 c 0
 326 209 319 216 297 222 c 0
 13 299 l 0
 4 301 0 304 0 311 c 0
199 0 m 0
 199 23 218 42 241 42 c 0
 264 42 282 23 282 0 c 0
 282 -23 264 -42 241 -42 c 0
 218 -42 199 -23 199 0 c 0
EndSplineSet
Validated: 1
EndChar

StartChar: dieresis
Encoding: 168 168 106
Width: 479
Flags: HW
LayerCount: 2
Fore
SplineSet
0 -311 m 0
 0 -304 4 -301 13 -299 c 0
 297 -222 l 0
 319 -216 326 -209 326 -203 c 0
 326 -197 321 -191 300 -185 c 0
 11 -107 l 0
 3 -105 0 -102 0 -96 c 0
 0 -84 6 -69 15 -69 c 0
 18 -69 21 -70 25 -71 c 0
 447 -184 l 0
 475 -191 483 -197 483 -203 c 0
 483 -209 473 -215 445 -223 c 0
 24 -335 l 0
 20 -336 17 -337 15 -337 c 0
 6 -337 0 -323 0 -311 c 0
199 0 m 0
 199 23 218 42 241 42 c 0
 264 42 282 23 282 0 c 0
 282 -23 264 -42 241 -42 c 0
 218 -42 199 -23 199 0 c 0
EndSplineSet
Validated: 1
EndChar

StartChar: copyright
Encoding: 169 169 107
Width: 483
Flags: HW
LayerCount: 2
Fore
SplineSet
0 312 m 0
 0 324 6 338 15 338 c 0
 17 338 20 337 24 336 c 0
 445 224 l 0
 473 216 483 210 483 204 c 0
 483 198 475 192 447 185 c 0
 25 72 l 0
 21 71 18 70 15 70 c 0
 6 70 0 85 0 97 c 0
 0 103 3 106 11 108 c 0
 300 186 l 0
 321 192 326 198 326 204 c 0
 326 210 319 217 297 223 c 0
 13 300 l 0
 4 302 0 305 0 312 c 0
46 8 m 0
 46 18 49 22 64 22 c 0
 389 22 l 0
 406 22 408 20 408 6 c 0
 408 -6 l 0
 408 -18 406 -22 389 -22 c 0
 63 -22 l 0
 48 -22 46 -19 46 -9 c 0
 46 8 l 0
EndSplineSet
Validated: 1
EndChar

StartChar: ordfeminine
Encoding: 170 170 108
Width: 483
Flags: HW
LayerCount: 2
Fore
SplineSet
0 -312 m 0
 0 -305 4 -302 13 -300 c 0
 297 -223 l 0
 319 -217 326 -210 326 -204 c 0
 326 -198 321 -192 300 -186 c 0
 11 -108 l 0
 3 -106 0 -103 0 -97 c 0
 0 -85 6 -70 15 -70 c 0
 18 -70 21 -71 25 -72 c 0
 447 -185 l 0
 475 -192 483 -198 483 -204 c 0
 483 -210 473 -216 445 -224 c 0
 24 -336 l 0
 20 -337 17 -338 15 -338 c 0
 6 -338 0 -324 0 -312 c 0
46 -8 m 0
 46 9 l 0
 46 19 48 22 63 22 c 0
 389 22 l 0
 406 22 408 18 408 6 c 0
 408 -6 l 0
 408 -20 406 -22 389 -22 c 0
 64 -22 l 0
 49 -22 46 -18 46 -8 c 0
EndSplineSet
Validated: 1
EndChar

StartChar: guillemotleft
Encoding: 171 171 109
Width: 382
Flags: HW
LayerCount: 2
Fore
SplineSet
0 136 m 0
 0 146 8 156 15 156 c 0
 19 156 25 155 33 151 c 0
 346 25 l 0
 370 15 382 8 382 0 c 0
 382 -8 369 -15 345 -25 c 0
 34 -151 l 0
 26 -154 20 -156 15 -156 c 0
 7 -156 0 -145 0 -135 c 0
 0 -129 5 -126 17 -121 c 0
 255 -25 l 0
 278 -16 288 -8 288 0 c 0
 288 9 275 17 253 26 c 0
 19 120 l 0
 6 126 0 129 0 136 c 0
EndSplineSet
Validated: 1
EndChar

StartChar: logicalnot
Encoding: 172 172 110
Width: 382
Flags: HW
LayerCount: 2
Fore
SplineSet
0 341 m 0
 0 351 8 361 15 361 c 0
 19 361 25 360 33 356 c 0
 346 230 l 0
 370 220 382 213 382 205 c 0
 382 197 369 190 345 180 c 0
 34 54 l 0
 26 51 20 49 15 49 c 0
 7 49 0 60 0 70 c 0
 0 76 5 79 17 84 c 0
 255 180 l 0
 278 189 288 197 288 205 c 0
 288 214 275 222 253 231 c 0
 19 325 l 0
 6 331 0 334 0 341 c 0
158 0 m 0
 158 23 177 42 200 42 c 0
 223 42 241 23 241 0 c 0
 241 -23 223 -42 200 -42 c 0
 177 -42 158 -23 158 0 c 0
EndSplineSet
Validated: 1
EndChar

StartChar: uni00AD
Encoding: 173 173 111
Width: 382
Flags: HW
LayerCount: 2
Fore
SplineSet
0 -341 m 0
 0 -334 6 -331 19 -325 c 0
 253 -231 l 0
 275 -222 288 -214 288 -205 c 0
 288 -197 278 -189 255 -180 c 0
 17 -84 l 0
 5 -79 0 -76 0 -70 c 0
 0 -60 7 -49 15 -49 c 0
 20 -49 26 -51 34 -54 c 0
 345 -180 l 0
 369 -190 382 -197 382 -205 c 0
 382 -213 370 -220 346 -230 c 0
 33 -356 l 0
 25 -360 19 -361 15 -361 c 0
 8 -361 0 -351 0 -341 c 0
158 0 m 0
 158 23 177 42 200 42 c 0
 223 42 241 23 241 0 c 0
 241 -23 223 -42 200 -42 c 0
 177 -42 158 -23 158 0 c 0
EndSplineSet
Validated: 1
EndChar

StartChar: registered
Encoding: 174 174 112
Width: 382
Flags: HW
LayerCount: 2
Fore
SplineSet
8 0 m 0
 8 20 16 22 32 22 c 0
 348 22 l 0
 365 22 370 18 370 0 c 0
 370 -20 365 -22 348 -22 c 0
 31 -22 l 0
 14 -22 8 -20 8 0 c 0
0 357 m 0
 0 367 8 377 15 377 c 0
 19 377 25 376 33 372 c 0
 346 246 l 0
 370 236 382 229 382 221 c 0
 382 213 369 206 345 196 c 0
 34 70 l 0
 26 67 20 65 15 65 c 0
 7 65 0 76 0 86 c 0
 0 92 5 95 17 100 c 0
 255 196 l 0
 278 205 288 213 288 221 c 0
 288 230 275 238 253 247 c 0
 19 341 l 0
 6 347 0 350 0 357 c 0
EndSplineSet
Validated: 1
EndChar

StartChar: macron
Encoding: 175 175 113
Width: 382
Flags: HW
LayerCount: 2
Fore
SplineSet
8 0 m 0
 8 20 16 22 32 22 c 0
 348 22 l 0
 365 22 370 18 370 0 c 0
 370 -20 365 -22 348 -22 c 0
 31 -22 l 0
 14 -22 8 -20 8 0 c 0
0 -357 m 0
 0 -350 6 -347 19 -341 c 0
 253 -247 l 0
 275 -238 288 -230 288 -221 c 0
 288 -213 278 -205 255 -196 c 0
 17 -100 l 0
 5 -95 0 -92 0 -86 c 0
 0 -76 7 -65 15 -65 c 0
 20 -65 26 -67 34 -70 c 0
 345 -196 l 0
 369 -206 382 -213 382 -221 c 0
 382 -229 370 -236 346 -246 c 0
 33 -372 l 0
 25 -376 19 -377 15 -377 c 0
 8 -377 0 -367 0 -357 c 0
EndSplineSet
Validated: 1
EndChar

StartChar: uni00B2
Encoding: 178 178 114
Width: 349
Flags: HW
LayerCount: 2
Fore
SplineSet
0 -82 m 0
 0 -72 8 -62 15 -62 c 0
 19 -62 25 -63 33 -67 c 0
 313 -180 l 0
 337 -190 349 -197 349 -205 c 0
 349 -213 336 -221 312 -230 c 0
 34 -343 l 0
 26 -346 20 -348 15 -348 c 0
 7 -348 0 -337 0 -327 c 0
 0 -321 5 -318 17 -313 c 0
 222 -230 l 0
 245 -221 255 -213 255 -205 c 0
 255 -196 242 -188 220 -179 c 0
 19 -98 l 0
 6 -92 0 -89 0 -82 c 0
143 0 m 0
 143 23 162 42 185 42 c 0
 208 42 226 23 226 0 c 0
 226 -23 208 -42 185 -42 c 0
 162 -42 143 -23 143 0 c 0
EndSplineSet
Validated: 1
EndChar

StartChar: uni00B3
Encoding: 179 179 115
Width: 349
Flags: HW
LayerCount: 2
Fore
SplineSet
18 0 m 0
 18 20 26 22 42 22 c 0
 308 22 l 0
 325 22 330 18 330 0 c 0
 330 -20 325 -22 308 -22 c 0
 41 -22 l 0
 24 -22 18 -20 18 0 c 0
0 331 m 0
 0 341 8 351 15 351 c 0
 19 351 25 350 33 346 c 0
 313 233 l 0
 337 223 349 216 349 208 c 0
 349 200 336 192 312 183 c 0
 34 70 l 0
 26 67 20 65 15 65 c 0
 7 65 0 76 0 86 c 0
 0 92 5 95 17 100 c 0
 222 183 l 0
 245 192 255 200 255 208 c 0
 255 217 242 225 220 234 c 0
 19 315 l 0
 6 321 0 324 0 331 c 0
EndSplineSet
Validated: 1
EndChar

StartChar: acute
Encoding: 180 180 116
Width: 349
Flags: HW
LayerCount: 2
Fore
SplineSet
18 0 m 0
 18 20 26 22 42 22 c 0
 308 22 l 0
 325 22 330 18 330 0 c 0
 330 -20 325 -22 308 -22 c 0
 41 -22 l 0
 24 -22 18 -20 18 0 c 0
0 -85 m 0
 0 -75 8 -65 15 -65 c 0
 19 -65 25 -66 33 -70 c 0
 313 -183 l 0
 337 -193 349 -200 349 -208 c 0
 349 -216 336 -224 312 -233 c 0
 34 -346 l 0
 26 -349 20 -351 15 -351 c 0
 7 -351 0 -340 0 -330 c 0
 0 -324 5 -321 17 -316 c 0
 222 -233 l 0
 245 -224 255 -216 255 -208 c 0
 255 -199 242 -191 220 -182 c 0
 19 -101 l 0
 6 -95 0 -92 0 -85 c 0
EndSplineSet
Validated: 1
EndChar

StartChar: uni00B5
Encoding: 181 181 117
Width: 318
Flags: HW
LayerCount: 2
Fore
SplineSet
0 110 m 0
 0 120 8 130 15 130 c 0
 19 130 25 130 33 126 c 0
 282 25 l 0
 306 15 318 8 318 0 c 0
 318 -8 305 -15 281 -25 c 0
 34 -125 l 0
 26 -128 20 -130 15 -130 c 0
 7 -130 0 -119 0 -109 c 0
 0 -103 5 -100 17 -95 c 0
 191 -25 l 0
 214 -16 224 -8 224 0 c 0
 224 9 211 17 189 26 c 0
 19 94 l 0
 6 100 0 103 0 110 c 0
EndSplineSet
Validated: 1
EndChar

StartChar: paragraph
Encoding: 182 182 118
Width: 318
Flags: HW
LayerCount: 2
Fore
SplineSet
0 307 m 0
 0 317 8 327 15 327 c 0
 19 327 25 327 33 323 c 0
 282 222 l 0
 306 212 318 205 318 197 c 0
 318 189 305 182 281 172 c 0
 34 72 l 0
 26 69 20 67 15 67 c 0
 7 67 0 78 0 88 c 0
 0 94 4.93945 97.1484 17 102 c 0
 191 172 l 0
 214 181 224 189 224 197 c 0
 224 206 211 214 189 223 c 0
 19 291 l 0
 6 297 0 300 0 307 c 0
124 0 m 0
 124 23 143 42 166 42 c 0
 189 42 207 23 207 0 c 0
 207 -23 189 -42 166 -42 c 0
 143 -42 124 -23 124 0 c 0
EndSplineSet
Validated: 1
EndChar

StartChar: periodcentered
Encoding: 183 183 119
Width: 318
Flags: HW
LayerCount: 2
Fore
SplineSet
0 -307 m 0
 0 -300 6 -297 19 -291 c 0
 189 -223 l 0
 211 -214 224 -206 224 -197 c 0
 224 -189 214 -181 191 -172 c 0
 17 -102 l 0
 5 -97 0 -94 0 -88 c 0
 0 -78 7 -67 15 -67 c 0
 20 -67 26 -69 34 -72 c 0
 281 -172 l 0
 305 -182 318 -189 318 -197 c 0
 318 -205 306 -212 282 -222 c 0
 33 -323 l 0
 25 -327 19 -327 15 -327 c 0
 8 -327 0 -317 0 -307 c 0
124 0 m 0
 124 23 143 42 166 42 c 0
 189 42 207 23 207 0 c 0
 207 -23 189 -42 166 -42 c 0
 143 -42 124 -23 124 0 c 0
EndSplineSet
Validated: 1
EndChar

StartChar: cedilla
Encoding: 184 184 120
Width: 318
Flags: HW
LayerCount: 2
Fore
SplineSet
0 305 m 0
 0 315 8 325 15 325 c 0
 19 325 25 325 33 321 c 0
 282 220 l 0
 306 210 318 203 318 195 c 0
 318 187 305 180 281 170 c 0
 34 70 l 0
 26 67 20 65 15 65 c 0
 7 65 0 76 0 86 c 0
 0 92 5 95 17 100 c 0
 191 170 l 0
 214 179 224 187 224 195 c 0
 224 204 211 212 189 221 c 0
 19 289 l 0
 6 295 0 298 0 305 c 0
3 0 m 0
 3 20 11 22 27 22 c 0
 293 22 l 0
 310 22 315 18 315 0 c 0
 315 -20 310 -22 293 -22 c 0
 26 -22 l 0
 9 -22 3 -20 3 0 c 0
EndSplineSet
Validated: 1
EndChar

StartChar: uni00B9
Encoding: 185 185 121
Width: 318
Flags: HW
LayerCount: 2
Fore
SplineSet
0 -305 m 0
 0 -298 6 -295 19 -289 c 0
 189 -221 l 0
 211 -212 224 -204 224 -195 c 0
 224 -187 214 -179 191 -170 c 0
 17 -100 l 0
 5 -95 0 -92 0 -86 c 0
 0 -76 7 -65 15 -65 c 0
 20 -65 26 -67 34 -70 c 0
 281 -170 l 0
 305 -180 318 -187 318 -195 c 0
 318 -203 306 -210 282 -220 c 0
 33 -321 l 0
 25 -325 19 -325 15 -325 c 0
 8 -325 0 -315 0 -305 c 0
3 0 m 0
 3 20 9 22 26 22 c 0
 293 22 l 0
 310 22 315 20 315 0 c 0
 315 -18 310 -22 293 -22 c 0
 27 -22 l 0
 11 -22 3 -20 3 0 c 0
EndSplineSet
Validated: 1
EndChar

StartChar: ordmasculine
Encoding: 186 186 122
Width: 343
Flags: HW
LayerCount: 2
Fore
SplineSet
23 -14 m 0
 14 -14 0 -6 0 0 c 0
 0 2 1 5 3 9 c 0
 152 328 l 0
 161 346 167 355 173 355 c 0
 179 355 185 347 193 329 c 0
 339 16 l 0
 342 10 343 5 343 1 c 0
 343 -6 338 -9 327 -9 c 0
 266 -9 l 0
 247 -9 242 -3 234 14 c 0
 160 173 l 0
 152 190 145 198 139 198 c 0
 132 198 125 189 118 174 c 0
 35 -3 l 0
 31 -11 28 -14 23 -14 c 0
EndSplineSet
Validated: 1
EndChar

StartChar: guillemotright
Encoding: 187 187 123
Width: 343
Flags: HW
LayerCount: 2
Fore
SplineSet
320 14 m 0
 329 14 343 6 343 0 c 0
 343 -2 342 -5 340 -9 c 0
 191 -328 l 0
 182 -346 176 -355 170 -355 c 0
 164 -355 158 -347 150 -329 c 0
 4 -16 l 0
 1 -10 0 -5 0 -1 c 0
 0 6 5 9 16 9 c 0
 77 9 l 0
 96 9 101 3 109 -14 c 0
 183 -173 l 0
 191 -190 198 -198 204 -198 c 0
 211 -198 218 -189 225 -174 c 0
 308 3 l 0
 312 11 315 14 320 14 c 0
EndSplineSet
Validated: 1
EndChar

StartChar: onequarter
Encoding: 188 188 124
Width: 343
Flags: HW
LayerCount: 2
Fore
SplineSet
23 48 m 0
 14 48 0 56 0 62 c 0
 0 64 1 67 3 71 c 0
 152 390 l 0
 161 408 167 417 173 417 c 0
 179 417 185 409 193 391 c 0
 339 78 l 0
 342 72 343 67 343 63 c 0
 343 56 338 53 327 53 c 0
 266 53 l 0
 247 53 242 59 234 76 c 0
 160 235 l 0
 152 252 145 260 139 260 c 0
 132 260 125 251 118 236 c 0
 35 59 l 0
 31 51 28 48 23 48 c 0
97 0 m 0
 97 23 116 42 139 42 c 0
 162 42 180 23 180 0 c 0
 180 -23 162 -42 139 -42 c 0
 116 -42 97 -23 97 0 c 0
EndSplineSet
Validated: 1
EndChar

StartChar: onehalf
Encoding: 189 189 125
Width: 343
Flags: HW
LayerCount: 2
Fore
SplineSet
320 -48 m 0
 329 -48 343 -56 343 -62 c 0
 343 -64 342 -67 340 -71 c 0
 191 -390 l 0
 182 -408 176 -417 170 -417 c 0
 164 -417 158 -409 150 -391 c 0
 4 -78 l 0
 1 -72 0 -67 0 -63 c 0
 0 -56 5 -53 16 -53 c 0
 77 -53 l 0
 96 -53 101 -59 109 -76 c 0
 183 -235 l 0
 191 -252 198 -260 204 -260 c 0
 211 -260 218 -251 225 -236 c 0
 308 -59 l 0
 312 -51 315 -48 320 -48 c 0
246 0 m 0
 246 -23 227 -42 204 -42 c 0
 181 -42 163 -23 163 0 c 0
 163 23 181 42 204 42 c 0
 227 42 246 23 246 0 c 0
EndSplineSet
Validated: 1
EndChar

StartChar: threequarters
Encoding: 190 190 126
Width: 343
Flags: HW
LayerCount: 2
Fore
SplineSet
23 76 m 0
 14 76 0 84 0 90 c 0
 0 92 1 95 3 99 c 0
 152 418 l 0
 161 436 167 445 173 445 c 0
 179 445 185 437 193 419 c 0
 339 106 l 0
 342 100 343 95 343 91 c 0
 343 84 338 81 327 81 c 0
 266 81 l 0
 247 81 242 87 234 104 c 0
 160 263 l 0
 152 280 145 288 139 288 c 0
 132 288 125 279 118 264 c 0
 35 87 l 0
 31 79 28 76 23 76 c 0
3 0 m 0
 3 20 15 22 27 22 c 0
 318 22 l 0
 329 22 340 18 340 0 c 0
 340 -20 331 -22 318 -22 c 0
 26 -22 l 0
 9 -22 3 -20 3 0 c 0
EndSplineSet
Validated: 1
EndChar

StartChar: questiondown
Encoding: 191 191 127
Width: 343
Flags: HW
LayerCount: 2
Fore
SplineSet
320 -76 m 0
 329 -76 343 -84 343 -90 c 0
 343 -92 342 -95 340 -99 c 0
 191 -418 l 0
 182 -436 176 -445 170 -445 c 0
 164 -445 158 -437 150 -419 c 0
 4 -106 l 0
 1 -100 0 -95 0 -91 c 0
 0 -84 5 -81 16 -81 c 0
 77 -81 l 0
 96 -81 101 -87 109 -104 c 0
 183 -263 l 0
 191 -280 198 -288 204 -288 c 0
 211 -288 218 -279 225 -264 c 0
 308 -87 l 0
 312 -79 315 -76 320 -76 c 0
340 0 m 0
 340 -20 328 -22 316 -22 c 0
 25 -22 l 0
 14 -22 3 -18 3 0 c 0
 3 20 12 22 25 22 c 0
 317 22 l 0
 334 22 340 20 340 0 c 0
EndSplineSet
Validated: 1
EndChar

StartChar: Agrave
Encoding: 192 192 128
Width: 343
Flags: HW
LayerCount: 2
Fore
SplineSet
3 420 m 0
 3 440 15 442 27 442 c 0
 318 442 l 0
 329 442 340 438 340 420 c 0
 340 400 331 398 318 398 c 0
 26 398 l 0
 9 398 3 400 3 420 c 0
23 -14 m 0
 14 -14 0 -6 0 0 c 0
 0 2 1 5 3 9 c 0
 152 328 l 0
 161 346 167 355 173 355 c 0
 179 355 185 347 193 329 c 0
 339 16 l 0
 342 10 343 5 343 1 c 0
 343 -6 338 -9 327 -9 c 0
 266 -9 l 0
 247 -9 242 -3 234 14 c 0
 160 173 l 0
 152 190 145 198 139 198 c 0
 132 198 125 189 118 174 c 0
 35 -3 l 0
 31 -11 28 -14 23 -14 c 0
EndSplineSet
Validated: 1
EndChar

StartChar: Aacute
Encoding: 193 193 129
Width: 343
Flags: HW
LayerCount: 2
Fore
SplineSet
340 -420 m 0
 340 -440 328 -442 316 -442 c 0
 25 -442 l 0
 14 -442 3 -438 3 -420 c 0
 3 -400 12 -398 25 -398 c 0
 317 -398 l 0
 334 -398 340 -400 340 -420 c 0
320 14 m 0
 329 14 343 6 343 0 c 0
 343 -2 342 -5 340 -9 c 0
 191 -328 l 0
 182 -346 176 -355 170 -355 c 0
 164 -355 158 -347 150 -329 c 0
 4 -16 l 0
 1 -10 0 -5 0 -1 c 0
 0 6 5 9 16 9 c 0
 77 9 l 0
 96 9 101 3 109 -14 c 0
 183 -173 l 0
 191 -190 198 -198 204 -198 c 0
 211 -198 218 -189 225 -174 c 0
 308 3 l 0
 312 11 315 14 320 14 c 0
EndSplineSet
Validated: 1
EndChar

StartChar: Acircumflex
Encoding: 194 194 130
Width: 138
Flags: HW
LayerCount: 2
Fore
SplineSet
55 9 m 0
 28 110 l 0
 11 172 0 198 0 209 c 0
 0 216 5 217 10 217 c 0
 23 217 46 211 69 211 c 0
 93 211 115 217 129 217 c 0
 133 217 138 216 138 210 c 0
 138 200 128 175 112 115 c 0
 83 9 l 0
 79 -6 74 -14 69 -14 c 0
 64 -14 59 -6 55 9 c 0
EndSplineSet
Validated: 1
EndChar

StartChar: Atilde
Encoding: 195 195 131
Width: 138
Flags: HW
LayerCount: 2
Fore
SplineSet
83 -9 m 0
 110 -110 l 0
 127 -172 138 -198 138 -209 c 0
 138 -216 133 -217 128 -217 c 0
 115 -217 92 -211 69 -211 c 0
 45 -211 23 -217 9 -217 c 0
 5 -217 0 -216 0 -210 c 0
 0 -200 10 -175 26 -115 c 0
 55 -9 l 0
 59 6 64 14 69 14 c 0
 74 14 79 6 83 -9 c 0
EndSplineSet
Validated: 1
EndChar

StartChar: Adieresis
Encoding: 196 196 132
Width: 110
Flags: HW
LayerCount: 2
Fore
SplineSet
55 239 m 0
 79 239 110 225 110 171 c 0
 110 149 99 97 70 7 c 0
 63 -14 60 -21 54 -21 c 0
 48 -21 44 -14 36 9 c 0
 6 98 0 146 0 171 c 0
 0 224 33 239 55 239 c 0
EndSplineSet
Validated: 1
EndChar

StartChar: Aring
Encoding: 197 197 133
Width: 114
Flags: HW
LayerCount: 2
Fore
SplineSet
58 -244 m 0
 37.5791 -244 0 -238.598 0 -176 c 0
 0 -154 13 -97 42 -7 c 0
 49 14 52 16 58 16 c 0
 64 16 68 14 76 -9 c 0
 106 -98 114 -151 114 -176 c 0
 114 -237.502 78.5 -244 58 -244 c 0
EndSplineSet
Validated: 1
EndChar

StartChar: AE
Encoding: 198 198 134
Width: 64
Flags: HW
LayerCount: 2
Fore
SplineSet
32 -21 m 0
 27 -21 20 -15 17 9 c 0
 7 96 0 154 0 201 c 0
 0 228 12 244 32 244 c 0
 52 244 64 228 64 201 c 0
 64 154 56 97 46 9 c 0
 43 -15 37 -21 32 -21 c 0
EndSplineSet
Validated: 1
EndChar

StartChar: Ccedilla
Encoding: 199 199 135
Width: 64
Flags: HW
LayerCount: 2
Fore
SplineSet
32 21 m 0
 37 21 44 15 47 -9 c 0
 57 -96 64 -154 64 -201 c 0
 64 -228 52 -244 32 -244 c 0
 12 -244 0 -228 0 -201 c 0
 0 -154 8 -97 18 -9 c 0
 21 15 27 21 32 21 c 0
EndSplineSet
Validated: 1
EndChar

StartChar: Egrave
Encoding: 200 200 136
Width: 31
Flags: HW
LayerCount: 2
Fore
SplineSet
16 114 m 0
 29 114 31 111 31 99 c 0
 31 -98 l 0
 31 -112 28 -114 16 -114 c 0
 2 -114 0 -111 0 -98 c 0
 0 100 l 0
 0 111 2 114 16 114 c 0
EndSplineSet
Validated: 1
EndChar

StartChar: Eacute
Encoding: 201 201 137
Width: 230
Flags: HW
LayerCount: 2
Fore
SplineSet
0 115 m 0
 16 115 16 112 16 100 c 0
 16 -102 l 0
 16 -114 14 -115 0 -115 c 0
 -15 -115 -16 -113 -16 -100 c 0
 -16 103 l 0
 -16 114 -14 115 0 115 c 0
-16 115 m 0
 16 115 l 0
 16 -115 l 0
 -16 -115 l 0
 -16 115 l 0
EndSplineSet
Validated: 5
EndChar

StartChar: Ecircumflex
Encoding: 202 202 138
Width: 202
Flags: HW
LayerCount: 2
Fore
SplineSet
181 452 m 0
 194 452 202 447 202 438 c 0
 202 434 201 428 200 420 c 0
 128 54 l 0
 120 11 110 -8 101 -8 c 0
 91 -8 82 13 74 50 c 0
 2 423 l 0
 1 429 0 435 0 439 c 0
 0 447 8 452 20 452 c 0
 31 452 32 445 36 428 c 0
 82 186 l 0
 88 159 94 145 101 145 c 0
 108 145 114 158 119 185 c 0
 167 429 l 0
 170 445 171 452 181 452 c 0
EndSplineSet
Validated: 1
EndChar

StartChar: Edieresis
Encoding: 203 203 139
Width: 349
Flags: HW
LayerCount: 2
Fore
SplineSet
332 -10 m 0
 314 -10 311 -8 311 3 c 0
 311 37 313 96 313 126 c 0
 313 180 l 0
 313 210 310 218 277 218 c 0
 69 218 l 0
 46 218 36 212 36 186 c 0
 36 123 l 0
 36 83 38 44 38 4 c 0
 38 -10 33 -10 17 -10 c 0
 3 -10 0 -7 0 10 c 0
 0 86 1 140 1 204 c 0
 1 308 0 262 0 317 c 0
 0 342 8 343 26 343 c 0
 334 343 l 0
 349 343 349 335 349 326 c 0
 349 279 348 244 348 205 c 0
 348 143 349 83 349 5 c 0
 349 -4 351 -10 332 -10 c 0
EndSplineSet
Validated: 1
EndChar

StartChar: Igrave
Encoding: 204 204 140
Width: 706
Flags: HW
LayerCount: 2
Fore
SplineSet
353 280 m 0
 184 280 57 185 31 -23 c 0
 29 -42 21 -52 14 -52 c 0
 7 -52 0 -43 0 -25 c 0
 0 -22 1 -19 1 -15 c 0
 22 177 150 368 353 368 c 0
 555 368 684 177 705 -15 c 0
 705 -19 706 -22 706 -25 c 0
 706 -43 699 -52 692 -52 c 0
 685 -52 677 -42 675 -23 c 0
 649 185 521 280 353 280 c 0
303 19 m 0
 303 47 325 69 353 69 c 0
 381 69 403 47 403 19 c 0
 403 -9 381 -31 353 -31 c 0
 325 -31 303 -9 303 19 c 0
EndSplineSet
Validated: 1
EndChar

StartChar: Iacute
Encoding: 205 205 141
Width: 706
Flags: HW
LayerCount: 2
Fore
SplineSet
353 -280 m 0
 522 -280 649 -185 675 23 c 0
 677 42 685 52 692 52 c 0
 699 52 706 43 706 25 c 0
 706 22 705 19 705 15 c 0
 684 -177 556 -368 353 -368 c 0
 151 -368 22 -177 1 15 c 0
 1 19 0 22 0 25 c 0
 0 43 7 52 14 52 c 0
 21 52 29 42 31 23 c 0
 57 -185 185 -280 353 -280 c 0
403 -19 m 0
 403 -47 381 -69 353 -69 c 0
 325 -69 303 -47 303 -19 c 0
 303 9 325 31 353 31 c 0
 381 31 403 9 403 -19 c 0
EndSplineSet
Validated: 1
EndChar

StartChar: Icircumflex
Encoding: 206 206 142
Width: 1059
Flags: HW
LayerCount: 2
Fore
SplineSet
530 370 m 0
 276 370 85 215 32 -34 c 0
 26 -63 22 -78 12 -78 c 0
 2 -78 0 -64 0 -38 c 0
 0 -33 1 -28 2 -22 c 0
 26 206 225 482 530 482 c 0
 832 482 1033 206 1058 -22 c 0
 1058 -28 1059 -33 1059 -38 c 0
 1059 -64 1058 -78 1047 -78 c 0
 1036 -78 1033 -63 1028 -34 c 0
 974 215 782 370 530 370 c 0
462 28 m 0
 462 66 492 96 530 96 c 0
 567 96 597 66 597 28 c 0
 597 -9 567 -39 530 -39 c 0
 492 -39 462 -9 462 28 c 0
EndSplineSet
Validated: 1
EndChar

StartChar: Idieresis
Encoding: 207 207 143
Width: 1059
Flags: HW
LayerCount: 2
Fore
SplineSet
529 -370 m 0
 783 -370 974 -215 1027 34 c 0
 1033 63 1037 78 1047 78 c 0
 1057 78 1059 64 1059 38 c 0
 1059 33 1058 28 1057 22 c 0
 1033 -206 834 -482 529 -482 c 0
 227 -482 26 -206 1 22 c 0
 1 28 0 33 0 38 c 0
 0 64 1 78 12 78 c 0
 23 78 26 63 31 34 c 0
 85 -215 277 -370 529 -370 c 0
597 -28 m 0
 597 -66 567 -96 529 -96 c 0
 492 -96 462 -66 462 -28 c 0
 462 9 492 39 529 39 c 0
 567 39 597 9 597 -28 c 0
EndSplineSet
Validated: 1
EndChar

StartChar: Eth
Encoding: 208 208 144
Width: 530
Flags: HW
LayerCount: 2
Fore
SplineSet
265 210 m 0
 138 210 47 139 27 -17 c 0
 25 -31 18 -39 12 -39 c 0
 5 -39 0 -33 0 -19 c 0
 0 -17 1 -14 1 -11 c 0
 17 138 113 286 265 286 c 0
 417 286 513 138 529 -11 c 0
 529 -14 530 -17 530 -19 c 0
 530 -33 524 -39 517 -39 c 0
 510 -39 504 -31 502 -17 c 0
 482 139 391 210 265 210 c 0
216 14 m 0
 216 42 237 64 265 64 c 0
 293 64 314 42 314 14 c 0
 314 -14 293 -34 265 -34 c 0
 237 -34 216 -14 216 14 c 0
EndSplineSet
Validated: 1
EndChar

StartChar: Ntilde
Encoding: 209 209 145
Width: 530
Flags: HW
LayerCount: 2
Fore
SplineSet
265 -210 m 0
 392 -210 483 -139 503 17 c 0
 505 31 512 39 518 39 c 0
 525 39 530 33 530 19 c 0
 530 17 529 14 529 11 c 0
 513 -138 417 -286 265 -286 c 0
 113 -286 17 -138 1 11 c 0
 1 14 0 17 0 19 c 0
 0 33 6 39 13 39 c 0
 20 39 26 31 28 17 c 0
 48 -139 139 -210 265 -210 c 0
314 -14 m 0
 314 -42 293 -64 265 -64 c 0
 237 -64 216 -42 216 -14 c 0
 216 14 237 34 265 34 c 0
 293 34 314 14 314 -14 c 0
EndSplineSet
Validated: 1
EndChar

StartChar: Ograve
Encoding: 210 210 146
Width: 493
Flags: HW
LayerCount: 2
Fore
SplineSet
196 19 m 0
 196 47 218 69 246 69 c 0
 274 69 296 47 296 19 c 0
 296 -9 274 -31 246 -31 c 0
 218 -31 196 -9 196 19 c 0
476 -52 m 0
 462 -52 458 -51 458 -38 c 0
 458 24 459 40 459 90 c 0
 459 177 l 0
 459 209 448 211 433 211 c 0
 73 211 l 0
 35 211 34 204 34 173 c 0
 34 78 l 0
 34 8 35 -17 35 -37 c 0
 35 -50 34 -52 16 -52 c 0
 0 -52 0 -49 0 -35 c 0
 0 32 2 68 2 135 c 0
 2 239 0 218 0 273 c 0
 0 298 7 299 25 299 c 0
 470 299 l 0
 490 299 493 284 493 269 c 0
 493 218 491 239 491 137 c 0
 491 70 493 29 493 -40 c 0
 493 -48 488 -52 476 -52 c 0
EndSplineSet
Validated: 1
EndChar

StartChar: Oacute
Encoding: 211 211 147
Width: 493
Flags: HW
LayerCount: 2
Fore
SplineSet
297 -19 m 0
 297 -47 275 -69 247 -69 c 0
 219 -69 197 -47 197 -19 c 0
 197 9 219 31 247 31 c 0
 275 31 297 9 297 -19 c 0
17 52 m 0
 31 52 35 51 35 38 c 0
 35 -24 34 -40 34 -90 c 0
 34 -177 l 0
 34 -209 45 -211 60 -211 c 0
 420 -211 l 0
 458 -211 459 -204 459 -173 c 0
 459 -78 l 0
 459 -8 458 17 458 37 c 0
 458 50 459 52 477 52 c 0
 493 52 493 49 493 35 c 0
 493 -32 491 -68 491 -135 c 0
 491 -239 493 -218 493 -273 c 0
 493 -298 486 -299 468 -299 c 0
 23 -299 l 0
 3 -299 0 -284 0 -269 c 0
 0 -218 2 -239 2 -137 c 0
 2 -70 0 -29 0 40 c 0
 0 48 5 52 17 52 c 0
EndSplineSet
Validated: 1
EndChar

StartChar: Ocircumflex
Encoding: 212 212 148
Width: 633
Flags: HW
LayerCount: 2
Fore
SplineSet
266 19 m 0
 266 47 288 69 316 69 c 0
 344 69 366 47 366 19 c 0
 366 -9 344 -31 316 -31 c 0
 288 -31 266 -9 266 19 c 0
616 -52 m 0
 602 -52 598 -51 598 -38 c 0
 598 24 599 44 599 96 c 0
 599 197 l 0
 599 229 588 231 573 231 c 0
 73 231 l 0
 35 231 34 224 34 193 c 0
 34 84 l 0
 34 14 35 -17 35 -37 c 0
 35 -50 34 -52 16 -52 c 0
 0 -52 0 -49 0 -35 c 0
 0 32 2 74 2 141 c 0
 2 245 0 238 0 293 c 0
 0 318 7 319 25 319 c 0
 610 319 l 0
 630 319 633 304 633 289 c 0
 633 232 631 245 631 143 c 0
 631 76 633 31 633 -40 c 0
 633 -49 628 -52 616 -52 c 0
EndSplineSet
Validated: 1
EndChar

StartChar: Otilde
Encoding: 213 213 149
Width: 633
Flags: HW
LayerCount: 2
Fore
SplineSet
367 -19 m 0
 367 -47 345 -69 317 -69 c 0
 289 -69 267 -47 267 -19 c 0
 267 9 289 31 317 31 c 0
 345 31 367 9 367 -19 c 0
17 52 m 0
 31 52 35 51 35 38 c 0
 35 -24 34 -44 34 -96 c 0
 34 -197 l 0
 34 -229 45 -231 60 -231 c 0
 560 -231 l 0
 598 -231 599 -224 599 -193 c 0
 599 -84 l 0
 599 -14 598 17 598 37 c 0
 598 50 599 52 617 52 c 0
 633 52 633 49 633 35 c 0
 633 -32 631 -74 631 -141 c 0
 631 -245 633 -238 633 -293 c 0
 633 -318 626 -319 608 -319 c 0
 23 -319 l 0
 3 -319 0 -304 0 -289 c 0
 0 -232 2 -245 2 -143 c 0
 2 -76 0 -31 0 40 c 0
 0 49 5 52 17 52 c 0
EndSplineSet
Validated: 1
EndChar

StartChar: Odieresis
Encoding: 214 214 150
Width: 804
Flags: HW
LayerCount: 2
Fore
SplineSet
351 19 m 0
 351 47 373 69 401 69 c 0
 429 69 451 47 451 19 c 0
 451 -9 429 -31 401 -31 c 0
 373 -31 351 -9 351 19 c 0
13 -20 m 0
 6 -20 0 -14 0 -7 c 0
 0 2 6 7 17 17 c 0
 347 330 l 0
 373 354 387 366 401 366 c 0
 415 366 429 354 455 330 c 0
 788 15 l 0
 798 5 804 1 804 -7 c 0
 804 -15 798 -20 791 -20 c 0
 785 -20 778 -18 769 -11 c 0
 458 210 l 0
 425 234 418 239 402 239 c 0
 388 239 382 237 350 214 c 0
 35 -11 l 0
 26 -18 19 -20 13 -20 c 0
EndSplineSet
Validated: 1
EndChar

StartChar: Oslash
Encoding: 216 216 151
Width: 633
Flags: HW
LayerCount: 2
Fore
SplineSet
616 -52 m 0
 602 -52 598 -51 598 -38 c 0
 598 24 599 44 599 96 c 0
 599 197 l 0
 599 229 588 231 573 231 c 0
 73 231 l 0
 35 231 34 224 34 193 c 0
 34 84 l 0
 34 14 35 -17 35 -37 c 0
 35 -50 34 -52 16 -52 c 0
 0 -52 0 -49 0 -35 c 0
 0 32 2 74 2 141 c 0
 2 245 0 238 0 293 c 0
 0 318 7 319 25 319 c 0
 610 319 l 0
 630 319 633 304 633 289 c 0
 633 232 631 245 631 143 c 0
 631 76 633 31 633 -40 c 0
 633 -49 628 -52 616 -52 c 0
338 -31 m 0
 295 -31 l 0
 281 -31 281 -25 281 -12 c 0
 281 13 282 16 282 46 c 0
 282 68 281 82 281 102 c 0
 281 110 280 120 300 120 c 0
 338 120 l 0
 346 120 353 112 353 103 c 0
 353 81 352 69 352 47 c 0
 352 22 353 4 353 -16 c 0
 353 -30 345 -31 338 -31 c 0
EndSplineSet
Validated: 1
EndChar

StartChar: Ugrave
Encoding: 217 217 152
Width: 633
Flags: HW
LayerCount: 2
Fore
SplineSet
17 52 m 0
 31 52 35 51 35 38 c 0
 35 -24 34 -44 34 -96 c 0
 34 -197 l 0
 34 -229 45 -231 60 -231 c 0
 560 -231 l 0
 598 -231 599 -224 599 -193 c 0
 599 -84 l 0
 599 -14 598 17 598 37 c 0
 598 50 599 52 617 52 c 0
 633 52 633 49 633 35 c 0
 633 -32 631 -74 631 -141 c 0
 631 -245 633 -238 633 -293 c 0
 633 -318 626 -319 608 -319 c 0
 23 -319 l 0
 3 -319 0 -304 0 -289 c 0
 0 -232 2 -245 2 -143 c 0
 2 -76 0 -31 0 40 c 0
 0 49 5 52 17 52 c 0
295 31 m 0
 338 31 l 0
 352 31 352 25 352 12 c 0
 352 -13 351 -16 351 -46 c 0
 351 -68 352 -82 352 -102 c 0
 352 -110 353 -120 333 -120 c 0
 295 -120 l 0
 287 -120 280 -112 280 -103 c 0
 280 -81 281 -69 281 -47 c 0
 281 -22 280 -4 280 16 c 0
 280 30 288 31 295 31 c 0
EndSplineSet
Validated: 1
EndChar

StartChar: Uacute
Encoding: 218 218 153
Width: 633
Flags: HW
LayerCount: 2
Fore
SplineSet
616 -52 m 0
 602 -52 598 -51 598 -38 c 0
 598 24 599 44 599 96 c 0
 599 197 l 0
 599 229 588 231 573 231 c 0
 384 231 l 0
 352 231 352 230 352 158 c 0
 352 133 353 115 353 95 c 0
 353 81 345 80 338 80 c 0
 295 80 l 0
 281 80 281 86 281 99 c 0
 281 124 282 127 282 157 c 0
 282 230 280 231 256 231 c 0
 73 231 l 0
 35 231 34 224 34 193 c 0
 34 84 l 0
 34 14 35 -17 35 -37 c 0
 35 -50 34 -52 16 -52 c 0
 0 -52 0 -49 0 -35 c 0
 0 32 2 74 2 141 c 0
 2 245 0 238 0 293 c 0
 0 318 7 319 25 319 c 0
 610 319 l 0
 630 319 633 304 633 289 c 0
 633 232 631 245 631 143 c 0
 631 76 633 31 633 -40 c 0
 633 -49 628 -52 616 -52 c 0
EndSplineSet
Validated: 1
EndChar

StartChar: Ucircumflex
Encoding: 219 219 154
Width: 633
Flags: HW
LayerCount: 2
Fore
SplineSet
17 52 m 0
 31 52 35 51 35 38 c 0
 35 -24 34 -44 34 -96 c 0
 34 -197 l 0
 34 -229 45 -231 60 -231 c 0
 249 -231 l 0
 281 -231 281 -230 281 -158 c 0
 281 -133 280 -115 280 -95 c 0
 280 -81 288 -80 295 -80 c 0
 338 -80 l 0
 352 -80 352 -86 352 -99 c 0
 352 -124 351 -127 351 -157 c 0
 351 -230 353 -231 377 -231 c 0
 560 -231 l 0
 598 -231 599 -224 599 -193 c 0
 599 -84 l 0
 599 -14 598 17 598 37 c 0
 598 50 599 52 617 52 c 0
 633 52 633 49 633 35 c 0
 633 -32 631 -74 631 -141 c 0
 631 -245 633 -238 633 -293 c 0
 633 -318 626 -319 608 -319 c 0
 23 -319 l 0
 3 -319 0 -304 0 -289 c 0
 0 -232 2 -245 2 -143 c 0
 2 -76 0 -31 0 40 c 0
 0 49 5 52 17 52 c 0
EndSplineSet
Validated: 1
EndChar

StartChar: Udieresis
Encoding: 220 220 155
Width: 706
Flags: HW
LayerCount: 2
Fore
SplineSet
403 19 m 0
 403 47 425 69 453 69 c 0
 481 69 503 47 503 19 c 0
 503 -9 481 -31 453 -31 c 0
 425 -31 403 -9 403 19 c 0
353 280 m 0
 184 280 57 185 31 -23 c 0
 29 -42 21 -52 14 -52 c 0
 7 -52 0 -43 0 -25 c 0
 0 -22 1 -19 1 -15 c 0
 22 177 150 368 353 368 c 0
 555 368 684 177 705 -15 c 0
 705 -19 706 -22 706 -25 c 0
 706 -43 699 -52 692 -52 c 0
 685 -52 677 -42 675 -23 c 0
 649 185 521 280 353 280 c 0
203 19 m 0
 203 47 225 69 253 69 c 0
 281 69 303 47 303 19 c 0
 303 -9 281 -31 253 -31 c 0
 225 -31 203 -9 203 19 c 0
EndSplineSet
Validated: 1
EndChar

StartChar: Yacute
Encoding: 221 221 156
Width: 706
Flags: HW
LayerCount: 2
Fore
SplineSet
303 -19 m 0
 303 -47 281 -69 253 -69 c 0
 225 -69 203 -47 203 -19 c 0
 203 9 225 31 253 31 c 0
 281 31 303 9 303 -19 c 0
353 -280 m 0
 522 -280 649 -185 675 23 c 0
 677 42 685 52 692 52 c 0
 699 52 706 43 706 25 c 0
 706 22 705 19 705 15 c 0
 684 -177 556 -368 353 -368 c 0
 151 -368 22 -177 1 15 c 0
 1 19 0 22 0 25 c 0
 0 43 7 52 14 52 c 0
 21 52 29 42 31 23 c 0
 57 -185 185 -280 353 -280 c 0
503 -19 m 0
 503 -47 481 -69 453 -69 c 0
 425 -69 403 -47 403 -19 c 0
 403 9 425 31 453 31 c 0
 481 31 503 9 503 -19 c 0
EndSplineSet
Validated: 1
EndChar

StartChar: Thorn
Encoding: 222 222 157
Width: 633
Flags: HW
LayerCount: 2
Fore
SplineSet
616 -52 m 0
 602 -52 598 -51 598 -38 c 0
 598 24 599 44 599 96 c 0
 599 197 l 0
 599 229 588 231 573 231 c 0
 73 231 l 0
 35 231 34 224 34 193 c 0
 34 84 l 0
 34 14 35 -17 35 -37 c 0
 35 -50 34 -52 16 -52 c 0
 0 -52 0 -49 0 -35 c 0
 0 32 2 74 2 141 c 0
 2 245 0 238 0 293 c 0
 0 318 7 319 25 319 c 0
 610 319 l 0
 630 319 633 304 633 289 c 0
 633 232 631 245 631 143 c 0
 631 76 633 31 633 -40 c 0
 633 -49 628 -52 616 -52 c 0
166 19 m 0
 166 47 188 69 216 69 c 0
 244 69 266 47 266 19 c 0
 266 -9 244 -31 216 -31 c 0
 188 -31 166 -9 166 19 c 0
366 19 m 0
 366 47 388 69 416 69 c 0
 444 69 466 47 466 19 c 0
 466 -9 444 -31 416 -31 c 0
 388 -31 366 -9 366 19 c 0
EndSplineSet
Validated: 1
EndChar

StartChar: germandbls
Encoding: 223 223 158
Width: 633
Flags: HW
LayerCount: 2
Fore
SplineSet
17 52 m 0
 31 52 35 51 35 38 c 0
 35 -24 34 -44 34 -96 c 0
 34 -197 l 0
 34 -229 45 -231 60 -231 c 0
 560 -231 l 0
 598 -231 599 -224 599 -193 c 0
 599 -84 l 0
 599 -14 598 17 598 37 c 0
 598 50 599 52 617 52 c 0
 633 52 633 49 633 35 c 0
 633 -32 631 -74 631 -141 c 0
 631 -245 633 -238 633 -293 c 0
 633 -318 626 -319 608 -319 c 0
 23 -319 l 0
 3 -319 0 -304 0 -289 c 0
 0 -232 2 -245 2 -143 c 0
 2 -76 0 -31 0 40 c 0
 0 49 5 52 17 52 c 0
467 -19 m 0
 467 -47 445 -69 417 -69 c 0
 389 -69 367 -47 367 -19 c 0
 367 9 389 31 417 31 c 0
 445 31 467 9 467 -19 c 0
267 -19 m 0
 267 -47 245 -69 217 -69 c 0
 189 -69 167 -47 167 -19 c 0
 167 9 189 31 217 31 c 0
 245 31 267 9 267 -19 c 0
EndSplineSet
Validated: 1
EndChar

StartChar: agrave
Encoding: 224 224 159
Width: 804
Flags: HW
LayerCount: 2
Fore
SplineSet
441 19 m 0
 441 47 463 69 491 69 c 0
 519 69 541 47 541 19 c 0
 541 -9 519 -31 491 -31 c 0
 463 -31 441 -9 441 19 c 0
261 19 m 0
 261 47 283 69 311 69 c 0
 339 69 361 47 361 19 c 0
 361 -9 339 -31 311 -31 c 0
 283 -31 261 -9 261 19 c 0
13 -20 m 0
 6 -20 0 -14 0 -7 c 0
 0 2 6 7 17 17 c 0
 347 330 l 0
 373 354 387 366 401 366 c 0
 415 366 429 354 455 330 c 0
 788 15 l 0
 798 5 804 1 804 -7 c 0
 804 -15 798 -20 791 -20 c 0
 785 -20 778 -18 769 -11 c 0
 458 210 l 0
 425 234 418 239 402 239 c 0
 388 239 382 237 350 214 c 0
 35 -11 l 0
 26 -18 19 -20 13 -20 c 0
EndSplineSet
Validated: 1
EndChar

StartChar: aacute
Encoding: 225 225 160
Width: 804
Flags: HW
LayerCount: 2
Fore
SplineSet
363 -19 m 0
 363 -47 341 -69 313 -69 c 0
 285 -69 263 -47 263 -19 c 0
 263 9 285 31 313 31 c 0
 341 31 363 9 363 -19 c 0
543 -19 m 0
 543 -47 521 -69 493 -69 c 0
 465 -69 443 -47 443 -19 c 0
 443 9 465 31 493 31 c 0
 521 31 543 9 543 -19 c 0
791 20 m 0
 798 20 804 14 804 7 c 0
 804 -2 798 -7 787 -17 c 0
 457 -330 l 0
 431 -354 417 -366 403 -366 c 0
 389 -366 375 -354 349 -330 c 0
 16 -15 l 0
 6 -5 0 -1 0 7 c 0
 0 15 6 20 13 20 c 0
 19 20 26 18 35 11 c 0
 346 -210 l 0
 379 -234 386 -239 402 -239 c 0
 416 -239 422 -237 454 -214 c 0
 769 11 l 0
 778 18 785 20 791 20 c 0
EndSplineSet
Validated: 1
EndChar

StartChar: acircumflex
Encoding: 226 226 161
Width: 1664
Flags: HW
LayerCount: 2
Fore
SplineSet
904 128 m 0
 904 141 911 147 920 147 c 0
 923 147 926 147 930 146 c 0
 1590 30 l 0
 1640 21 1664 11 1664 0 c 0
 1664 -10 1637 -22 1582 -31 c 0
 933 -145 l 0
 929 -146 925 -147 922 -147 c 0
 914 -147 908 -140 908 -127 c 0
 908 -116 916 -114 927 -112 c 0
 1360 -36 l 0
 1425 -25 1457 -12 1457 0 c 0
 1457 12 1426 24 1364 35 c 0
 924 113 l 0
 912 115 904 118 904 128 c 0
760 -128 m 0
 760 -141 753 -147 744 -147 c 0
 741 -147 738 -147 734 -146 c 0
 74 -30 l 0
 24 -21 0 -11 0 0 c 0
 0 10 27 22 82 31 c 0
 731 145 l 0
 735 146 739 147 742 147 c 0
 750 147 756 140 756 127 c 0
 756 116 748 114 737 112 c 0
 304 36 l 0
 239 25 207 12 207 0 c 0
 207 -12 238 -24 300 -35 c 0
 740 -113 l 0
 752 -115 760 -118 760 -128 c 0
EndSplineSet
Validated: 1
EndChar

StartChar: atilde
Encoding: 227 227 162
Width: 1329
Flags: HW
LayerCount: 2
Fore
SplineSet
735 117 m 0
 735 130 742 137 750 137 c 0
 752 137 755 137 758 136 c 0
 1272 27 l 0
 1311 19 1329 10 1329 1 c 0
 1329 -9 1307 -19 1265 -28 c 0
 758 -136 l 0
 754 -137 751 -137 748 -137 c 0
 741 -137 736 -132 736 -120 c 0
 736 -109 742 -105 752 -103 c 0
 1098 -29 l 0
 1146 -19 1169 -9 1169 0 c 0
 1169 10 1147 19 1104 28 c 0
 751 103 l 0
 742 105 735 108 735 117 c 0
595 -117 m 0
 595 -130 588 -137 580 -137 c 0
 577 -137 575 -137 572 -136 c 0
 58 -27 l 0
 19 -19 0 -10 0 -1 c 0
 0 9 22 19 64 28 c 0
 572 136 l 0
 576 137 579 137 582 137 c 0
 590 137 594 130 594 119 c 0
 594 109 587 105 577 103 c 0
 231 29 l 0
 183 19 160 9 160 0 c 0
 160 -9 182 -19 226 -28 c 0
 579 -103 l 0
 588 -105 595 -108 595 -117 c 0
EndSplineSet
Validated: 1
EndChar

StartChar: adieresis
Encoding: 228 228 163
Width: 356
Flags: HW
LayerCount: 2
Fore
SplineSet
346 426 m 0
 390.333 426 428 398 428 357 c 0
 428 328 407 305 378 305 c 0
 358 305 341 319 341 339 c 0
 341 374 368 377 368 389 c 0
 368 396 359 399 350 399 c 0
 311 399 285 359 255 274 c 0
 247 248 253 238 274 238 c 0
 324 238 l 0
 332 238 338 236 334 223 c 0
 330 211 325 207 314 207 c 0
 268 207 l 0
 246 207 234 204 227 177 c 0
 217 141 l 0
 165 -49 71.5 -189 -29 -189 c 0
 -75 -189 -110 -158 -110 -116 c 0
 -110 -87 -89 -62 -60 -62 c 0
 -39 -62 -19 -75 -19 -98 c 0
 -19 -137 -47 -137 -47 -151 c 0
 -47 -157 -43 -161 -32 -161 c 0
 40 -161 82 -16 128 136 c 0
 142 180 l 0
 146 196 147 207 118 207 c 0
 70 207 l 0
 62 207 56 211 60 225 c 0
 63 237 70 238 82 238 c 0
 130 238 l 0
 155 238 163 245 173 268 c 0
 213 364 266 426 346 426 c 0
EndSplineSet
Validated: 33
EndChar

StartChar: aring
Encoding: 229 229 164
Width: 646
Flags: HW
LayerCount: 2
Fore
SplineSet
346 426 m 0
 390.333 426 428 398 428 357 c 0
 428 328 407 305 378 305 c 0
 358 305 341 319 341 339 c 0
 341 374 368 377 368 389 c 0
 368 396 359 399 350 399 c 0
 311 399 285 359 255 274 c 0
 247 248 253 238 274 238 c 0
 420 238 l 0
 445 238 453 245 463 268 c 0
 503 364 556 426 636 426 c 0
 680.333 426 718 398 718 357 c 0
 718 328 697 305 668 305 c 0
 648 305 631 319 631 339 c 0
 631 374 658 377 658 389 c 0
 658 396 649 399 640 399 c 0
 601 399 575 359 545 274 c 0
 537 248 543 238 564 238 c 0
 614 238 l 0
 622 238 628 236 624 223 c 0
 620 211 615 207 604 207 c 0
 558 207 l 0
 536 207 524 204 517 177 c 0
 507 141 l 0
 454.278 -48.801 361.5 -189 261 -189 c 0
 215 -189 180 -158 180 -116 c 0
 180 -87 201 -62 230 -62 c 0
 251 -62 271 -75 271 -98 c 0
 271 -137 243 -137 243 -151 c 0
 243 -157 247 -161 258 -161 c 0
 330 -161 372 -16 418 136 c 0
 432 180 l 0
 436 196 437 207 408 207 c 0
 268 207 l 0
 246 207 234 204 227 177 c 0
 217 141 l 0
 164.278 -48.801 71.5 -189 -29 -189 c 0
 -75 -189 -110 -158 -110 -116 c 0
 -110 -87 -89 -62 -60 -62 c 0
 -39 -62 -19 -75 -19 -98 c 0
 -19 -137 -47 -137 -47 -151 c 0
 -47 -157 -43 -161 -32 -161 c 0
 40 -161 82 -16 128 136 c 0
 142 180 l 0
 146 196 147 207 118 207 c 0
 70 207 l 0
 62 207 56 211 60 225 c 0
 63 237 70 238 82 238 c 0
 130 238 l 0
 155 238 163 245 173 268 c 0
 213 364 266 426 346 426 c 0
EndSplineSet
Validated: 33
EndChar

StartChar: ae
Encoding: 230 230 165
Width: 916
Flags: HW
LayerCount: 2
Fore
SplineSet
346 426 m 0
 390.333 426 428 398 428 357 c 0
 428 328 407 305 378 305 c 0
 358 305 341 319 341 339 c 0
 341 374 368 377 368 389 c 0
 368 396 359 399 350 399 c 0
 311 399 285 359 255 274 c 0
 247 248 253 238 274 238 c 0
 410 238 l 0
 435 238 443 245 453 268 c 0
 493 364 546 426 626 426 c 0
 670.333 426 708 398 708 357 c 0
 708 328 687 305 658 305 c 0
 638 305 621 319 621 339 c 0
 621 374 648 377 648 389 c 0
 648 396 639 399 630 399 c 0
 591 399 565 359 535 274 c 0
 527 248 533 238 554 238 c 0
 690 238 l 0
 715 238 723 245 733 268 c 0
 773 364 826 426 906 426 c 0
 950.333 426 988 398 988 357 c 0
 988 328 967 305 938 305 c 0
 918 305 901 319 901 339 c 0
 901 374 928 377 928 389 c 0
 928 396 919 399 910 399 c 0
 871 399 845 359 815 274 c 0
 807 248 813 238 834 238 c 0
 884 238 l 0
 892 238 898 236 894 223 c 0
 890 211 885 207 874 207 c 0
 828 207 l 0
 806 207 794 204 787 177 c 0
 777 141 l 0
 724.277 -48.801 631.5 -189 531 -189 c 0
 485 -189 450 -158 450 -116 c 0
 450 -87 471 -62 500 -62 c 0
 521 -62 541 -75 541 -98 c 0
 541 -137 513 -137 513 -151 c 0
 513 -157 517 -161 528 -161 c 0
 600 -161 642 -16 688 136 c 0
 702 180 l 0
 706 196 707 207 678 207 c 0
 548 207 l 0
 526 207 514 204 507 177 c 0
 497 141 l 0
 444.277 -48.801 351.5 -189 251 -189 c 0
 205 -189 170 -158 170 -116 c 0
 170 -87 191 -62 220 -62 c 0
 241 -62 261 -75 261 -98 c 0
 261 -137 233 -137 233 -151 c 0
 233 -157 237 -161 248 -161 c 0
 320 -161 362 -16 408 136 c 0
 422 180 l 0
 426 196 427 207 398 207 c 0
 268 207 l 0
 246 207 234 204 227 177 c 0
 217 141 l 0
 164.278 -48.801 71.5 -189 -29 -189 c 0
 -75 -189 -110 -158 -110 -116 c 0
 -110 -87 -89 -62 -60 -62 c 0
 -39 -62 -19 -75 -19 -98 c 0
 -19 -137 -47 -137 -47 -151 c 0
 -47 -157 -43 -161 -32 -161 c 0
 40 -161 82 -16 128 136 c 0
 142 180 l 0
 146 196 147 207 118 207 c 0
 70 207 l 0
 62 207 56 211 60 225 c 0
 63 237 70 238 82 238 c 0
 130 238 l 0
 155 238 163 245 173 268 c 0
 213 364 266 426 346 426 c 0
EndSplineSet
Validated: 33
EndChar

StartChar: ccedilla
Encoding: 231 231 166
Width: 1196
Flags: HW
LayerCount: 2
Fore
SplineSet
346 426 m 0
 390.333 426 428 398 428 357 c 0
 428 328 407 305 378 305 c 0
 358 305 341 319 341 339 c 0
 341 374 368 377 368 389 c 0
 368 396 359 399 350 399 c 0
 311 399 285 359 255 274 c 0
 247 248 253 238 274 238 c 0
 410 238 l 0
 435 238 443 245 453 268 c 0
 493 364 546 426 626 426 c 0
 670.333 426 708 398 708 357 c 0
 708 328 687 305 658 305 c 0
 638 305 621 319 621 339 c 0
 621 374 648 377 648 389 c 0
 648 396 639 399 630 399 c 0
 591 399 565 359 535 274 c 0
 527 248 533 238 554 238 c 0
 690 238 l 0
 715 238 723 245 733 268 c 0
 773 364 826 426 906 426 c 0
 950.333 426 988 398 988 357 c 0
 988 328 967 305 938 305 c 0
 918 305 901 319 901 339 c 0
 901 374 928 377 928 389 c 0
 928 396 919 399 910 399 c 0
 871 399 845 359 815 274 c 0
 807 248 813 238 834 238 c 0
 970 238 l 0
 995 238 1003 245 1013 268 c 0
 1053 364 1106 426 1186 426 c 0
 1230.33 426 1268 398 1268 357 c 0
 1268 328 1247 305 1218 305 c 0
 1198 305 1181 319 1181 339 c 0
 1181 374 1208 377 1208 389 c 0
 1208 396 1199 399 1190 399 c 0
 1151 399 1125 359 1095 274 c 0
 1087 248 1093 238 1114 238 c 0
 1164 238 l 0
 1172 238 1178 236 1174 223 c 0
 1170 211 1165 207 1154 207 c 0
 1108 207 l 0
 1086 207 1074 204 1067 177 c 0
 1057 141 l 0
 1004.28 -48.801 911.5 -189 811 -189 c 0
 765 -189 730 -158 730 -116 c 0
 730 -87 751 -62 780 -62 c 0
 801 -62 821 -75 821 -98 c 0
 821 -137 793 -137 793 -151 c 0
 793 -157 797 -161 808 -161 c 0
 880 -161 922 -16 968 136 c 0
 982 180 l 0
 986 196 987 207 958 207 c 0
 828 207 l 0
 806 207 794 204 787 177 c 0
 777 141 l 0
 724.277 -48.801 631.5 -189 531 -189 c 0
 485 -189 450 -158 450 -116 c 0
 450 -87 471 -62 500 -62 c 0
 521 -62 541 -75 541 -98 c 0
 541 -137 513 -137 513 -151 c 0
 513 -157 517 -161 528 -161 c 0
 600 -161 642 -16 688 136 c 0
 702 180 l 0
 706 196 707 207 678 207 c 0
 548 207 l 0
 526 207 514 204 507 177 c 0
 497 141 l 0
 444.277 -48.801 351.5 -189 251 -189 c 0
 205 -189 170 -158 170 -116 c 0
 170 -87 191 -62 220 -62 c 0
 241 -62 261 -75 261 -98 c 0
 261 -137 233 -137 233 -151 c 0
 233 -157 237 -161 248 -161 c 0
 320 -161 362 -16 408 136 c 0
 422 180 l 0
 426 196 427 207 398 207 c 0
 268 207 l 0
 246 207 234 204 227 177 c 0
 217 141 l 0
 164.278 -48.801 71.5 -189 -29 -189 c 0
 -75 -189 -110 -158 -110 -116 c 0
 -110 -87 -89 -62 -60 -62 c 0
 -39 -62 -19 -75 -19 -98 c 0
 -19 -137 -47 -137 -47 -151 c 0
 -47 -157 -43 -161 -32 -161 c 0
 40 -161 82 -16 128 136 c 0
 142 180 l 0
 146 196 147 207 118 207 c 0
 70 207 l 0
 62 207 56 211 60 225 c 0
 63 237 70 238 82 238 c 0
 130 238 l 0
 155 238 163 245 173 268 c 0
 213 364 266 426 346 426 c 0
EndSplineSet
Validated: 33
EndChar

StartChar: egrave
Encoding: 232 232 167
Width: 781
Flags: HW
LayerCount: 2
Fore
SplineSet
771 426 m 0
 815.333 426 853 398 853 357 c 0
 853 328 832 305 803 305 c 0
 783 305 766 319 766 339 c 0
 766 374 793 377 793 389 c 0
 793 396 784 399 775 399 c 0
 736 399 710 359 680 274 c 0
 672 248 678 238 699 238 c 0
 749 238 l 0
 757 238 763 236 759 223 c 0
 755 211 750 207 739 207 c 0
 693 207 l 0
 671 207 659 204 652 177 c 0
 642 141 l 0
 590 -49 496.5 -189 396 -189 c 0
 350 -189 315 -158 315 -116 c 0
 315 -87 336 -62 365 -62 c 0
 386 -62 406 -75 406 -98 c 0
 406 -137 378 -137 378 -151 c 0
 378 -157 382 -161 393 -161 c 0
 465 -161 507 -16 553 136 c 0
 567 180 l 0
 571 196 572 207 543 207 c 0
 495 207 l 0
 487 207 481 211 485 225 c 0
 488 237 495 238 507 238 c 0
 555 238 l 0
 580 238 588 245 598 268 c 0
 638 364 691 426 771 426 c 0
237 254 m 0
 256 254 271 247 277 230 c 0
 283 217 289 212 295 212 c 0
 301 212 308 217 316 224 c 0
 335 242 357 254 377 254 c 0
 403 254 421 240 421 208 c 0
 421 192 417 172 407 147 c 0
 374 62 l 0
 371 55 370 49 370 45 c 0
 370 35 375 31 383 31 c 0
 402 31 418 54 441 99 c 0
 445 106 451 110 455 110 c 0
 461 110 465 106 465 98 c 0
 465 95 465 91 463 87 c 0
 445 34 408 -8 368 -8 c 0
 343 -8 325 6 325 38 c 0
 325 54 329 74 339 99 c 0
 371 184 l 0
 374 193 376 200 376 205 c 0
 376 215 370 220 362 220 c 0
 343 220 316 197 292 166 c 0
 270 140 253 111 240 77 c 0
 218 19 l 0
 211 3 212 -1 205 -1 c 0
 198 -1 197 3 189 3 c 0
 179 3 178 -1 170 -1 c 0
 167 -1 165 1 165 4 c 0
 165 6 166 10 168 14 c 0
 231 184 l 0
 234 193 236 200 236 205 c 0
 236 215 230 220 222 220 c 0
 202 220 175 197 150 166 c 0
 130 139 114 113 101 78 c 0
 78 19 l 0
 71 3 72 -1 65 -1 c 0
 58 -1 57 3 49 3 c 0
 39 3 38 -1 30 -1 c 0
 27 -1 25 1 25 4 c 0
 25 6 26 10 28 14 c 0
 91 184 l 0
 94 192 95 198 95 203 c 0
 95 213 89 217 84 217 c 0
 62 217 45 192 22 147 c 0
 18 140 13 136 8 136 c 0
 3 136 0 140 0 148 c 0
 0 151 0 155 2 159 c 0
 21 212 57 254 97 254 c 0
 117 254 132 246 138 227 c 0
 143 213 148 207 153 207 c 0
 158 207 164 213 171 220 c 0
 192 240 215 254 237 254 c 0
EndSplineSet
Validated: 33
EndChar

StartChar: eacute
Encoding: 233 233 168
Width: 443
Flags: HW
LayerCount: 2
Fore
SplineSet
180 -174 m 0
 180 -187 173 -194 160 -194 c 0
 -80 -194 l 0
 -88 -194 -90 -190 -90 -184 c 0
 -90 -171 -85 -163 -72 -163 c 0
 -30 -163 l 0
 -1 -163 4 -155 14 -133 c 0
 137 135 l 0
 149 161 158 185 158 201 c 0
 158 215 152 224 135 224 c 0
 97 224 57 158 26 93 c 0
 20 81 12 76 6 76 c 0
 1 76 -4 80 -4 88 c 0
 -4 92 -3 97 0 103 c 0
 36 186 79 273 169 273 c 0
 194 273 214 260 227 242 c 0
 237 228 243 221 252 221 c 0
 259 221 267 225 279 234 c 0
 306 254 334 269 360 269 c 0
 402 269 443 247 443 178 c 0
 443 75 366 -37 267 -37 c 0
 234 -37 216.667 -25.3333 202 -11 c 0
 192.378 -1.59682 184 2 177 2 c 0
 167 2 161 -8 155 -21 c 0
 106 -129 l 0
 102 -138 99 -145 99 -151 c 0
 99 -159 105 -163 119 -163 c 0
 168 -163 l 0
 177 -163 180 -168 180 -174 c 0
335 225 m 0
 282 225 203 133 203 57 c 0
 203 29 224 1 248 1 c 0
 306 1 365 112 365 184 c 0
 365 213 352 225 335 225 c 0
EndSplineSet
Validated: 1
EndChar

StartChar: ecircumflex
Encoding: 234 234 169
Width: 833
Flags: HW
LayerCount: 2
Fore
SplineSet
335 225 m 0
 282 225 203 133 203 57 c 0
 203 29 224 1 248 1 c 0
 306 1 365 112 365 184 c 0
 365 213 352 225 335 225 c 0
180 -174 m 0
 180 -187 173 -194 160 -194 c 0
 -80 -194 l 0
 -88 -194 -90 -190 -90 -184 c 0
 -90 -171 -85 -163 -72 -163 c 0
 -30 -163 l 0
 -1 -163 4 -155 14 -133 c 0
 137 135 l 0
 149 161 158 185 158 201 c 0
 158 215 152 224 135 224 c 0
 97 224 57 158 26 93 c 0
 20 81 12 76 6 76 c 0
 1 76 -4 80 -4 88 c 0
 -4 92 -3 97 0 103 c 0
 36 186 79 273 169 273 c 0
 194 273 214 260 227 242 c 0
 237 228 243 221 252 221 c 0
 259 221 267 225 279 234 c 0
 306 254 334 269 360 269 c 0
 386 269 411 261 426 239 c 0
 435 227 441 221 448 221 c 0
 453 221 459 226 468 234 c 0
 492 258 521 273 559 273 c 0
 584 273 604 260 617 242 c 0
 627 228 633 221 642 221 c 0
 649 221 657 225 669 234 c 0
 696 254 724 269 750 269 c 0
 792 269 833 247 833 178 c 0
 833 75 756 -37 657 -37 c 0
 624 -37 607 -25 592 -11 c 0
 582 -2 574 2 567 2 c 0
 557 2 551 -8 545 -21 c 0
 496 -129 l 0
 492 -138 489 -145 489 -151 c 0
 489 -159 495 -163 509 -163 c 0
 558 -163 l 0
 567 -163 570 -168 570 -174 c 0
 570 -187 563 -194 550 -194 c 0
 310 -194 l 0
 302 -194 300 -190 300 -184 c 0
 300 -171 305 -163 318 -163 c 0
 360 -163 l 0
 389 -163 394 -155 404 -133 c 0
 527 135 l 0
 539 161 548 185 548 201 c 0
 548 215 542 224 525 224 c 0
 504 224 482 203 461 174 c 0
 446 152 440 131 430 102 c 0
 403 26 341 -37 267 -37 c 0
 234 -37 217 -25 202 -11 c 0
 192 -2 184 2 177 2 c 0
 167 2 161 -8 155 -21 c 0
 106 -129 l 0
 102 -138 99 -145 99 -151 c 0
 99 -159 105 -163 119 -163 c 0
 168 -163 l 0
 177 -163 180 -168 180 -174 c 0
725 225 m 0
 672 225 593 133 593 57 c 0
 593 29 614 1 638 1 c 0
 696 1 755 112 755 184 c 0
 755 213 742 225 725 225 c 0
EndSplineSet
Validated: 1
EndChar

StartChar: edieresis
Encoding: 235 235 170
Width: 1223
Flags: HW
LayerCount: 2
Fore
SplineSet
725 225 m 0
 672 225 593 133 593 57 c 0
 593 29 614 1 638 1 c 0
 696 1 755 112 755 184 c 0
 755 213 742 225 725 225 c 0
180 -174 m 0
 180 -187 173 -194 160 -194 c 0
 -80 -194 l 0
 -88 -194 -90 -190 -90 -184 c 0
 -90 -171 -85 -163 -72 -163 c 0
 -30 -163 l 0
 -1 -163 4 -155 14 -133 c 0
 137 135 l 0
 149 161 158 185 158 201 c 0
 158 215 152 224 135 224 c 0
 97 224 57 158 26 93 c 0
 20 81 12 76 6 76 c 0
 1 76 -4 80 -4 88 c 0
 -4 92 -3 97 0 103 c 0
 36 186 79 273 169 273 c 0
 194 273 214 260 227 242 c 0
 237 228 243 221 252 221 c 0
 259 221 267 225 279 234 c 0
 306 254 334 269 360 269 c 0
 386 269 411 261 426 239 c 0
 435 227 441 221 448 221 c 0
 453 221 459 226 468 234 c 0
 492 258 521 273 559 273 c 0
 584 273 604 260 617 242 c 0
 627 228 633 221 642 221 c 0
 649 221 657 225 669 234 c 0
 696 254 724 269 750 269 c 0
 777 269 803 260 818 236 c 0
 825 226 831 220 837 220 c 0
 842 220 849 225 857 233 c 0
 881 257 911 273 949 273 c 0
 974 273 994 260 1007 242 c 0
 1017 228 1023 221 1032 221 c 0
 1039 221 1047 225 1059 234 c 0
 1086 254 1114 269 1140 269 c 0
 1182 269 1223 247 1223 178 c 0
 1223 75 1146 -37 1047 -37 c 0
 1014 -37 997 -25 982 -11 c 0
 972 -2 964 2 957 2 c 0
 947 2 941 -8 935 -21 c 0
 886 -129 l 0
 882 -138 879 -145 879 -151 c 0
 879 -159 885 -163 899 -163 c 0
 948 -163 l 0
 957 -163 960 -168 960 -174 c 0
 960 -187 953 -194 940 -194 c 0
 700 -194 l 0
 692 -194 690 -190 690 -184 c 0
 690 -171 695 -163 708 -163 c 0
 750 -163 l 0
 779 -163 784 -155 794 -133 c 0
 917 135 l 0
 929 161 938 185 938 201 c 0
 938 215 932 224 915 224 c 0
 893 224 871 202 849 171 c 0
 835 150 829 127 819 98 c 0
 792 25 730 -37 657 -37 c 0
 624 -37 607 -25 592 -11 c 0
 582 -2 574 2 567 2 c 0
 557 2 551 -8 545 -21 c 0
 496 -129 l 0
 492 -138 489 -145 489 -151 c 0
 489 -159 495 -163 509 -163 c 0
 558 -163 l 0
 567 -163 570 -168 570 -174 c 0
 570 -187 563 -194 550 -194 c 0
 310 -194 l 0
 302 -194 300 -190 300 -184 c 0
 300 -171 305 -163 318 -163 c 0
 360 -163 l 0
 389 -163 394 -155 404 -133 c 0
 527 135 l 0
 539 161 548 185 548 201 c 0
 548 215 542 224 525 224 c 0
 504 224 482 203 461 174 c 0
 446 152 440 131 430 102 c 0
 403 26 341 -37 267 -37 c 0
 234 -37 217 -25 202 -11 c 0
 192 -2 184 2 177 2 c 0
 167 2 161 -8 155 -21 c 0
 106 -129 l 0
 102 -138 99 -145 99 -151 c 0
 99 -159 105 -163 119 -163 c 0
 168 -163 l 0
 177 -163 180 -168 180 -174 c 0
335 225 m 0
 282 225 203 133 203 57 c 0
 203 29 224 1 248 1 c 0
 306 1 365 112 365 184 c 0
 365 213 352 225 335 225 c 0
1115 225 m 0
 1062 225 983 133 983 57 c 0
 983 29 1004 1 1028 1 c 0
 1086 1 1145 112 1145 184 c 0
 1145 213 1132 225 1115 225 c 0
EndSplineSet
Validated: 1
EndChar

StartChar: igrave
Encoding: 236 236 171
Width: 1613
Flags: HW
LayerCount: 2
Fore
SplineSet
725 225 m 0
 672 225 593 133 593 57 c 0
 593 29 614 1 638 1 c 0
 696 1 755 112 755 184 c 0
 755 213 742 225 725 225 c 0
180 -174 m 0
 180 -187 173 -194 160 -194 c 0
 -80 -194 l 0
 -88 -194 -90 -190 -90 -184 c 0
 -90 -171 -85 -163 -72 -163 c 0
 -30 -163 l 0
 -1 -163 4 -155 14 -133 c 0
 137 135 l 0
 149 161 158 185 158 201 c 0
 158 215 152 224 135 224 c 0
 97 224 57 158 26 93 c 0
 20 81 12 76 6 76 c 0
 1 76 -4 80 -4 88 c 0
 -4 92 -3 97 0 103 c 0
 36 186 79 273 169 273 c 0
 194 273 214 260 227 242 c 0
 237 228 243 221 252 221 c 0
 259 221 267 225 279 234 c 0
 306 254 334 269 360 269 c 0
 386 269 411 261 426 239 c 0
 435 227 441 221 448 221 c 0
 453 221 459 226 468 234 c 0
 492 258 521 273 559 273 c 0
 584 273 604 260 617 242 c 0
 627 228 633 221 642 221 c 0
 649 221 657 225 669 234 c 0
 696 254 724 269 750 269 c 0
 775 269 799 261 815 241 c 0
 824 229 831 223 838 223 c 0
 844 223 850 227 859 235 c 0
 883 258 912 273 949 273 c 0
 974 273 994 260 1007 242 c 0
 1017 228 1023 221 1032 221 c 0
 1039 221 1047 225 1059 234 c 0
 1086 254 1114 269 1140 269 c 0
 1166 269 1191 261 1206 239 c 0
 1215 227 1221 221 1228 221 c 0
 1233 221 1239 226 1248 234 c 0
 1272 258 1301 273 1339 273 c 0
 1364 273 1384 260 1397 242 c 0
 1407 228 1413 221 1422 221 c 0
 1429 221 1437 225 1449 234 c 0
 1476 254 1504 269 1530 269 c 0
 1572 269 1613 247 1613 178 c 0
 1613 75 1536 -37 1437 -37 c 0
 1404 -37 1387 -25 1372 -11 c 0
 1362 -2 1354 2 1347 2 c 0
 1337 2 1331 -8 1325 -21 c 0
 1276 -129 l 0
 1272 -138 1269 -145 1269 -151 c 0
 1269 -159 1275 -163 1289 -163 c 0
 1338 -163 l 0
 1347 -163 1350 -168 1350 -174 c 0
 1350 -187 1343 -194 1330 -194 c 0
 1090 -194 l 0
 1082 -194 1080 -190 1080 -184 c 0
 1080 -171 1085 -163 1098 -163 c 0
 1140 -163 l 0
 1169 -163 1174 -155 1184 -133 c 0
 1307 135 l 0
 1319 161 1328 185 1328 201 c 0
 1328 215 1322 224 1305 224 c 0
 1284 224 1262 203 1241 174 c 0
 1226 152 1220 131 1210 102 c 0
 1183 26 1121 -37 1047 -37 c 0
 1014 -37 997 -25 982 -11 c 0
 972 -2 964 2 957 2 c 0
 947 2 941 -8 935 -21 c 0
 886 -129 l 0
 882 -138 879 -145 879 -151 c 0
 879 -159 885 -163 899 -163 c 0
 948 -163 l 0
 957 -163 960 -168 960 -174 c 0
 960 -187 953 -194 940 -194 c 0
 700 -194 l 0
 692 -194 690 -190 690 -184 c 0
 690 -171 695 -163 708 -163 c 0
 750 -163 l 0
 779 -163 784 -155 794 -133 c 0
 917 135 l 0
 929 161 938 185 938 201 c 0
 938 215 932 224 915 224 c 0
 892 224 869 200 847 167 c 0
 835 149 829 132 821 107 c 0
 796 29 733 -37 657 -37 c 0
 624 -37 607 -25 592 -11 c 0
 582 -2 574 2 567 2 c 0
 557 2 551 -8 545 -21 c 0
 496 -129 l 0
 492 -138 489 -145 489 -151 c 0
 489 -159 495 -163 509 -163 c 0
 558 -163 l 0
 567 -163 570 -168 570 -174 c 0
 570 -187 563 -194 550 -194 c 0
 310 -194 l 0
 302 -194 300 -190 300 -184 c 0
 300 -171 305 -163 318 -163 c 0
 360 -163 l 0
 389 -163 394 -155 404 -133 c 0
 527 135 l 0
 539 161 548 185 548 201 c 0
 548 215 542 224 525 224 c 0
 504 224 482 203 461 174 c 0
 446 152 440 131 430 102 c 0
 403 26 341 -37 267 -37 c 0
 234 -37 217 -25 202 -11 c 0
 192 -2 184 2 177 2 c 0
 167 2 161 -8 155 -21 c 0
 106 -129 l 0
 102 -138 99 -145 99 -151 c 0
 99 -159 105 -163 119 -163 c 0
 168 -163 l 0
 177 -163 180 -168 180 -174 c 0
335 225 m 0
 282 225 203 133 203 57 c 0
 203 29 224 1 248 1 c 0
 306 1 365 112 365 184 c 0
 365 213 352 225 335 225 c 0
1505 225 m 0
 1452 225 1373 133 1373 57 c 0
 1373 29 1394 1 1418 1 c 0
 1476 1 1535 112 1535 184 c 0
 1535 213 1522 225 1505 225 c 0
1115 225 m 0
 1062 225 983 133 983 57 c 0
 983 29 1004 1 1028 1 c 0
 1086 1 1145 112 1145 184 c 0
 1145 213 1132 225 1115 225 c 0
EndSplineSet
Validated: 1
EndChar

StartChar: iacute
Encoding: 237 237 172
Width: 884
Flags: HW
LayerCount: 2
Fore
SplineSet
235 254 m 0
 254 254 269 247 275 230 c 0
 281 217 287 212 293 212 c 0
 299 212 306 217 314 224 c 0
 333 242 355 254 375 254 c 0
 401 254 421 240 421 208 c 0
 421 192 415 172 405 147 c 0
 378 77 l 0
 372 62 361 31 385 31 c 0
 418 31 448 106 463 134 c 0
 498 203 530 273 612 273 c 0
 637 273 655 260 668 242 c 0
 678 228 684 221 693 221 c 0
 700 221 708 225 720 234 c 0
 747 254 775 269 801 269 c 0
 843 269 884 247 884 178 c 0
 884 75 807 -37 708 -37 c 0
 675 -37 658 -25 643 -11 c 0
 633 -2 625 2 618 2 c 0
 608 2 602 -8 596 -21 c 0
 547 -129 l 0
 543 -138 540 -145 540 -151 c 0
 540 -159 546 -163 560 -163 c 0
 609 -163 l 0
 618 -163 621 -168 621 -174 c 0
 621 -187 614 -194 601 -194 c 0
 361 -194 l 0
 353 -194 351 -190 351 -184 c 0
 351 -171 356 -163 369 -163 c 0
 411 -163 l 0
 440 -163 445 -155 455 -133 c 0
 578 135 l 0
 590 161 599 185 599 201 c 0
 599 215 595 224 578 224 c 0
 541 224 519 173 488 118 c 0
 463 71 429 -8 370 -8 c 0
 345 -8 323 6 323 38 c 0
 323 54 327 74 337 99 c 0
 369 184 l 0
 372 193 374 200 374 205 c 0
 374 215 368 220 360 220 c 0
 341 220 314 197 290 166 c 0
 268 140 251 111 238 77 c 0
 216 19 l 0
 209 3 210 -1 203 -1 c 0
 196 -1 195 3 187 3 c 0
 177 3 176 -1 168 -1 c 0
 165 -1 163 1 163 4 c 0
 163 6 164 10 166 14 c 0
 229 184 l 0
 232 193 234 200 234 205 c 0
 234 215 228 220 220 220 c 0
 200 220 173 197 148 166 c 0
 128 139 112 113 99 78 c 0
 76 19 l 0
 69 3 70 -1 63 -1 c 0
 56 -1 55 3 47 3 c 0
 37 3 36 -1 28 -1 c 0
 25 -1 23 1 23 4 c 0
 23 6 24 10 26 14 c 0
 89 184 l 0
 92 192 93 198 93 203 c 0
 93 213 87 217 82 217 c 0
 60 217 43 192 20 147 c 0
 16 140 11 136 6 136 c 0
 1 136 -2 140 -2 148 c 0
 -2 151 -2 155 0 159 c 0
 19 212 55 254 95 254 c 0
 115 254 130 246 136 227 c 0
 141 213 146 207 151 207 c 0
 156 207 162 213 169 220 c 0
 190 240 213 254 235 254 c 0
776 225 m 0
 723 225 644 133 644 57 c 0
 644 29 665 1 689 1 c 0
 747 1 806 112 806 184 c 0
 806 213 793 225 776 225 c 0
EndSplineSet
Validated: 33
EndChar

StartChar: icircumflex
Encoding: 238 238 173
Width: 752
Flags: HW
LayerCount: 2
Fore
SplineSet
489 -174 m 0
 489 -187 482 -194 469 -194 c 0
 229 -194 l 0
 221 -194 219 -190 219 -184 c 0
 219 -171 224 -163 237 -163 c 0
 279 -163 l 0
 308 -163 313 -155 323 -133 c 0
 446 135 l 0
 458 161 467 185 467 201 c 0
 467 215 461 224 444 224 c 0
 406 224 366 158 335 93 c 0
 329 81 321 76 315 76 c 0
 310 76 305 80 305 88 c 0
 305 92 306 97 309 103 c 0
 345 186 388 273 478 273 c 0
 503 273 523 260 536 242 c 0
 546 228 552 221 561 221 c 0
 568 221 576 225 588 234 c 0
 615 254 643 269 669 269 c 0
 711 269 752 247 752 178 c 0
 752 75 675 -37 576 -37 c 0
 543 -37 525.667 -25.333 511 -11 c 0
 501.378 -1.59668 493 2 486 2 c 0
 476 2 470 -8 464 -21 c 0
 415 -129 l 0
 411 -138 408 -145 408 -151 c 0
 408 -159 414 -163 428 -163 c 0
 477 -163 l 0
 486 -163 489 -168 489 -174 c 0
644 225 m 0
 591 225 512 133 512 57 c 0
 512 29 533 1 557 1 c 0
 615 1 674 112 674 184 c 0
 674 213 661 225 644 225 c 0
346 426 m 0
 390.333 426 428 398 428 357 c 0
 428 328 407 305 378 305 c 0
 358 305 341 319 341 339 c 0
 341 374 368 377 368 389 c 0
 368 396 359 399 350 399 c 0
 311 399 285 359 255 274 c 0
 247 248 253 238 274 238 c 0
 324 238 l 0
 332 238 338 236 334 223 c 0
 330 211 325 207 314 207 c 0
 268 207 l 0
 246 207 234 204 227 177 c 0
 217 141 l 0
 165 -49 71.5 -189 -29 -189 c 0
 -75 -189 -110 -158 -110 -116 c 0
 -110 -87 -89 -62 -60 -62 c 0
 -39 -62 -19 -75 -19 -98 c 0
 -19 -137 -47 -137 -47 -151 c 0
 -47 -157 -43 -161 -32 -161 c 0
 40 -161 82 -16 128 136 c 0
 142 180 l 0
 146 196 147 207 118 207 c 0
 70 207 l 0
 62 207 56 211 60 225 c 0
 63 237 70 238 82 238 c 0
 130 238 l 0
 155 238 163 245 173 268 c 0
 213 364 266 426 346 426 c 0
EndSplineSet
Validated: 33
EndChar

StartChar: idieresis
Encoding: 239 239 174
Width: 556
Flags: HW
LayerCount: 2
Fore
SplineSet
546 426 m 0
 590.333 426 628 398 628 357 c 0
 628 328 607 305 578 305 c 0
 558 305 541 319 541 339 c 0
 541 374 568 377 568 389 c 0
 568 396 559 399 550 399 c 0
 511 399 485 359 455 274 c 0
 447 248 453 238 474 238 c 0
 524 238 l 0
 532 238 538 236 534 223 c 0
 530 211 525 207 514 207 c 0
 468 207 l 0
 446 207 434 204 427 177 c 0
 417 141 l 0
 365 -49 271.5 -189 171 -189 c 0
 125 -189 90 -158 90 -116 c 0
 90 -87 111 -62 140 -62 c 0
 161 -62 181 -75 181 -98 c 0
 181 -137 153 -137 153 -151 c 0
 153 -157 157 -161 168 -161 c 0
 240 -161 282 -16 328 136 c 0
 342 180 l 0
 346 196 347 207 318 207 c 0
 270 207 l 0
 262 207 256 211 260 225 c 0
 263 237 270 238 282 238 c 0
 330 238 l 0
 355 238 363 245 373 268 c 0
 413 364 466 426 546 426 c 0
142 235 m 0
 107 235 80 219 80 195 c 0
 80 176 109 163 130 153 c 0
 166 136 198 114 198 74 c 0
 198 18 148 -8 90 -8 c 0
 41 -8 0 11 0 54 c 0
 0 81 18 102 42 102 c 0
 60 102 71 88 71 71 c 0
 71 52 51 48 51 35 c 0
 51 19 76 17 94 17 c 0
 129 17 156 35 156 61 c 0
 156 89 135 101 101 116 c 0
 69 130 43 149 43 183 c 0
 43 233 93 259 145 259 c 0
 190 259 225 236 225 196 c 0
 225 170 207 157 190 157 c 0
 175 157 159 168 159 185 c 0
 159 203 177 207 177 218 c 0
 177 230 163 235 142 235 c 0
EndSplineSet
Validated: 33
EndChar

StartChar: eth
Encoding: 240 240 175
Width: 846
Flags: HW
LayerCount: 2
Fore
SplineSet
546 426 m 0
 590.333 426 628 398 628 357 c 0
 628 328 607 305 578 305 c 0
 558 305 541 319 541 339 c 0
 541 374 568 377 568 389 c 0
 568 396 559 399 550 399 c 0
 511 399 485 359 455 274 c 0
 447 248 453 238 474 238 c 0
 620 238 l 0
 645 238 653 245 663 268 c 0
 703 364 756 426 836 426 c 0
 880.333 426 918 398 918 357 c 0
 918 328 897 305 868 305 c 0
 848 305 831 319 831 339 c 0
 831 374 858 377 858 389 c 0
 858 396 849 399 840 399 c 0
 801 399 775 359 745 274 c 0
 737 248 743 238 764 238 c 0
 814 238 l 0
 822 238 828 236 824 223 c 0
 820 211 815 207 804 207 c 0
 758 207 l 0
 736 207 724 204 717 177 c 0
 707 141 l 0
 654.277 -48.801 561.5 -189 461 -189 c 0
 415 -189 380 -158 380 -116 c 0
 380 -87 401 -62 430 -62 c 0
 451 -62 471 -75 471 -98 c 0
 471 -137 443 -137 443 -151 c 0
 443 -157 447 -161 458 -161 c 0
 530 -161 572 -16 618 136 c 0
 632 180 l 0
 636 196 637 207 608 207 c 0
 468 207 l 0
 446 207 434 204 427 177 c 0
 417 141 l 0
 364.277 -48.801 271.5 -189 171 -189 c 0
 125 -189 90 -158 90 -116 c 0
 90 -87 111 -62 140 -62 c 0
 161 -62 181 -75 181 -98 c 0
 181 -137 153 -137 153 -151 c 0
 153 -157 157 -161 168 -161 c 0
 240 -161 282 -16 328 136 c 0
 342 180 l 0
 346 196 347 207 318 207 c 0
 270 207 l 0
 262 207 256 211 260 225 c 0
 263 237 270 238 282 238 c 0
 330 238 l 0
 355 238 363 245 373 268 c 0
 413 364 466 426 546 426 c 0
142 235 m 0
 107 235 80 219 80 195 c 0
 80 176 109 163 130 153 c 0
 166 136 198 114 198 74 c 0
 198 18 148 -8 90 -8 c 0
 41 -8 0 11 0 54 c 0
 0 81 18 102 42 102 c 0
 60 102 71 88 71 71 c 0
 71 52 51 48 51 35 c 0
 51 19 76 17 94 17 c 0
 129 17 156 35 156 61 c 0
 156 89 135 101 101 116 c 0
 69 130 43 149 43 183 c 0
 43 233 93 259 145 259 c 0
 190 259 225 236 225 196 c 0
 225 170 207 157 190 157 c 0
 175 157 159 168 159 185 c 0
 159 203 177 207 177 218 c 0
 177 230 163 235 142 235 c 0
EndSplineSet
Validated: 33
EndChar

StartChar: ntilde
Encoding: 241 241 176
Width: 587
Flags: HW
LayerCount: 2
Fore
SplineSet
511 19 m 0
 523 19 536 27 536 41 c 0
 536 52 526 62 509 68 c 0
 498 72 486 82 486 94 c 0
 486 106 492 120 517 120 c 0
 541 120 565 93 565 59 c 0
 565 9 528 -15 498 -15 c 0
 455 -15 433 35 393 35 c 0
 373 35 346 9 328 -1 c 0
 323 -4 319 -5 316 -5 c 0
 310 -5 307 -1 307 5 c 0
 307 10 310 17 316 22 c 0
 350 55 l 0
 389 89 448.5 148.5 490.5 191.5 c 0
 493.5 194.5 495.5 197.5 495.5 200.5 c 0
 495.5 211.5 440.5 211.5 427.5 211.5 c 0
 417.5 211.5 409.076 208.151 400.5 194.5 c 0
 384.479 169 l 0
 377.796 158.403 370.49 156.5 366.49 156.5 c 0
 362.49 156.5 359.49 159.5 359.49 165.5 c 0
 359.49 168.5 360.49 172.5 361.49 176.5 c 0
 383 235 l 0
 389.548 252.809 391 258 406 258 c 0
 424 258 448 251 498 251 c 0
 532 251 567 258 576 258 c 0
 585 258 587 255 587 251 c 0
 587 242 586 241 564 219 c 0
 469 128 l 0
 434 92 l 0
 427 85 423 79 423 74 c 0
 423 67 428 63 436 58 c 0
 450 50 467 36 484 27 c 0
 492 22 502 19 511 19 c 0
346 426 m 0
 390.333 426 428 398 428 357 c 0
 428 328 407 305 378 305 c 0
 358 305 341 319 341 339 c 0
 341 374 368 377 368 389 c 0
 368 396 359 399 350 399 c 0
 311 399 285 359 255 274 c 0
 247 248 253 238 274 238 c 0
 324 238 l 0
 332 238 338 236 334 223 c 0
 330 211 325 207 314 207 c 0
 268 207 l 0
 246 207 234 204 227 177 c 0
 217 141 l 0
 165 -49 71.5 -189 -29 -189 c 0
 -75 -189 -110 -158 -110 -116 c 0
 -110 -87 -89 -62 -60 -62 c 0
 -39 -62 -19 -75 -19 -98 c 0
 -19 -137 -47 -137 -47 -151 c 0
 -47 -157 -43 -161 -32 -161 c 0
 40 -161 82 -16 128 136 c 0
 142 180 l 0
 146 196 147 207 118 207 c 0
 70 207 l 0
 62 207 56 211 60 225 c 0
 63 237 70 238 82 238 c 0
 130 238 l 0
 155 238 163 245 173 268 c 0
 213 364 266 426 346 426 c 0
EndSplineSet
Validated: 33
EndChar

StartChar: ograve
Encoding: 242 242 177
Width: 877
Flags: HW
LayerCount: 2
Fore
SplineSet
346 426 m 0
 390.333 426 428 398 428 357 c 0
 428 328 407 305 378 305 c 0
 358 305 341 319 341 339 c 0
 341 374 368 377 368 389 c 0
 368 396 359 399 350 399 c 0
 311 399 285 359 255 274 c 0
 247 248 253 238 274 238 c 0
 420 238 l 0
 445 238 453 245 463 268 c 0
 503 364 556 426 636 426 c 0
 680.333 426 718 398 718 357 c 0
 718 328 697 305 668 305 c 0
 648 305 631 319 631 339 c 0
 631 374 658 377 658 389 c 0
 658 396 649 399 640 399 c 0
 601 399 575 359 545 274 c 0
 537 248 543 238 564 238 c 0
 614 238 l 0
 622 238 628 236 624 223 c 0
 620 211 615 207 604 207 c 0
 558 207 l 0
 536 207 524 204 517 177 c 0
 507 141 l 0
 454.277 -48.801 361.5 -189 261 -189 c 0
 215 -189 180 -158 180 -116 c 0
 180 -87 201 -62 230 -62 c 0
 251 -62 271 -75 271 -98 c 0
 271 -137 243 -137 243 -151 c 0
 243 -157 247 -161 258 -161 c 0
 330 -161 372 -16 418 136 c 0
 432 180 l 0
 436 196 437 207 408 207 c 0
 268 207 l 0
 246 207 234 204 227 177 c 0
 217 141 l 0
 164.277 -48.801 71.5 -189 -29 -189 c 0
 -75 -189 -110 -158 -110 -116 c 0
 -110 -87 -89 -62 -60 -62 c 0
 -39 -62 -19 -75 -19 -98 c 0
 -19 -137 -47 -137 -47 -151 c 0
 -47 -157 -43 -161 -32 -161 c 0
 40 -161 82 -16 128 136 c 0
 142 180 l 0
 146 196 147 207 118 207 c 0
 70 207 l 0
 62 207 56 211 60 225 c 0
 63 237 70 238 82 238 c 0
 130 238 l 0
 155 238 163 245 173 268 c 0
 213 364 266 426 346 426 c 0
801 19 m 0
 813 19 826 27 826 41 c 0
 826 52 816 62 799 68 c 0
 788 72 776 82 776 94 c 0
 776 106 782 120 807 120 c 0
 831 120 855 93 855 59 c 0
 855 9 818 -15 788 -15 c 0
 745 -15 723 35 683 35 c 0
 663 35 636 9 618 -1 c 0
 613 -4 609 -5 606 -5 c 0
 600 -5 597 -1 597 5 c 0
 597 10 600 17 606 22 c 0
 640 55 l 0
 679 89 738.5 148.5 780.5 191.5 c 0
 783.5 194.5 785.5 197.5 785.5 200.5 c 0
 785.5 211.5 730.5 211.5 717.5 211.5 c 0
 707.5 211.5 699.076 208.151 690.5 194.5 c 0
 674.479 169 l 0
 667.796 158.403 660.49 156.5 656.49 156.5 c 0
 652.49 156.5 649.49 159.5 649.49 165.5 c 0
 649.49 168.5 650.49 172.5 651.49 176.5 c 0
 673 235 l 0
 679.548 252.809 681 258 696 258 c 0
 714 258 738 251 788 251 c 0
 822 251 857 258 866 258 c 0
 875 258 877 255 877 251 c 0
 877 242 876 241 854 219 c 0
 759 128 l 0
 724 92 l 0
 717 85 713 79 713 74 c 0
 713 67 718 63 726 58 c 0
 740 50 757 36 774 27 c 0
 782 22 792 19 801 19 c 0
EndSplineSet
Validated: 33
EndChar

StartChar: oacute
Encoding: 243 243 178
Width: 787
Flags: HW
LayerCount: 2
Fore
SplineSet
711 19 m 0
 723 19 736 27 736 41 c 0
 736 52 726 62 709 68 c 0
 698 72 686 82 686 94 c 0
 686 106 692 120 717 120 c 0
 741 120 765 93 765 59 c 0
 765 9 728 -15 698 -15 c 0
 655 -15 633 35 593 35 c 0
 573 35 546 9 528 -1 c 0
 523 -4 519 -5 516 -5 c 0
 510 -5 507 -1 507 5 c 0
 507 10 510 17 516 22 c 0
 550 55 l 0
 589 89 648.5 148.5 690.5 191.5 c 0
 693.5 194.5 695.5 197.5 695.5 200.5 c 0
 695.5 211.5 640.5 211.5 627.5 211.5 c 0
 617.5 211.5 609.076 208.151 600.5 194.5 c 0
 584.479 169 l 0
 577.796 158.403 570.49 156.5 566.49 156.5 c 0
 562.49 156.5 559.49 159.5 559.49 165.5 c 0
 559.49 168.5 560.49 172.5 561.49 176.5 c 0
 583 235 l 0
 589.548 252.809 591 258 606 258 c 0
 624 258 648 251 698 251 c 0
 732 251 767 258 776 258 c 0
 785 258 787 255 787 251 c 0
 787 242 786 241 764 219 c 0
 669 128 l 0
 634 92 l 0
 627 85 623 79 623 74 c 0
 623 67 628 63 636 58 c 0
 650 50 667 36 684 27 c 0
 692 22 702 19 711 19 c 0
546 426 m 0
 590.333 426 628 398 628 357 c 0
 628 328 607 305 578 305 c 0
 558 305 541 319 541 339 c 0
 541 374 568 377 568 389 c 0
 568 396 559 399 550 399 c 0
 511 399 485 359 455 274 c 0
 447 248 453 238 474 238 c 0
 524 238 l 0
 532 238 538 236 534 223 c 0
 530 211 525 207 514 207 c 0
 468 207 l 0
 446 207 434 204 427 177 c 0
 417 141 l 0
 365 -49 271.5 -189 171 -189 c 0
 125 -189 90 -158 90 -116 c 0
 90 -87 111 -62 140 -62 c 0
 161 -62 181 -75 181 -98 c 0
 181 -137 153 -137 153 -151 c 0
 153 -157 157 -161 168 -161 c 0
 240 -161 282 -16 328 136 c 0
 342 180 l 0
 346 196 347 207 318 207 c 0
 270 207 l 0
 262 207 256 211 260 225 c 0
 263 237 270 238 282 238 c 0
 330 238 l 0
 355 238 363 245 373 268 c 0
 413 364 466 426 546 426 c 0
142 235 m 0
 107 235 80 219 80 195 c 0
 80 176 109 163 130 153 c 0
 166 136 198 114 198 74 c 0
 198 18 148 -8 90 -8 c 0
 41 -8 0 11 0 54 c 0
 0 81 18 102 42 102 c 0
 60 102 71 88 71 71 c 0
 71 52 51 48 51 35 c 0
 51 19 76 17 94 17 c 0
 129 17 156 35 156 61 c 0
 156 89 135 101 101 116 c 0
 69 130 43 149 43 183 c 0
 43 233 93 259 145 259 c 0
 190 259 225 236 225 196 c 0
 225 170 207 157 190 157 c 0
 175 157 159 168 159 185 c 0
 159 203 177 207 177 218 c 0
 177 230 163 235 142 235 c 0
EndSplineSet
Validated: 33
EndChar

StartChar: ocircumflex
Encoding: 244 244 179
Width: 1077
Flags: HW
LayerCount: 2
Fore
SplineSet
546 426 m 0
 590.333 426 628 398 628 357 c 0
 628 328 607 305 578 305 c 0
 558 305 541 319 541 339 c 0
 541 374 568 377 568 389 c 0
 568 396 559 399 550 399 c 0
 511 399 485 359 455 274 c 0
 447 248 453 238 474 238 c 0
 620 238 l 0
 645 238 653 245 663 268 c 0
 703 364 756 426 836 426 c 0
 880.333 426 918 398 918 357 c 0
 918 328 897 305 868 305 c 0
 848 305 831 319 831 339 c 0
 831 374 858 377 858 389 c 0
 858 396 849 399 840 399 c 0
 801 399 775 359 745 274 c 0
 737 248 743 238 764 238 c 0
 814 238 l 0
 822 238 828 236 824 223 c 0
 820 211 815 207 804 207 c 0
 758 207 l 0
 736 207 724 204 717 177 c 0
 707 141 l 0
 654.277 -48.801 561.5 -189 461 -189 c 0
 415 -189 380 -158 380 -116 c 0
 380 -87 401 -62 430 -62 c 0
 451 -62 471 -75 471 -98 c 0
 471 -137 443 -137 443 -151 c 0
 443 -157 447 -161 458 -161 c 0
 530 -161 572 -16 618 136 c 0
 632 180 l 0
 636 196 637 207 608 207 c 0
 468 207 l 0
 446 207 434 204 427 177 c 0
 417 141 l 0
 364.277 -48.801 271.5 -189 171 -189 c 0
 125 -189 90 -158 90 -116 c 0
 90 -87 111 -62 140 -62 c 0
 161 -62 181 -75 181 -98 c 0
 181 -137 153 -137 153 -151 c 0
 153 -157 157 -161 168 -161 c 0
 240 -161 282 -16 328 136 c 0
 342 180 l 0
 346 196 347 207 318 207 c 0
 270 207 l 0
 262 207 256 211 260 225 c 0
 263 237 270 238 282 238 c 0
 330 238 l 0
 355 238 363 245 373 268 c 0
 413 364 466 426 546 426 c 0
1001 19 m 0
 1013 19 1026 27 1026 41 c 0
 1026 52 1016 62 999 68 c 0
 988 72 976 82 976 94 c 0
 976 106 982 120 1007 120 c 0
 1031 120 1055 93 1055 59 c 0
 1055 9 1018 -15 988 -15 c 0
 945 -15 923 35 883 35 c 0
 863 35 836 9 818 -1 c 0
 813 -4 809 -5 806 -5 c 0
 800 -5 797 -1 797 5 c 0
 797 10 800 17 806 22 c 0
 840 55 l 0
 879 89 938.5 148.5 980.5 191.5 c 0
 983.5 194.5 985.5 197.5 985.5 200.5 c 0
 985.5 211.5 930.5 211.5 917.5 211.5 c 0
 907.5 211.5 899.076 208.151 890.5 194.5 c 0
 874.479 169 l 0
 867.796 158.403 860.49 156.5 856.49 156.5 c 0
 852.49 156.5 849.49 159.5 849.49 165.5 c 0
 849.49 168.5 850.49 172.5 851.49 176.5 c 0
 873 235 l 0
 879.548 252.809 881 258 896 258 c 0
 914 258 938 251 988 251 c 0
 1022 251 1057 258 1066 258 c 0
 1075 258 1077 255 1077 251 c 0
 1077 242 1076 241 1054 219 c 0
 959 128 l 0
 924 92 l 0
 917 85 913 79 913 74 c 0
 913 67 918 63 926 58 c 0
 940 50 957 36 974 27 c 0
 982 22 992 19 1001 19 c 0
142 235 m 0
 107 235 80 219 80 195 c 0
 80 176 109 163 130 153 c 0
 166 136 198 114 198 74 c 0
 198 18 148 -8 90 -8 c 0
 41 -8 0 11 0 54 c 0
 0 81 18 102 42 102 c 0
 60 102 71 88 71 71 c 0
 71 52 51 48 51 35 c 0
 51 19 76 17 94 17 c 0
 129 17 156 35 156 61 c 0
 156 89 135 101 101 116 c 0
 69 130 43 149 43 183 c 0
 43 233 93 259 145 259 c 0
 190 259 225 236 225 196 c 0
 225 170 207 157 190 157 c 0
 175 157 159 168 159 185 c 0
 159 203 177 207 177 218 c 0
 177 230 163 235 142 235 c 0
EndSplineSet
Validated: 33
EndChar

StartChar: otilde
Encoding: 245 245 180
Width: 619
Flags: HW
LayerCount: 2
Fore
SplineSet
609 426 m 0
 653.333 426 691 398 691 357 c 0
 691 328 670 305 641 305 c 0
 621 305 604 319 604 339 c 0
 604 374 631 377 631 389 c 0
 631 396 622 399 613 399 c 0
 574 399 548 359 518 274 c 0
 510 248 516 238 537 238 c 0
 587 238 l 0
 595 238 601 236 597 223 c 0
 593 211 588 207 577 207 c 0
 531 207 l 0
 509 207 497 204 490 177 c 0
 480 141 l 0
 428 -49 334.5 -189 234 -189 c 0
 188 -189 153 -158 153 -116 c 0
 153 -87 174 -62 203 -62 c 0
 224 -62 244 -75 244 -98 c 0
 244 -137 216 -137 216 -151 c 0
 216 -157 220 -161 231 -161 c 0
 303 -161 345 -16 391 136 c 0
 405 180 l 0
 409 196 410 207 381 207 c 0
 333 207 l 0
 325 207 319 211 323 225 c 0
 326 237 333 238 345 238 c 0
 393 238 l 0
 418 238 426 245 436 268 c 0
 476 364 529 426 609 426 c 0
229 254 m 0
 262 254 286 232 286 198 c 0
 286 168 267 152 243 152 c 0
 223 152 208 164 208 183 c 0
 208 203 222 210 222 219 c 0
 222 222 219 224 216 224 c 0
 164 224 118 124 101 80 c 0
 78 19 l 0
 71 3 72 -1 65 -1 c 0
 58 -1 57 3 49 3 c 0
 39 3 38 -1 30 -1 c 0
 27 -1 25 1 25 4 c 0
 25 6 26 10 28 14 c 0
 91 184 l 0
 94 192 95 198 95 203 c 0
 95 213 90 217 83 217 c 0
 62 217 45 192 22 147 c 0
 18 140 13 136 8 136 c 0
 3 136 0 140 0 148 c 0
 0 151 0 155 2 159 c 0
 21 212 57 254 97 254 c 0
 118 254 129 245 136 233 c 0
 140 227 144 223 149 223 c 0
 153 223 157 225 163 230 c 0
 182 243 205 254 229 254 c 0
EndSplineSet
Validated: 33
EndChar

StartChar: odieresis
Encoding: 246 246 181
Width: 909
Flags: HW
LayerCount: 2
Fore
SplineSet
609 426 m 0
 653.333 426 691 398 691 357 c 0
 691 328 670 305 641 305 c 0
 621 305 604 319 604 339 c 0
 604 374 631 377 631 389 c 0
 631 396 622 399 613 399 c 0
 574 399 548 359 518 274 c 0
 510 248 516 238 537 238 c 0
 683 238 l 0
 708 238 716 245 726 268 c 0
 766 364 819 426 899 426 c 0
 943.333 426 981 398 981 357 c 0
 981 328 960 305 931 305 c 0
 911 305 894 319 894 339 c 0
 894 374 921 377 921 389 c 0
 921 396 912 399 903 399 c 0
 864 399 838 359 808 274 c 0
 800 248 806 238 827 238 c 0
 877 238 l 0
 885 238 891 236 887 223 c 0
 883 211 878 207 867 207 c 0
 821 207 l 0
 799 207 787 204 780 177 c 0
 770 141 l 0
 717.277 -48.801 624.5 -189 524 -189 c 0
 478 -189 443 -158 443 -116 c 0
 443 -87 464 -62 493 -62 c 0
 514 -62 534 -75 534 -98 c 0
 534 -137 506 -137 506 -151 c 0
 506 -157 510 -161 521 -161 c 0
 593 -161 635 -16 681 136 c 0
 695 180 l 0
 699 196 700 207 671 207 c 0
 531 207 l 0
 509 207 497 204 490 177 c 0
 480 141 l 0
 427.277 -48.801 334.5 -189 234 -189 c 0
 188 -189 153 -158 153 -116 c 0
 153 -87 174 -62 203 -62 c 0
 224 -62 244 -75 244 -98 c 0
 244 -137 216 -137 216 -151 c 0
 216 -157 220 -161 231 -161 c 0
 303 -161 345 -16 391 136 c 0
 405 180 l 0
 409 196 410 207 381 207 c 0
 333 207 l 0
 325 207 319 211 323 225 c 0
 326 237 333 238 345 238 c 0
 393 238 l 0
 418 238 426 245 436 268 c 0
 476 364 529 426 609 426 c 0
229 254 m 0
 262 254 286 232 286 198 c 0
 286 168 267 152 243 152 c 0
 223 152 208 164 208 183 c 0
 208 203 222 210 222 219 c 0
 222 222 219 224 216 224 c 0
 164 224 118 124 101 80 c 0
 78 19 l 0
 71 3 72 -1 65 -1 c 0
 58 -1 57 3 49 3 c 0
 39 3 38 -1 30 -1 c 0
 27 -1 25 1 25 4 c 0
 25 6 26 10 28 14 c 0
 91 184 l 0
 94 192 95 198 95 203 c 0
 95 213 90 217 83 217 c 0
 62 217 45 192 22 147 c 0
 18 140 13 136 8 136 c 0
 3 136 0 140 0 148 c 0
 0 151 0 155 2 159 c 0
 21 212 57 254 97 254 c 0
 118 254 129 245 136 233 c 0
 140 227 144 223 149 223 c 0
 153 223 157 225 163 230 c 0
 182 243 205 254 229 254 c 0
EndSplineSet
Validated: 33
EndChar

StartChar: oslash
Encoding: 248 248 182
Width: 1140
Flags: HW
LayerCount: 2
Fore
SplineSet
609 426 m 0
 653.333 426 691 398 691 357 c 0
 691 328 670 305 641 305 c 0
 621 305 604 319 604 339 c 0
 604 374 631 377 631 389 c 0
 631 396 622 399 613 399 c 0
 574 399 548 359 518 274 c 0
 510 248 516 238 537 238 c 0
 683 238 l 0
 708 238 716 245 726 268 c 0
 766 364 819 426 899 426 c 0
 943.333 426 981 398 981 357 c 0
 981 328 960 305 931 305 c 0
 911 305 894 319 894 339 c 0
 894 374 921 377 921 389 c 0
 921 396 912 399 903 399 c 0
 864 399 838 359 808 274 c 0
 800 248 806 238 827 238 c 0
 877 238 l 0
 885 238 891 236 887 223 c 0
 883 211 878 207 867 207 c 0
 821 207 l 0
 799 207 787 204 780 177 c 0
 770 141 l 0
 717.277 -48.801 624.5 -189 524 -189 c 0
 478 -189 443 -158 443 -116 c 0
 443 -87 464 -62 493 -62 c 0
 514 -62 534 -75 534 -98 c 0
 534 -137 506 -137 506 -151 c 0
 506 -157 510 -161 521 -161 c 0
 593 -161 635 -16 681 136 c 0
 695 180 l 0
 699 196 700 207 671 207 c 0
 531 207 l 0
 509 207 497 204 490 177 c 0
 480 141 l 0
 427.277 -48.801 334.5 -189 234 -189 c 0
 188 -189 153 -158 153 -116 c 0
 153 -87 174 -62 203 -62 c 0
 224 -62 244 -75 244 -98 c 0
 244 -137 216 -137 216 -151 c 0
 216 -157 220 -161 231 -161 c 0
 303 -161 345 -16 391 136 c 0
 405 180 l 0
 409 196 410 207 381 207 c 0
 333 207 l 0
 325 207 319 211 323 225 c 0
 326 237 333 238 345 238 c 0
 393 238 l 0
 418 238 426 245 436 268 c 0
 476 364 529 426 609 426 c 0
1064 19 m 0
 1076 19 1089 27 1089 41 c 0
 1089 52 1079 62 1062 68 c 0
 1051 72 1039 82 1039 94 c 0
 1039 106 1045 120 1070 120 c 0
 1094 120 1118 93 1118 59 c 0
 1118 9 1081 -15 1051 -15 c 0
 1008 -15 986 35 946 35 c 0
 926 35 899 9 881 -1 c 0
 876 -4 872 -5 869 -5 c 0
 863 -5 860 -1 860 5 c 0
 860 10 863 17 869 22 c 0
 903 55 l 0
 942 89 1001.5 148.5 1043.5 191.5 c 0
 1046.5 194.5 1048.5 197.5 1048.5 200.5 c 0
 1048.5 211.5 993.5 211.5 980.5 211.5 c 0
 970.5 211.5 962.076 208.151 953.5 194.5 c 0
 937.479 169 l 0
 930.796 158.403 923.49 156.5 919.49 156.5 c 0
 915.49 156.5 912.49 159.5 912.49 165.5 c 0
 912.49 168.5 913.49 172.5 914.49 176.5 c 0
 936 235 l 0
 942.548 252.809 944 258 959 258 c 0
 977 258 1001 251 1051 251 c 0
 1085 251 1120 258 1129 258 c 0
 1138 258 1140 255 1140 251 c 0
 1140 242 1139 241 1117 219 c 0
 1022 128 l 0
 987 92 l 0
 980 85 976 79 976 74 c 0
 976 67 981 63 989 58 c 0
 1003 50 1020 36 1037 27 c 0
 1045 22 1055 19 1064 19 c 0
229 254 m 0
 262 254 286 232 286 198 c 0
 286 168 267 152 243 152 c 0
 223 152 208 164 208 183 c 0
 208 203 222 210 222 219 c 0
 222 222 219 224 216 224 c 0
 164 224 118 124 101 80 c 0
 78 19 l 0
 71 3 72 -1 65 -1 c 0
 58 -1 57 3 49 3 c 0
 39 3 38 -1 30 -1 c 0
 27 -1 25 1 25 4 c 0
 25 6 26 10 28 14 c 0
 91 184 l 0
 94 192 95 198 95 203 c 0
 95 213 90 217 83 217 c 0
 62 217 45 192 22 147 c 0
 18 140 13 136 8 136 c 0
 3 136 0 140 0 148 c 0
 0 151 0 155 2 159 c 0
 21 212 57 254 97 254 c 0
 118 254 129 245 136 233 c 0
 140 227 144 223 149 223 c 0
 153 223 157 225 163 230 c 0
 182 243 205 254 229 254 c 0
EndSplineSet
Validated: 33
EndChar

StartChar: ugrave
Encoding: 249 249 183
Width: 1126
Flags: HW
LayerCount: 2
Fore
SplineSet
1116 426 m 0
 1160.33 426 1198 398 1198 357 c 0
 1198 328 1177 305 1148 305 c 0
 1128 305 1111 319 1111 339 c 0
 1111 374 1138 377 1138 389 c 0
 1138 396 1129 399 1120 399 c 0
 1081 399 1055 359 1025 274 c 0
 1017 248 1023 238 1044 238 c 0
 1094 238 l 0
 1102 238 1108 236 1104 223 c 0
 1100 211 1095 207 1084 207 c 0
 1038 207 l 0
 1016 207 1004 204 997 177 c 0
 987 141 l 0
 935 -49 841.5 -189 741 -189 c 0
 695 -189 660 -158 660 -116 c 0
 660 -87 681 -62 710 -62 c 0
 731 -62 751 -75 751 -98 c 0
 751 -137 723 -137 723 -151 c 0
 723 -157 727 -161 738 -161 c 0
 810 -161 852 -16 898 136 c 0
 912 180 l 0
 916 196 917 207 888 207 c 0
 840 207 l 0
 832 207 826 211 830 225 c 0
 833 237 840 238 852 238 c 0
 900 238 l 0
 925 238 933 245 943 268 c 0
 983 364 1036 426 1116 426 c 0
212 254 m 0
 243 254 266 232 266 198 c 0
 266 172 250 151 226 151 c 0
 205 151 195 165 195 184 c 0
 195 204 207 210 207 219 c 0
 207 222 204 224 201 224 c 0
 154 224 118 124 101 80 c 0
 78 19 l 0
 71 3 72 -1 65 -1 c 0
 58 -1 57 3 49 3 c 0
 39 3 38 -1 30 -1 c 0
 27 -1 25 1 25 4 c 0
 25 6 26 10 28 14 c 0
 91 184 l 0
 94 192 95 198 95 203 c 0
 95 213 90 217 83 217 c 0
 62 217 45 192 22 147 c 0
 18 140 13 136 8 136 c 0
 3 136 0 140 0 148 c 0
 0 151 0 155 2 159 c 0
 21 212 57 254 97 254 c 0
 115 254 126 247 133 239 c 0
 138 233 142 230 146 230 c 0
 150 230 153 232 158 235 c 0
 172 246 188 254 212 254 c 0
487 158.999 m 0
 506 211.999 542 253.999 582 253.999 c 0
 601 253.999 616 245.999 623 228.999 c 0
 628 215.999 633 210.999 639 210.999 c 0
 644 210.999 651 214.999 660 222.999 c 0
 680 241.999 701 253.999 722 253.999 c 0
 748 253.999 766 239.999 766 207.999 c 0
 766 191.999 762 171.999 752 146.999 c 0
 719 61.999 l 0
 716 53.999 714 46.999 714 41.999 c 0
 714 32.999 718 27.999 727 27.999 c 0
 748 27.999 766 54.999 789 99.999 c 0
 793 106.999 798 110.999 802 110.999 c 0
 807 110.999 810 105.999 810 98.999 c 0
 810 95.999 810 91.999 808 86.999 c 0
 790 33.999 753 -8.00101 713 -8.00101 c 0
 688 -8.00101 670 5.99899 670 37.999 c 0
 670 53.999 674 73.999 684 98.999 c 0
 716 183.999 l 0
 719 192.999 721 199.999 721 204.999 c 0
 721 214.999 715 219.999 707 219.999 c 0
 689 219.999 665 199.999 642 173.999 c 0
 619 145.999 601 116.999 586 79.999 c 0
 563 18.999 l 0
 556 2.99899 557 -1.00101 550 -1.00101 c 0
 543 -1.00101 542 2.99899 534 2.99899 c 0
 524 2.99899 523 -1.00101 515 -1.00101 c 0
 512 -1.00101 510 0.998993 510 3.99899 c 0
 510 5.99899 511 9.99899 513 13.999 c 0
 576 183.999 l 0
 579 191.999 580 197.999 580 202.999 c 0
 580 212.999 575 216.999 568 216.999 c 0
 547 216.999 530 191.999 507 146.999 c 0
 503 139.999 498 135.999 493 135.999 c 0
 488 135.999 485 139.999 485 147.999 c 0
 485 150.999 485 154.999 487 158.999 c 0
380 184 m 0
 383 192 384 199 384 204 c 0
 384 214 379 218 372 218 c 0
 350 218 333 191 310 146 c 0
 306 139 301 135 297 135 c 0
 292 135 289 140 289 147 c 0
 289 150 289 154 291 159 c 0
 310 212 346 254 386 254 c 0
 412 254 430 240 430 207 c 0
 430 192 426 172 416 147 c 0
 383 63 l 0
 380 55 379 49 379 44 c 0
 379 33 385 29 392 29 c 0
 413 29 430 56 453 101 c 0
 457 108 462 112 466 112 c 0
 471 112 474 107 474 100 c 0
 474 97 474 93 472 88 c 0
 454 35 417 -7 377 -7 c 0
 351 -7 333 7 333 40 c 0
 333 55 338 75 347 100 c 0
 380 184 l 0
442 310 m 0
 424 310 408 326 408 344 c 0
 408 362 423 377 442 377 c 0
 461 377 476 363 476 344 c 0
 476 325 460 310 442 310 c 0
EndSplineSet
Validated: 33
EndChar

StartChar: uacute
Encoding: 250 250 184
Width: 1416
Flags: HW
LayerCount: 2
Fore
SplineSet
1116 426 m 0
 1160.33 426 1198 398 1198 357 c 0
 1198 328 1177 305 1148 305 c 0
 1128 305 1111 319 1111 339 c 0
 1111 374 1138 377 1138 389 c 0
 1138 396 1129 399 1120 399 c 0
 1081 399 1055 359 1025 274 c 0
 1017 248 1023 238 1044 238 c 0
 1190 238 l 0
 1215 238 1223 245 1233 268 c 0
 1273 364 1326 426 1406 426 c 0
 1450.33 426 1488 398 1488 357 c 0
 1488 328 1467 305 1438 305 c 0
 1418 305 1401 319 1401 339 c 0
 1401 374 1428 377 1428 389 c 0
 1428 396 1419 399 1410 399 c 0
 1371 399 1345 359 1315 274 c 0
 1307 248 1313 238 1334 238 c 0
 1384 238 l 0
 1392 238 1398 236 1394 223 c 0
 1390 211 1385 207 1374 207 c 0
 1328 207 l 0
 1306 207 1294 204 1287 177 c 0
 1277 141 l 0
 1224.28 -48.801 1131.5 -189 1031 -189 c 0
 985 -189 950 -158 950 -116 c 0
 950 -87 971 -62 1000 -62 c 0
 1021 -62 1041 -75 1041 -98 c 0
 1041 -137 1013 -137 1013 -151 c 0
 1013 -157 1017 -161 1028 -161 c 0
 1100 -161 1142 -16 1188 136 c 0
 1202 180 l 0
 1206 196 1207 207 1178 207 c 0
 1038 207 l 0
 1016 207 1004 204 997 177 c 0
 987 141 l 0
 934.277 -48.801 841.5 -189 741 -189 c 0
 695 -189 660 -158 660 -116 c 0
 660 -87 681 -62 710 -62 c 0
 731 -62 751 -75 751 -98 c 0
 751 -137 723 -137 723 -151 c 0
 723 -157 727 -161 738 -161 c 0
 810 -161 852 -16 898 136 c 0
 912 180 l 0
 916 196 917 207 888 207 c 0
 840 207 l 0
 832 207 826 211 830 225 c 0
 833 237 840 238 852 238 c 0
 900 238 l 0
 925 238 933 245 943 268 c 0
 983 364 1036 426 1116 426 c 0
212 254 m 0
 243 254 266 232 266 198 c 0
 266 172 250 151 226 151 c 0
 205 151 195 165 195 184 c 0
 195 204 207 210 207 219 c 0
 207 222 204 224 201 224 c 0
 154 224 118 124 101 80 c 0
 78 19 l 0
 71 3 72 -1 65 -1 c 0
 58 -1 57 3 49 3 c 0
 39 3 38 -1 30 -1 c 0
 27 -1 25 1 25 4 c 0
 25 6 26 10 28 14 c 0
 91 184 l 0
 94 192 95 198 95 203 c 0
 95 213 90 217 83 217 c 0
 62 217 45 192 22 147 c 0
 18 140 13 136 8 136 c 0
 3 136 0 140 0 148 c 0
 0 151 0 155 2 159 c 0
 21 212 57 254 97 254 c 0
 115 254 126 247 133 239 c 0
 138 233 142 230 146 230 c 0
 150 230 153 232 158 235 c 0
 172 246 188 254 212 254 c 0
487 158.999 m 0
 506 211.999 542 253.999 582 253.999 c 0
 601 253.999 616 245.999 623 228.999 c 0
 628 215.999 633 210.999 639 210.999 c 0
 644 210.999 651 214.999 660 222.999 c 0
 680 241.999 701 253.999 722 253.999 c 0
 748 253.999 766 239.999 766 207.999 c 0
 766 191.999 762 171.999 752 146.999 c 0
 719 61.999 l 0
 716 53.999 714 46.999 714 41.999 c 0
 714 32.999 718 27.999 727 27.999 c 0
 748 27.999 766 54.999 789 99.999 c 0
 793 106.999 798 110.999 802 110.999 c 0
 807 110.999 810 105.999 810 98.999 c 0
 810 95.999 810 91.999 808 86.999 c 0
 790 33.999 753 -8.00101 713 -8.00101 c 0
 688 -8.00101 670 5.99899 670 37.999 c 0
 670 53.999 674 73.999 684 98.999 c 0
 716 183.999 l 0
 719 192.999 721 199.999 721 204.999 c 0
 721 214.999 715 219.999 707 219.999 c 0
 689 219.999 665 199.999 642 173.999 c 0
 619 145.999 601 116.999 586 79.999 c 0
 563 18.999 l 0
 556 2.99899 557 -1.00101 550 -1.00101 c 0
 543 -1.00101 542 2.99899 534 2.99899 c 0
 524 2.99899 523 -1.00101 515 -1.00101 c 0
 512 -1.00101 510 0.998993 510 3.99899 c 0
 510 5.99899 511 9.99899 513 13.999 c 0
 576 183.999 l 0
 579 191.999 580 197.999 580 202.999 c 0
 580 212.999 575 216.999 568 216.999 c 0
 547 216.999 530 191.999 507 146.999 c 0
 503 139.999 498 135.999 493 135.999 c 0
 488 135.999 485 139.999 485 147.999 c 0
 485 150.999 485 154.999 487 158.999 c 0
380 184 m 0
 383 192 384 199 384 204 c 0
 384 214 379 218 372 218 c 0
 350 218 333 191 310 146 c 0
 306 139 301 135 297 135 c 0
 292 135 289 140 289 147 c 0
 289 150 289 154 291 159 c 0
 310 212 346 254 386 254 c 0
 412 254 430 240 430 207 c 0
 430 192 426 172 416 147 c 0
 383 63 l 0
 380 55 379 49 379 44 c 0
 379 33 385 29 392 29 c 0
 413 29 430 56 453 101 c 0
 457 108 462 112 466 112 c 0
 471 112 474 107 474 100 c 0
 474 97 474 93 472 88 c 0
 454 35 417 -7 377 -7 c 0
 351 -7 333 7 333 40 c 0
 333 55 338 75 347 100 c 0
 380 184 l 0
442 310 m 0
 424 310 408 326 408 344 c 0
 408 362 423 377 442 377 c 0
 461 377 476 363 476 344 c 0
 476 325 460 310 442 310 c 0
EndSplineSet
Validated: 33
EndChar

